<svg width="29" height="33" viewBox="0 0 29 33" fill="none" xmlns="http://www.w3.org/2000/svg">
<path fill-rule="evenodd" clip-rule="evenodd" d="M5.28019 7.79024C5.28019 3.48781 8.768 0 13.0704 0C17.3728 0 20.8607 3.4878 20.8607 7.79024C20.8607 10.7362 19.2254 13.3002 16.8131 14.6242C18.5428 15.1402 20.1222 16.0047 21.4699 17.1363C21.3281 17.1288 21.1853 17.125 21.0417 17.125C20.4088 17.125 19.7932 17.1985 19.2027 17.3374C17.4287 16.2264 15.3318 15.5832 13.0849 15.5805L13.0704 15.5805L13.056 15.5805C6.67246 15.5883 1.5 20.7655 1.5 27.1509V28.9109C1.5 29.3252 1.16421 29.6609 0.75 29.6609C0.335786 29.6609 0 29.3252 0 28.9109V27.1509C0 21.233 3.93301 16.2337 9.32776 14.6242C6.91544 13.3002 5.28019 10.7362 5.28019 7.79024ZM19.3607 7.79024C19.3607 11.2596 16.5518 14.073 13.0842 14.0805L13.0704 14.0805L13.0566 14.0805C9.58898 14.073 6.78019 11.2596 6.78019 7.79024C6.78019 4.31624 9.59643 1.5 13.0704 1.5C16.5444 1.5 19.3607 4.31624 19.3607 7.79024Z" fill="white"/>
<circle cx="21.0415" cy="25.375" r="6.25" stroke="white" stroke-width="1.5"/>
<path d="M18 25.4L19.7143 27L24 23" stroke="white" stroke-width="1.5" stroke-linecap="round" stroke-linejoin="round"/>
</svg>
