<svg width="41" height="41" viewBox="0 0 41 41" fill="none" xmlns="http://www.w3.org/2000/svg">
<g clip-path="url(#clip0_125_2208)">
<path d="M2.76754 10.4991H0.15332V2.7521C0.15332 1.30434 1.32551 0.133301 2.76754 0.133301H10.5054V2.7521H2.76754V10.4991Z" fill="white"/>
<path d="M40.8074 10.4991H38.1938V2.7521H30.4565V0.133301H38.1938C39.6364 0.133301 40.8074 1.30434 40.8074 2.7521V10.4991Z" fill="white"/>
<path d="M10.5054 40.8509H2.76754C1.32379 40.8509 0.15332 39.677 0.15332 38.235V30.4834H2.76754V38.235H10.5054V40.8509Z" fill="white"/>
<path d="M38.1938 40.8509H30.4565V38.235H38.1938V30.4834H40.8074V38.235C40.8074 39.677 39.6347 40.8509 38.1938 40.8509Z" fill="white"/>
<mask id="mask0_125_2208" style="mask-type:luminance" maskUnits="userSpaceOnUse" x="-4" y="19" width="49" height="3">
<path d="M-3.11426 19.1064H44.0757V21.8931H-3.11426V19.1064Z" fill="white"/>
</mask>
<g mask="url(#mask0_125_2208)">
<path d="M42.7672 21.8022H-1.80629C-2.52931 21.8022 -3.11426 21.2156 -3.11426 20.492C-3.11426 19.7684 -2.52931 19.1846 -1.80629 19.1846H42.7689C43.4902 19.1846 44.0769 19.7684 44.0769 20.492C44.0769 21.2156 43.4902 21.8022 42.7672 21.8022Z" fill="white"/>
</g>
<path d="M6.15234 17.8639C6.15234 17.8639 18.7737 17.4342 28.299 13.4966C30.1215 17.9098 34.8085 17.8639 34.8085 17.8639C34.8022 17.8582 34.7965 17.8553 34.7907 17.8496C34.7907 17.8181 34.7907 17.786 34.7907 17.7562C34.7907 7.71643 28.5276 2.84033 20.4804 2.84033C12.4344 2.84033 6.16953 7.71643 6.16953 17.7562C6.16953 17.786 6.16953 17.8169 6.16953 17.8496C6.1638 17.8553 6.15807 17.8582 6.15234 17.8639Z" fill="white"/>
<path d="M32.5273 23.1211C32.0965 24.6708 31.3265 25.5096 30.6866 25.7668L30.2254 25.9513L30.0558 26.4211C27.948 32.2837 25.9766 35.9275 20.4806 35.9275C14.984 35.9275 13.0126 32.2837 10.9055 26.4211L10.737 25.9513L10.2752 25.7668C9.63702 25.5096 8.86702 24.6708 8.43504 23.1211H6.16113C6.61087 25.2214 7.60947 26.829 8.98103 27.5956C11.4583 34.1154 14.4398 38.1435 20.4806 38.1435C26.522 38.1435 29.5023 34.1154 31.9802 27.5956C33.3529 26.8273 34.3498 25.2214 34.7995 23.1211H32.5273Z" fill="white"/>
</g>
<defs>
<clipPath id="clip0_125_2208">
<rect width="40" height="41" fill="white" transform="translate(0.5)"/>
</clipPath>
</defs>
</svg>
