<svg width="43" height="42" viewBox="0 0 43 42" fill="none" xmlns="http://www.w3.org/2000/svg">
<g clip-path="url(#clip0_125_2223)">
<path d="M2.65842 10.5993H-0.0603638V2.5424C-0.0603638 1.03673 1.15871 -0.181152 2.65842 -0.181152H10.7057V2.5424H2.65842V10.5993Z" fill="white"/>
<path d="M42.22 10.5993H39.5018V2.5424H31.4551V-0.181152H39.5018C41.0021 -0.181152 42.22 1.03673 42.22 2.5424V10.5993Z" fill="white"/>
<path d="M10.7057 42.1645H2.65842C1.15692 42.1645 -0.0603638 40.9437 -0.0603638 39.4439V31.3823H2.65842V39.4439H10.7057V42.1645Z" fill="white"/>
<path d="M39.5011 42.1663H31.4551V39.4453H39.5011V31.3823H42.2191V39.4453C42.2191 40.9453 40.9995 42.1663 39.5011 42.1663Z" fill="white"/>
<mask id="mask0_125_2223" style="mask-type:luminance" maskUnits="userSpaceOnUse" x="12" y="2" width="18" height="4">
<path d="M12.7709 2.86865H29.429V5.94557H12.7709V2.86865Z" fill="white"/>
</mask>
<g mask="url(#mask0_125_2223)">
<path d="M13.8893 5.80688C15.0238 5.31097 16.1987 4.94196 17.4132 4.70027C18.6277 4.45817 19.854 4.34905 21.0923 4.37249C22.3311 4.35067 23.5582 4.461 24.7735 4.7031C25.9884 4.94519 27.1641 5.3138 28.3002 5.8085C28.3451 5.83032 28.392 5.8473 28.4405 5.85982C28.489 5.87195 28.5383 5.87963 28.5884 5.88205C28.6385 5.88488 28.6882 5.88246 28.7376 5.87478C28.7873 5.8675 28.8354 5.85538 28.8827 5.8384C28.9295 5.82143 28.9748 5.7996 29.0172 5.77374C29.0601 5.74787 29.1001 5.71756 29.1369 5.68361C29.1737 5.64966 29.2068 5.61247 29.2359 5.57206C29.2654 5.53124 29.2905 5.48839 29.3111 5.44272C29.3321 5.39705 29.3478 5.34977 29.3592 5.30127C29.3705 5.25236 29.3769 5.20305 29.3782 5.15294C29.3798 5.10282 29.3761 5.05311 29.3676 5.0038C29.3592 4.95449 29.3458 4.90639 29.328 4.85951C29.3099 4.81303 29.2872 4.76857 29.2601 4.72614C29.2335 4.6841 29.2023 4.6449 29.1676 4.60893C29.1328 4.57296 29.0948 4.54062 29.0536 4.51233C29.0124 4.48404 28.9687 4.45979 28.9227 4.43999C27.6891 3.90042 26.412 3.49828 25.092 3.23355C23.772 2.96842 22.4386 2.84676 21.0923 2.86859C19.7457 2.84514 18.4119 2.96559 17.0911 3.23072C15.7707 3.49626 14.4935 3.89962 13.2604 4.4416C13.2143 4.46141 13.1703 4.48525 13.129 4.51395C13.0878 4.54265 13.0494 4.57457 13.0147 4.61095C12.9795 4.64692 12.9488 4.68653 12.9217 4.72856C12.8946 4.771 12.872 4.81586 12.8538 4.86275C12.8356 4.90963 12.8227 4.95772 12.8142 5.00744C12.8057 5.05675 12.8021 5.10686 12.8037 5.15698C12.8053 5.2071 12.8122 5.25681 12.8235 5.30571C12.8352 5.35462 12.8514 5.4019 12.8724 5.44757C12.8934 5.49325 12.9189 5.53649 12.9484 5.57691C12.9779 5.61773 13.0114 5.65491 13.0486 5.68886C13.0858 5.72241 13.1258 5.75232 13.1691 5.77818C13.2123 5.80405 13.2576 5.82547 13.3049 5.84204C13.3521 5.85902 13.4006 5.87074 13.4508 5.87761C13.5005 5.88488 13.5502 5.8869 13.6007 5.88367C13.6508 5.88084 13.7001 5.87276 13.7486 5.85982C13.7971 5.84689 13.844 5.82911 13.8893 5.80688Z" fill="#FFC107"/>
</g>
<path d="M11.101 11.6689C11.2614 11.5 11.4263 11.3355 11.5948 11.175C11.7638 11.0146 11.9364 10.8586 12.1134 10.707C12.29 10.555 12.4703 10.4079 12.6546 10.2657C12.8389 10.123 13.0264 9.98517 13.2176 9.8522C13.4087 9.71923 13.6031 9.59111 13.8008 9.46784C13.9984 9.34457 14.1989 9.22655 14.4026 9.11379C14.6063 9.00062 14.8124 8.89271 15.0218 8.79046C15.2307 8.6878 15.4421 8.59039 15.6563 8.49865C15.8701 8.4069 16.0863 8.32041 16.305 8.23958C16.5233 8.15874 16.7435 8.08357 16.9658 8.01365C17.1877 7.94413 17.4116 7.88027 17.6371 7.82167C17.8627 7.76347 18.0894 7.71052 18.3174 7.66404C18.5457 7.61716 18.7749 7.57593 19.0048 7.54077C19.2352 7.50521 19.466 7.47611 19.698 7.45226C19.9296 7.42882 20.1616 7.41103 20.3944 7.39931C20.6268 7.38759 20.8596 7.38153 21.0924 7.38153C21.3252 7.38153 21.558 7.38759 21.7908 7.39931C22.0232 7.41103 22.2551 7.42882 22.4871 7.45226C22.7187 7.47611 22.9495 7.50521 23.1799 7.54077C23.4099 7.57593 23.639 7.61716 23.8674 7.66404C24.0953 7.71052 24.3221 7.76347 24.5476 7.82167C24.7731 7.88027 24.997 7.94413 25.2189 8.01365C25.4412 8.08357 25.6615 8.15874 25.8801 8.23958C26.0984 8.32041 26.3146 8.4069 26.5284 8.49865C26.7426 8.59039 26.954 8.6878 27.1633 8.79046C27.3723 8.89271 27.5784 9.00062 27.7821 9.11379C27.9858 9.22655 28.1867 9.34457 28.3843 9.46784C28.5816 9.59111 28.776 9.71923 28.9671 9.8522C29.1583 9.98517 29.3463 10.123 29.5301 10.2657C29.7144 10.4079 29.8947 10.555 30.0717 10.707C30.2484 10.8586 30.4209 11.0146 30.5899 11.175C30.7584 11.3355 30.9233 11.5 31.0838 11.6689C31.1185 11.7017 31.1565 11.7312 31.1973 11.7566C31.2377 11.7825 31.2806 11.8039 31.3255 11.8213C31.3703 11.8387 31.4164 11.852 31.4637 11.8605C31.511 11.869 31.5587 11.873 31.6068 11.8726C31.6549 11.8722 31.7025 11.867 31.7494 11.8573C31.7967 11.8476 31.8424 11.8338 31.8868 11.8152C31.9313 11.7966 31.9733 11.7744 32.0138 11.7477C32.0538 11.7211 32.0909 11.6912 32.1253 11.6572C32.1597 11.6237 32.1904 11.5869 32.2174 11.5473C32.2449 11.5077 32.2684 11.466 32.2874 11.422C32.3068 11.3779 32.3217 11.3323 32.3322 11.2854C32.3427 11.2385 32.3488 11.1912 32.35 11.1431C32.3516 11.095 32.3484 11.0473 32.3407 10.9996C32.3326 10.9523 32.3205 10.9059 32.3039 10.861C32.2874 10.8157 32.2668 10.7725 32.2417 10.7313C32.2166 10.6904 32.1884 10.652 32.156 10.6161C31.9782 10.4298 31.7955 10.2479 31.6084 10.0709C31.4212 9.89343 31.2301 9.72125 31.034 9.55352C30.8384 9.38579 30.6384 9.22332 30.4343 9.0661C30.2306 8.90847 30.0224 8.75651 29.8106 8.60939C29.5993 8.46268 29.3838 8.32081 29.1648 8.18501C28.9461 8.04881 28.7238 7.91867 28.4983 7.79378C28.2728 7.66889 28.0444 7.54966 27.8128 7.4365C27.5817 7.32333 27.3472 7.21582 27.1104 7.11438C26.8736 7.01293 26.6343 6.91795 26.3926 6.82863C26.1505 6.73931 25.9068 6.65605 25.6611 6.57886C25.4149 6.50206 25.1672 6.43133 24.9178 6.36667C24.668 6.30241 24.417 6.24421 24.1648 6.19247C23.9122 6.14074 23.6588 6.09547 23.4038 6.05627C23.1492 6.01747 22.8937 5.98513 22.6371 5.95886C22.3808 5.933 22.1238 5.9136 21.8663 5.90066C21.6093 5.88733 21.3514 5.88086 21.094 5.88086C20.8361 5.88086 20.5787 5.88733 20.3212 5.90066C20.0638 5.9136 19.8071 5.933 19.5505 5.95886C19.2942 5.98513 19.0388 6.01747 18.7838 6.05627C18.5291 6.09547 18.2753 6.14074 18.0231 6.19247C17.7705 6.24421 17.5195 6.30241 17.2702 6.36667C17.0204 6.43133 16.7726 6.50206 16.5269 6.57886C16.2808 6.65605 16.037 6.73931 15.7953 6.82863C15.5537 6.91795 15.3144 7.01293 15.0775 7.11438C14.8403 7.21582 14.6063 7.32333 14.3747 7.4365C14.1431 7.54966 13.9148 7.66889 13.6892 7.79378C13.4637 7.91867 13.2418 8.04881 13.0228 8.18501C12.8041 8.32081 12.5887 8.46268 12.3769 8.60939C12.1651 8.75651 11.9574 8.90847 11.7533 9.0661C11.5492 9.22332 11.3495 9.38579 11.1535 9.55352C10.9579 9.72125 10.7663 9.89343 10.5792 10.0709C10.3924 10.2479 10.2098 10.4298 10.0319 10.6161C10.0012 10.652 9.97373 10.6904 9.95029 10.7313C9.92685 10.7725 9.90705 10.8149 9.89169 10.8598C9.87592 10.9042 9.86501 10.9499 9.85814 10.9968C9.85127 11.0437 9.84844 11.0906 9.85046 11.1379C9.85248 11.1847 9.85895 11.2316 9.86946 11.2777C9.88037 11.3234 9.89532 11.3682 9.91432 11.4115C9.93372 11.4547 9.95676 11.4955 9.98343 11.5343C10.0105 11.5731 10.0404 11.6091 10.0744 11.6423C10.1079 11.6754 10.1443 11.7053 10.1839 11.7316C10.2231 11.7578 10.2643 11.7801 10.308 11.7987C10.3512 11.8173 10.3961 11.8314 10.4422 11.8415C10.4886 11.8516 10.5351 11.8573 10.5824 11.8585C10.6297 11.8597 10.6766 11.8565 10.7235 11.8488C10.7699 11.8411 10.8156 11.829 10.8597 11.8128C10.9041 11.7966 10.9466 11.7764 10.9874 11.7522C11.0278 11.7279 11.0658 11.7001 11.101 11.6689Z" fill="#FFC107"/>
<path d="M21.0923 8.88379C20.0233 8.88339 18.9704 9.01514 17.9341 9.27947C17.8856 9.29079 17.8383 9.30655 17.7927 9.32716C17.747 9.34777 17.7037 9.37283 17.6633 9.40193C17.6225 9.43144 17.5853 9.46458 17.551 9.50095C17.517 9.53773 17.4871 9.57774 17.4608 9.62018C17.435 9.66302 17.4131 9.70789 17.3962 9.75517C17.3788 9.80206 17.3667 9.85056 17.359 9.89986C17.3517 9.94958 17.3493 9.99929 17.3517 10.0494C17.3541 10.0995 17.3614 10.1488 17.3739 10.1973C17.3861 10.2458 17.403 10.2927 17.4249 10.3376C17.4467 10.3828 17.4726 10.4253 17.5029 10.4653C17.5328 10.5053 17.5667 10.5421 17.6043 10.5752C17.6419 10.6084 17.6823 10.6375 17.7256 10.6625C17.7688 10.6876 17.8141 10.7082 17.8618 10.7244C17.9091 10.7405 17.9576 10.7518 18.0073 10.7579C18.057 10.7644 18.1071 10.7656 18.1568 10.762C18.2069 10.7583 18.2558 10.7498 18.3043 10.7365C18.5117 10.6839 18.7202 10.6375 18.93 10.5966C19.1401 10.5558 19.3511 10.5215 19.5629 10.4924C19.7747 10.4637 19.9873 10.441 20.2007 10.4245C20.4137 10.4079 20.6275 10.3974 20.8413 10.3929C21.0551 10.3885 21.2685 10.3901 21.4823 10.3974C21.6961 10.4051 21.9095 10.4188 22.1225 10.4386C22.3355 10.4584 22.5477 10.4843 22.7591 10.5162C22.9704 10.5477 23.181 10.5857 23.3904 10.6294C23.5997 10.673 23.8075 10.7227 24.014 10.7785C24.2205 10.8339 24.425 10.8953 24.6283 10.9628C24.8312 11.0299 25.0321 11.1027 25.2309 11.1815C25.4298 11.2603 25.6262 11.3444 25.8206 11.4341C26.0146 11.5238 26.2058 11.6192 26.3945 11.7198C26.5833 11.8205 26.7688 11.9264 26.9515 12.0375C27.1342 12.1486 27.3136 12.265 27.4898 12.3867C27.6656 12.508 27.8382 12.6345 28.0072 12.7654C28.1761 12.8968 28.341 13.0326 28.5023 13.1732C28.6631 13.3139 28.8203 13.4586 28.9731 13.6081C29.1263 13.7576 29.2746 13.9116 29.4189 14.0692C29.5628 14.2273 29.7026 14.3893 29.8376 14.5551C29.9726 14.7212 30.1028 14.8905 30.2281 15.0639C30.3533 15.2369 30.4738 15.4139 30.589 15.5938C30.7042 15.774 30.8145 15.9571 30.9192 16.1434C31.0243 16.3298 31.1237 16.5189 31.2179 16.7109C31.312 16.9029 31.4005 17.0977 31.4838 17.2945C31.5667 17.4917 31.6443 17.691 31.7158 17.8923C31.7877 18.0939 31.8536 18.2972 31.9138 18.5021C31.9741 18.7075 32.0286 18.914 32.0771 19.1225C32.1256 19.3307 32.1681 19.54 32.2044 19.751C32.2412 19.9616 32.2715 20.173 32.2962 20.3856C32.3208 20.5982 32.3394 20.8112 32.3515 21.0246C32.3641 21.238 32.3705 21.4518 32.3709 21.6656C32.3709 21.7149 32.3758 21.7638 32.3851 21.8123C32.3948 21.8604 32.4093 21.9077 32.4279 21.9533C32.4469 21.9986 32.47 22.0422 32.4975 22.0831C32.5249 22.1243 32.5561 22.1623 32.5912 22.197C32.626 22.2318 32.664 22.2629 32.7052 22.2904C32.746 22.3179 32.7893 22.3413 32.8349 22.3599C32.8806 22.3789 32.9275 22.3931 32.976 22.4028C33.0245 22.4125 33.0734 22.4173 33.1227 22.4173C33.172 22.4173 33.2209 22.4125 33.2694 22.4028C33.3179 22.3931 33.3648 22.3789 33.4105 22.3599C33.4561 22.3413 33.4994 22.3179 33.5406 22.2904C33.5814 22.2629 33.6194 22.2318 33.6546 22.197C33.6893 22.1623 33.7205 22.1243 33.7479 22.0831C33.7754 22.0422 33.7985 21.9986 33.8175 21.9533C33.8365 21.9077 33.8506 21.8604 33.8603 21.8123C33.87 21.7638 33.8744 21.7149 33.8744 21.6656C33.8744 21.4562 33.8692 21.2472 33.8587 21.0383C33.8482 20.8297 33.8324 20.6212 33.8118 20.413C33.7912 20.2049 33.7653 19.9976 33.7342 19.7906C33.7035 19.5841 33.6675 19.378 33.6267 19.1731C33.5855 18.9677 33.5394 18.764 33.4885 18.5612C33.4375 18.3583 33.3818 18.157 33.3207 17.9569C33.2601 17.7569 33.1942 17.5584 33.1239 17.3616C33.0532 17.1648 32.9776 16.9695 32.8976 16.7764C32.8176 16.5832 32.7327 16.3924 32.643 16.2032C32.5536 16.0145 32.4595 15.8278 32.3608 15.6431C32.2622 15.4588 32.1592 15.2769 32.0517 15.0979C31.9437 14.9184 31.8322 14.7418 31.7158 14.568C31.5994 14.3942 31.479 14.2232 31.3545 14.0555C31.23 13.8874 31.1015 13.7225 30.9685 13.5608C30.8359 13.3995 30.6993 13.2411 30.5587 13.0863C30.4184 12.9311 30.2741 12.78 30.1262 12.632C29.9787 12.4841 29.8271 12.3398 29.6723 12.1996C29.5171 12.0589 29.3591 11.9223 29.1974 11.7897C29.0358 11.6572 28.8709 11.5287 28.7027 11.4038C28.535 11.2793 28.364 11.1588 28.1902 11.0424C28.0165 10.9264 27.8398 10.8145 27.6604 10.707C27.4809 10.5995 27.2995 10.4964 27.1148 10.3974C26.9305 10.2988 26.7437 10.205 26.555 10.1153C26.3658 10.026 26.1747 9.94109 25.9815 9.86106C25.7883 9.78064 25.5935 9.70546 25.3966 9.63473C25.1998 9.56441 25.0014 9.49853 24.8013 9.4375C24.6012 9.37687 24.3996 9.3211 24.1967 9.26977C23.9938 9.21884 23.7901 9.17317 23.5848 9.13195C23.3799 9.09113 23.1741 9.05516 22.9672 9.02444C22.7603 8.99332 22.5529 8.96745 22.3448 8.94684C22.1366 8.92623 21.9281 8.91047 21.7191 8.89996C21.5106 8.88945 21.3012 8.88419 21.0923 8.88379Z" fill="#FFC107"/>
<mask id="mask1_125_2223" style="mask-type:luminance" maskUnits="userSpaceOnUse" x="8" y="10" width="8" height="13">
<path d="M8.24963 10.498H15.875V22.5002H8.24963V10.498Z" fill="white"/>
</mask>
<g mask="url(#mask1_125_2223)">
<path d="M9.81378 21.6772C9.81661 21.3098 9.83722 20.9432 9.87481 20.5778C9.9128 20.2125 9.96817 19.8495 10.0409 19.4894C10.1137 19.1293 10.2038 18.7732 10.3105 18.4216C10.4176 18.07 10.5409 17.7244 10.6811 17.3849C10.8214 17.045 10.9774 16.7128 11.1496 16.3882C11.3213 16.0633 11.5085 15.7476 11.7109 15.4409C11.913 15.1341 12.1297 14.8374 12.3604 14.5517C12.5912 14.2655 12.8353 13.9915 13.0924 13.7288C13.7916 13.0195 14.5712 12.4128 15.4305 11.9093C15.4733 11.8842 15.5129 11.8555 15.5501 11.8228C15.5869 11.7896 15.62 11.7537 15.6499 11.7144C15.6799 11.6748 15.7053 11.6328 15.7271 11.5888C15.7486 11.5443 15.7655 11.4978 15.7781 11.4501C15.7906 11.4024 15.7983 11.3539 15.8011 11.3046C15.8039 11.2553 15.8019 11.206 15.7954 11.1571C15.7886 11.1082 15.7769 11.0605 15.7607 11.014C15.7445 10.9671 15.7239 10.9227 15.6993 10.8798C15.6742 10.8374 15.6451 10.7978 15.6124 10.7606C15.5796 10.7238 15.5437 10.6903 15.504 10.6608C15.4648 10.6309 15.4228 10.605 15.3783 10.5836C15.3339 10.5622 15.2878 10.5452 15.2401 10.5327C15.192 10.5201 15.1435 10.5125 15.0942 10.5096C15.0449 10.5068 14.996 10.5084 14.9471 10.5153C14.8982 10.5222 14.8501 10.5335 14.8036 10.5496C14.7571 10.5662 14.7123 10.5864 14.6698 10.6115C14.4302 10.7521 14.1954 10.9005 13.9654 11.0565C13.7354 11.2121 13.5107 11.3754 13.2912 11.5455C13.0722 11.7161 12.8584 11.8931 12.6502 12.0774C12.4425 12.2617 12.2408 12.4525 12.0452 12.6497C11.8496 12.8469 11.6604 13.0502 11.4781 13.2596C11.2955 13.4693 11.12 13.6844 10.9515 13.905C10.783 14.1261 10.6217 14.352 10.4677 14.5832C10.3141 14.8144 10.1678 15.0504 10.0292 15.2913C9.89057 15.5318 9.75962 15.7767 9.63676 16.0261C9.51429 16.2751 9.39951 16.5281 9.29321 16.7847C9.18651 17.041 9.08871 17.3008 8.99898 17.564C8.90926 17.8267 8.82842 18.0922 8.75567 18.3606C8.68333 18.6285 8.61987 18.8989 8.56491 19.1709C8.50994 19.4433 8.46346 19.7169 8.42628 19.9926C8.38909 20.2678 8.3608 20.5439 8.3414 20.8211C8.322 21.098 8.31149 21.3756 8.31028 21.6533C8.30947 21.7026 8.31352 21.7519 8.32241 21.8004C8.3313 21.8493 8.34464 21.8966 8.36323 21.9427C8.38142 21.9888 8.40405 22.0324 8.43072 22.074C8.4578 22.1157 8.48852 22.1541 8.52287 22.1896C8.55723 22.2248 8.59522 22.2567 8.63604 22.2846C8.67646 22.3129 8.7197 22.3368 8.76537 22.3562C8.81064 22.3756 8.85752 22.3905 8.90602 22.401C8.95452 22.4111 9.00343 22.4164 9.05314 22.4172H9.06203C9.11094 22.4172 9.15944 22.4123 9.20713 22.403C9.25522 22.3937 9.3017 22.3796 9.34697 22.361C9.39224 22.3424 9.43508 22.3198 9.4759 22.2931C9.51672 22.266 9.55471 22.2353 9.58947 22.2014C9.62423 22.167 9.65535 22.1294 9.68324 22.0894C9.71072 22.049 9.73416 22.0061 9.75316 21.9613C9.77256 21.9164 9.78711 21.8699 9.79761 21.8223C9.80772 21.7746 9.81297 21.7261 9.81378 21.6772Z" fill="#FFC107"/>
</g>
<path d="M12.8215 21.8502C12.8183 21.573 12.8284 21.2965 12.8523 21.0205C12.8761 20.744 12.9133 20.4696 12.9642 20.1972C13.0151 19.9248 13.079 19.6552 13.1562 19.3892C13.2334 19.1229 13.3235 18.861 13.4266 18.6035C13.5296 18.3465 13.6448 18.0947 13.7725 17.8486C13.9003 17.6024 14.0397 17.3632 14.1909 17.1312C14.342 16.8988 14.5041 16.6741 14.6775 16.4578C14.8505 16.2412 15.0339 16.0339 15.2275 15.8354C15.4183 15.6414 15.6184 15.4575 15.8277 15.2837C16.0367 15.1099 16.2541 14.9466 16.4796 14.7943C16.7052 14.6423 16.9376 14.5017 17.1772 14.3727C17.4165 14.2434 17.6618 14.1266 17.9132 14.0223C18.1642 13.9176 18.4201 13.8259 18.6803 13.7471C18.941 13.6679 19.2045 13.602 19.4713 13.5494C19.7384 13.4969 20.0072 13.4577 20.278 13.4318C20.5488 13.406 20.8204 13.3938 21.0924 13.395C21.387 13.395 21.6809 13.4112 21.9739 13.4427C22.2669 13.4743 22.5571 13.5211 22.8453 13.5838C23.133 13.6464 23.4168 13.7244 23.6965 13.8174C23.9761 13.9104 24.2498 14.0179 24.5181 14.1399C24.7861 14.2624 25.0468 14.3986 25.3006 14.5485C25.554 14.6985 25.7989 14.8618 26.035 15.038C26.271 15.2142 26.4973 15.4025 26.7132 15.603C26.929 15.8035 27.1339 16.0149 27.3271 16.2371C27.359 16.2764 27.3946 16.3119 27.4334 16.3438C27.4722 16.3758 27.5142 16.4037 27.5587 16.4271C27.6031 16.451 27.6496 16.4699 27.6981 16.4841C27.7466 16.4982 27.7959 16.5075 27.846 16.512C27.8961 16.5164 27.9467 16.5156 27.9964 16.51C28.0465 16.5043 28.0958 16.4934 28.1435 16.478C28.1916 16.4623 28.2377 16.4421 28.2813 16.417C28.3254 16.3923 28.3662 16.3632 28.4046 16.3301C28.4426 16.297 28.4769 16.2606 28.5077 16.2206C28.5384 16.1806 28.5646 16.1377 28.5869 16.0925C28.6087 16.0472 28.6261 15.9999 28.639 15.9514C28.6515 15.9025 28.6592 15.8528 28.6616 15.8023C28.6645 15.7521 28.662 15.702 28.6544 15.6519C28.6471 15.6022 28.6346 15.5537 28.6176 15.506C28.6002 15.4587 28.5784 15.4135 28.5521 15.3706C28.5258 15.3274 28.4955 15.2874 28.4612 15.2506C28.2324 14.9879 27.9907 14.7381 27.7353 14.5013C27.4803 14.2644 27.2131 14.0417 26.9338 13.8332C26.655 13.625 26.3656 13.4322 26.0657 13.2548C25.7662 13.0774 25.4578 12.9165 25.1409 12.7718C24.8241 12.6275 24.5003 12.5002 24.1701 12.3907C23.8395 12.2808 23.5041 12.1886 23.1638 12.1146C22.8235 12.0407 22.4803 11.9849 22.1343 11.9477C21.788 11.9101 21.4408 11.8915 21.0924 11.8911C20.7707 11.8903 20.4502 11.9053 20.1301 11.9364C19.81 11.9675 19.4923 12.0144 19.1767 12.0771C18.8614 12.1397 18.5498 12.2181 18.2422 12.3119C17.9346 12.4056 17.6327 12.5148 17.3361 12.6384C17.039 12.7625 16.7492 12.9012 16.4663 13.0539C16.1838 13.2067 15.909 13.3732 15.6426 13.5535C15.3763 13.7341 15.1196 13.9269 14.8727 14.1331C14.6257 14.3388 14.3897 14.5566 14.1646 14.7858C13.9354 15.0202 13.7184 15.2651 13.5135 15.5206C13.3086 15.776 13.1166 16.0407 12.9375 16.3152C12.7589 16.5896 12.5936 16.8721 12.4424 17.1627C12.2917 17.4533 12.1551 17.7508 12.0334 18.0547C11.9114 18.359 11.8047 18.6682 11.7133 18.9827C11.622 19.2975 11.5464 19.6156 11.4862 19.9377C11.4264 20.2594 11.3819 20.584 11.354 20.9101C11.3257 21.2363 11.3136 21.5633 11.3176 21.891C11.2849 22.834 11.1499 23.7619 10.9127 24.6749C10.6754 25.5879 10.342 26.4646 9.91154 27.304L9.48918 28.0562C9.46291 28.099 9.44109 28.1443 9.42371 28.192C9.40673 28.2393 9.3942 28.2882 9.38693 28.3383C9.37965 28.388 9.37723 28.4381 9.38006 28.4887C9.38289 28.5392 9.39057 28.5889 9.4035 28.6374C9.41603 28.6863 9.43341 28.7336 9.45564 28.7788C9.47787 28.8241 9.50454 28.867 9.53526 28.907C9.56638 28.947 9.60073 28.9834 9.63913 29.0165C9.67712 29.0492 9.71834 29.0783 9.7624 29.103C9.80605 29.1276 9.85212 29.1479 9.90022 29.1632C9.94832 29.179 9.99762 29.1895 10.0477 29.1951C10.0979 29.2004 10.148 29.2012 10.1985 29.1968C10.2486 29.1919 10.2979 29.1826 10.3464 29.1681C10.3949 29.1535 10.4414 29.1345 10.4859 29.1107C10.5303 29.0868 10.5719 29.0589 10.6107 29.0266C10.6495 28.9943 10.6851 28.9587 10.7166 28.9191C10.7482 28.8799 10.7756 28.8379 10.7987 28.793L11.2425 28.002C11.7339 27.0494 12.113 26.0535 12.3794 25.0152C12.6461 23.9769 12.7932 22.9221 12.8215 21.8502Z" fill="#FFC107"/>
<path d="M31.416 27.5598C31.0534 25.7439 30.8724 23.9097 30.8732 22.0579L30.8671 21.6654C30.8687 20.5491 30.6836 19.4651 30.3122 18.4127C30.2948 18.3674 30.2734 18.3238 30.2479 18.2825C30.2225 18.2413 30.193 18.2025 30.1598 18.1669C30.1267 18.1314 30.0907 18.099 30.0511 18.0707C30.0119 18.0421 29.9703 18.0174 29.9262 17.9968C29.8818 17.9766 29.8361 17.9604 29.7892 17.9487C29.7419 17.937 29.6938 17.9301 29.6453 17.9277C29.5968 17.9252 29.5483 17.9277 29.5002 17.9345C29.4521 17.9418 29.4053 17.9531 29.3592 17.9693C29.3131 17.9855 29.2695 18.0061 29.2274 18.0307C29.1854 18.0554 29.1466 18.0837 29.1098 18.116C29.0734 18.1483 29.0407 18.1839 29.0112 18.2227C28.9817 18.2611 28.9562 18.3023 28.9344 18.346C28.913 18.3896 28.896 18.4349 28.8831 18.4818C28.8705 18.5287 28.8625 18.5764 28.8588 18.6249C28.8556 18.6734 28.8568 18.7219 28.8625 18.7704C28.8685 18.8185 28.879 18.8657 28.894 18.9118C29.21 19.8091 29.3673 20.7334 29.3648 21.6848L29.3737 22.0894C29.3762 24.0593 29.5742 26.0098 29.9679 27.9401L30.8279 30.7733C30.8514 30.8501 30.8865 30.9216 30.933 30.9875C30.9799 31.0534 31.0353 31.1104 31.1003 31.1585C31.165 31.2062 31.2357 31.2429 31.3125 31.268C31.3889 31.2931 31.4677 31.3056 31.5481 31.3056C31.5776 31.3056 31.6067 31.304 31.6358 31.3003C31.6649 31.2971 31.694 31.2923 31.7223 31.2854C31.751 31.2785 31.7789 31.2704 31.8064 31.2603C31.8339 31.2502 31.861 31.2385 31.8872 31.2256C31.9131 31.2122 31.9386 31.1977 31.9632 31.1815C31.9875 31.1653 32.0109 31.148 32.0335 31.129C32.0558 31.1104 32.0772 31.0902 32.0974 31.0687C32.1172 31.0473 32.1362 31.0251 32.1536 31.0013C32.171 30.9778 32.1871 30.9536 32.2017 30.9281C32.2162 30.9026 32.2292 30.8764 32.2409 30.8497C32.2522 30.8226 32.2623 30.7951 32.2704 30.7668C32.2789 30.7389 32.2853 30.7103 32.2906 30.6816C32.2954 30.6525 32.2987 30.6234 32.3003 30.5943C32.3019 30.5652 32.3019 30.5357 32.2999 30.5066C32.2983 30.4775 32.2946 30.4484 32.2894 30.4193C32.2841 30.3906 32.2773 30.3623 32.2688 30.334L31.416 27.5598Z" fill="#FFC107"/>
<path d="M29.3724 31.5672C28.4242 28.3343 27.9198 25.0339 27.8592 21.6656C27.8584 21.5548 27.8544 21.4441 27.8479 21.3333C27.8414 21.223 27.8321 21.1127 27.8204 21.0023C27.8083 20.8924 27.7937 20.7825 27.7764 20.6733C27.7594 20.5638 27.7392 20.4551 27.7165 20.3464C27.6939 20.238 27.6684 20.1305 27.6406 20.023C27.6127 19.9159 27.5824 19.8096 27.5488 19.7041C27.5157 19.5982 27.4801 19.4936 27.4417 19.3897C27.4033 19.2858 27.3625 19.1828 27.3192 19.0809C27.276 18.9791 27.2299 18.878 27.1818 18.7786C27.1333 18.6788 27.0828 18.5806 27.0295 18.4836C26.9765 18.3861 26.9207 18.2904 26.8629 18.1958C26.8051 18.1016 26.7449 18.0087 26.6827 17.9169C26.62 17.8256 26.5554 17.7358 26.4887 17.6473C26.422 17.5592 26.3529 17.4723 26.2818 17.3875C26.2106 17.3026 26.1375 17.2193 26.0623 17.1381C25.9871 17.0568 25.9103 16.9772 25.8311 16.8996C25.7519 16.8224 25.6711 16.7468 25.5882 16.6733C25.5053 16.5997 25.4209 16.5282 25.3348 16.4587C25.2483 16.3892 25.1606 16.3221 25.0709 16.257C24.9811 16.1915 24.8902 16.1289 24.7977 16.0683C24.7047 16.0076 24.6105 15.9494 24.5151 15.8932C24.4198 15.8371 24.3228 15.7837 24.2245 15.7324C24.1263 15.6811 24.0269 15.6322 23.9263 15.5857C23.826 15.5396 23.7242 15.4955 23.6215 15.4543C23.5189 15.4127 23.415 15.3739 23.3103 15.3375C23.2056 15.3015 23.1006 15.2676 22.9943 15.2365C22.888 15.2054 22.7809 15.1771 22.6729 15.1512C22.5654 15.1253 22.4571 15.1019 22.3484 15.0813C22.2397 15.0607 22.1302 15.0429 22.0206 15.0279C21.9107 15.0126 21.8008 15 21.6904 14.9903C21.5801 14.9806 21.4697 14.9734 21.359 14.9689C21.2483 14.9649 21.1375 14.9633 21.0268 14.9641C20.916 14.9653 20.8053 14.9689 20.695 14.9754C20.5842 14.9819 20.4739 14.9911 20.3639 15.0033C20.2536 15.015 20.1441 15.0295 20.0345 15.0469C19.9254 15.0643 19.8163 15.0841 19.708 15.1071C19.5997 15.1298 19.4918 15.1548 19.3846 15.1827C19.2775 15.2106 19.1708 15.2413 19.0654 15.2745C18.9595 15.3076 18.8548 15.3436 18.7509 15.3816C18.647 15.42 18.544 15.4608 18.4421 15.5044C18.3403 15.5477 18.2396 15.5934 18.1398 15.6419C18.04 15.69 17.9418 15.7409 17.8448 15.7938C17.7474 15.8472 17.6516 15.9025 17.557 15.9603C17.4628 16.0185 17.3699 16.0784 17.2781 16.141C17.1868 16.2032 17.0971 16.2679 17.0086 16.3346C16.9204 16.4017 16.8335 16.4704 16.7487 16.5415C16.6638 16.6127 16.5805 16.6858 16.4993 16.761C16.4181 16.8362 16.3384 16.9134 16.2608 16.9922C16.1832 17.0714 16.1077 17.1522 16.0341 17.2351C15.9605 17.3179 15.889 17.4024 15.8199 17.4885C15.7504 17.575 15.6829 17.6627 15.6178 17.7524C15.5527 17.8421 15.4901 17.9331 15.4295 18.026C15.3684 18.1186 15.3102 18.2128 15.2545 18.3081C15.1983 18.4035 15.1445 18.5005 15.0932 18.5987C15.0423 18.697 14.9934 18.7964 14.9469 18.897C14.9004 18.9972 14.8568 19.0991 14.8151 19.2018C14.7739 19.3044 14.7351 19.4083 14.6987 19.513C14.6624 19.6172 14.6288 19.7227 14.5977 19.829C14.5666 19.9353 14.5379 20.0424 14.512 20.1499C14.4861 20.2578 14.4631 20.3662 14.4425 20.4749C14.4219 20.5836 14.4041 20.6931 14.3887 20.8027C14.3738 20.9122 14.3613 21.0225 14.3512 21.1329C14.3415 21.2428 14.3346 21.3535 14.3301 21.4643C14.3257 21.5746 14.3241 21.6854 14.3253 21.7961C14.2897 22.6517 14.1919 23.5005 14.0323 24.3415C13.8722 25.183 13.6515 26.0079 13.3706 26.8167C13.0893 27.6258 12.7507 28.4099 12.3546 29.1689C11.9585 29.9283 11.5091 30.6546 11.0063 31.3478C10.978 31.3882 10.9541 31.4314 10.9343 31.4767C10.9149 31.522 10.8996 31.5684 10.8895 31.6169C10.879 31.665 10.8733 31.7139 10.8725 31.7633C10.8713 31.8126 10.8753 31.8619 10.8842 31.9104C10.8931 31.9589 10.9064 32.0062 10.9246 32.0522C10.9428 32.0979 10.965 32.1416 10.9917 32.1832C11.0184 32.2248 11.0491 32.2632 11.0835 32.2988C11.1178 32.3343 11.155 32.3663 11.1958 32.3942C11.2362 32.4225 11.2791 32.4463 11.3244 32.4661C11.37 32.4859 11.4165 32.5009 11.465 32.5114C11.5131 32.5219 11.562 32.5275 11.6113 32.5283C11.6606 32.5292 11.7095 32.5251 11.7584 32.5162C11.8069 32.5077 11.8542 32.494 11.9003 32.4758C11.946 32.458 11.9896 32.4354 12.0312 32.4087C12.0729 32.382 12.1113 32.3513 12.1468 32.3174C12.1824 32.283 12.2143 32.2454 12.2422 32.205C12.7919 31.4484 13.2825 30.6558 13.7142 29.8265C14.1454 28.9971 14.5132 28.1403 14.8172 27.2564C15.1211 26.3721 15.3579 25.4704 15.5273 24.5513C15.697 23.6318 15.7973 22.7051 15.8288 21.7706C15.8276 21.5981 15.8344 21.4263 15.8498 21.2545C15.8652 21.0827 15.889 20.9122 15.9209 20.7428C15.9533 20.5735 15.9937 20.4058 16.0422 20.2405C16.0911 20.0752 16.1477 19.9123 16.2123 19.7526C16.2766 19.5926 16.349 19.4362 16.429 19.2834C16.509 19.1306 16.5963 18.9823 16.6909 18.838C16.7855 18.6941 16.8869 18.5547 16.9952 18.4205C17.1031 18.2863 17.2179 18.1578 17.3388 18.0349C17.4596 17.9117 17.5861 17.7953 17.7187 17.6845C17.8508 17.5742 17.9887 17.4703 18.1309 17.3733C18.2736 17.2763 18.4207 17.1866 18.5719 17.1037C18.7234 17.0213 18.8786 16.9465 19.0371 16.879C19.1959 16.8119 19.3576 16.7525 19.5221 16.7008C19.687 16.6494 19.8535 16.6062 20.0224 16.571C20.1914 16.5363 20.3615 16.5096 20.5329 16.491C20.7043 16.4728 20.876 16.4631 21.0486 16.4615C21.2212 16.4603 21.3934 16.4672 21.5647 16.4825C21.7365 16.4983 21.9071 16.5221 22.0768 16.5541C22.2461 16.5864 22.4135 16.6268 22.5788 16.6757C22.7441 16.7242 22.907 16.7812 23.0666 16.8459C23.2267 16.9105 23.3831 16.9829 23.5354 17.0629C23.6882 17.1429 23.8369 17.2302 23.9808 17.3248C24.1251 17.4194 24.2642 17.5208 24.3983 17.6291C24.5325 17.7375 24.661 17.8522 24.7839 17.9731C24.9068 18.0939 25.0236 18.2208 25.1339 18.353C25.2447 18.4856 25.3481 18.623 25.4451 18.7657C25.5421 18.9083 25.6319 19.055 25.7143 19.2066C25.7968 19.3582 25.8719 19.513 25.939 19.6718C26.0061 19.8306 26.0655 19.9923 26.1169 20.1568C26.1682 20.3217 26.2114 20.4882 26.2466 20.6572C26.2813 20.8261 26.308 20.9963 26.3262 21.1676C26.3444 21.339 26.3541 21.5112 26.3557 21.6833C26.3876 23.4338 26.5364 25.1737 26.8019 26.904C27.067 28.6342 27.447 30.339 27.9405 32.0183L28.6352 34.2497C28.6591 34.3265 28.6942 34.3976 28.7407 34.4631C28.7876 34.5286 28.843 34.5851 28.9076 34.6328C28.9723 34.6805 29.043 34.7165 29.1194 34.7416C29.1954 34.7666 29.2738 34.7792 29.3542 34.7792C29.4302 34.7796 29.5042 34.7686 29.5769 34.746C29.6238 34.7315 29.6691 34.7125 29.7127 34.6886C29.756 34.6652 29.7968 34.6377 29.8344 34.6062C29.8724 34.5742 29.9071 34.5395 29.9382 34.5011C29.969 34.4627 29.996 34.4215 30.0191 34.3778C30.0421 34.3342 30.0607 34.2885 30.0745 34.2412C30.0886 34.1939 30.0979 34.1458 30.1023 34.0965C30.1068 34.0472 30.1064 33.9983 30.1011 33.949C30.0963 33.9001 30.0862 33.852 30.0716 33.8047L29.3724 31.5672Z" fill="#FFC107"/>
<path d="M24.8519 21.6652C24.8515 21.5419 24.8446 21.4191 24.8321 21.2966C24.8196 21.1741 24.801 21.0525 24.7767 20.932C24.7521 20.8112 24.7218 20.692 24.6854 20.5744C24.649 20.4567 24.6074 20.3412 24.5597 20.2276C24.512 20.114 24.4591 20.0033 24.4005 19.895C24.3419 19.7866 24.2784 19.6811 24.2097 19.5793C24.1406 19.477 24.067 19.3788 23.9886 19.2839C23.9098 19.1889 23.827 19.0983 23.7396 19.0114C23.6523 18.925 23.5606 18.8425 23.4652 18.7649C23.3698 18.6873 23.2704 18.6141 23.1678 18.5462C23.0651 18.4783 22.9596 18.4157 22.8505 18.3579C22.7418 18.3005 22.6306 18.2484 22.5166 18.2019C22.4027 18.155 22.2867 18.1142 22.1687 18.079C22.0506 18.0435 21.931 18.0144 21.8102 17.9909C21.6893 17.9671 21.5677 17.9497 21.4452 17.938C21.3227 17.9267 21.1999 17.921 21.0766 17.9214C20.9533 17.9222 20.8305 17.9287 20.708 17.9412C20.5855 17.9537 20.4643 17.9723 20.3434 17.997C20.2226 18.0212 20.1038 18.052 19.9857 18.0879C19.8681 18.1243 19.7525 18.1663 19.639 18.2136C19.5254 18.2613 19.4147 18.3143 19.3063 18.3729C19.198 18.4315 19.0925 18.4949 18.9907 18.564C18.8884 18.6327 18.7898 18.7063 18.6952 18.7851C18.6003 18.8635 18.5097 18.9464 18.4228 19.0337C18.3359 19.1214 18.2539 19.2127 18.1763 19.3081C18.0987 19.4039 18.0255 19.5029 17.9576 19.6056C17.8897 19.7082 17.8271 19.8137 17.7693 19.9228C17.7119 20.0316 17.6598 20.1427 17.6129 20.2567C17.5664 20.3707 17.5256 20.4867 17.49 20.6047C17.4549 20.7227 17.4254 20.8419 17.4019 20.9628C17.3785 21.0836 17.3611 21.2057 17.3494 21.3281C17.3381 21.4506 17.3324 21.5735 17.3328 21.6967C17.3126 22.2557 17.2702 22.8134 17.2051 23.3692C17.14 23.9249 17.0531 24.4774 16.944 25.0263C16.8349 25.5747 16.7039 26.1183 16.5515 26.6567C16.3988 27.1954 16.225 27.7265 16.0298 28.2511C15.8346 28.7757 15.6187 29.2914 15.3823 29.7987C15.1459 30.3055 14.8896 30.8026 14.6136 31.2892C14.3371 31.7758 14.0421 32.2507 13.728 32.7139C13.4136 33.1767 13.0814 33.6265 12.7314 34.063C12.7023 34.1022 12.6772 34.1438 12.6562 34.1879C12.6352 34.2324 12.6186 34.278 12.6065 34.3253C12.5943 34.3726 12.5871 34.4207 12.5842 34.4692C12.5814 34.5181 12.5834 34.5666 12.5903 34.6151C12.5972 34.6636 12.6085 34.7109 12.6243 34.757C12.6404 34.803 12.6606 34.8471 12.6853 34.8895C12.7099 34.9316 12.7382 34.9712 12.7706 35.008C12.8029 35.0443 12.8385 35.0775 12.8769 35.1074C12.9157 35.1373 12.9569 35.1628 13.0009 35.1846C13.0446 35.2064 13.0899 35.2238 13.1371 35.2363C13.1844 35.2492 13.2321 35.2573 13.281 35.261C13.3295 35.2646 13.3784 35.2634 13.4265 35.2573C13.475 35.2513 13.5227 35.2408 13.5692 35.2258C13.6157 35.2104 13.6601 35.191 13.7026 35.1668C13.7454 35.1429 13.785 35.1155 13.8222 35.0835C13.8594 35.052 13.8933 35.0173 13.9237 34.9789C14.302 34.51 14.66 34.0266 14.9987 33.5287C15.3374 33.0308 15.6555 32.5199 15.9526 31.9965C16.25 31.4727 16.5253 30.9376 16.7791 30.3916C17.0325 29.8451 17.2637 29.2898 17.4722 28.7248C17.6808 28.1598 17.8659 27.5875 18.0276 27.0075C18.1896 26.4275 18.3279 25.8419 18.4418 25.2506C18.5562 24.6593 18.6463 24.0643 18.7122 23.4658C18.7781 22.8672 18.8197 22.267 18.8367 21.6652C18.8371 21.5912 18.8407 21.5173 18.8484 21.4441C18.8557 21.3706 18.867 21.2974 18.8816 21.2251C18.8961 21.1527 18.9143 21.0812 18.9361 21.0105C18.958 20.9397 18.983 20.8702 19.0117 20.8023C19.04 20.734 19.0719 20.6673 19.1071 20.6022C19.1418 20.5376 19.1802 20.4741 19.2215 20.4131C19.2627 20.3517 19.3067 20.2927 19.354 20.2357C19.4013 20.1787 19.451 20.1241 19.5032 20.072C19.5557 20.0198 19.6107 19.9705 19.6681 19.9241C19.7255 19.8772 19.7849 19.8335 19.8463 19.7927C19.9077 19.7519 19.9712 19.7143 20.0367 19.6795C20.1021 19.6452 20.1688 19.6137 20.2371 19.5858C20.3054 19.5579 20.3754 19.5332 20.4461 19.5118C20.5168 19.4908 20.5884 19.473 20.6611 19.4589C20.7335 19.4447 20.8066 19.4342 20.8802 19.4273C20.9537 19.4205 21.0277 19.4172 21.1012 19.4172C21.1752 19.4176 21.2492 19.4217 21.3227 19.4294C21.3959 19.4366 21.469 19.4479 21.5414 19.4625C21.6137 19.4774 21.6853 19.4956 21.756 19.5171C21.8267 19.5389 21.8958 19.5639 21.9641 19.5926C22.0324 19.6213 22.0991 19.6533 22.1638 19.688C22.2289 19.7232 22.2923 19.7616 22.3534 19.8028C22.4148 19.844 22.4738 19.8885 22.5308 19.9354C22.5878 19.9827 22.6423 20.0324 22.6941 20.0849C22.7462 20.1375 22.7955 20.192 22.842 20.2494C22.8889 20.3068 22.9325 20.3662 22.9733 20.428C23.0142 20.4895 23.0518 20.5529 23.0865 20.6184C23.1209 20.6835 23.152 20.7506 23.1803 20.8189C23.2082 20.8872 23.2328 20.9571 23.2538 21.0278C23.2749 21.0986 23.2926 21.1701 23.3068 21.2428C23.3209 21.3152 23.3314 21.3883 23.3383 21.4619C23.3452 21.5355 23.3484 21.609 23.348 21.683C23.3286 22.4085 23.2801 23.1315 23.2025 23.853C23.1249 24.574 23.0182 25.291 22.8828 26.0039C22.7474 26.7165 22.5837 27.4226 22.3913 28.1222C22.199 28.8214 21.9787 29.5121 21.7305 30.1939C21.4828 30.8758 21.2075 31.5463 20.9056 32.2059C20.6033 32.8655 20.2755 33.5117 19.9211 34.1451C19.567 34.778 19.1879 35.396 18.7842 35.9986C18.38 36.6012 17.9524 37.1864 17.5013 37.7547C17.4722 37.7939 17.4472 37.8355 17.4262 37.8796C17.4051 37.9236 17.3886 37.9693 17.3764 38.017C17.3643 38.0643 17.357 38.1124 17.3542 38.1609C17.3518 38.2098 17.3538 38.2583 17.3603 38.3068C17.3672 38.3553 17.3785 38.4021 17.3946 38.4486C17.4104 38.4947 17.4306 38.5388 17.4553 38.5812C17.4799 38.6232 17.5082 38.6628 17.5405 38.6992C17.5729 38.736 17.6084 38.7691 17.6472 38.799C17.686 38.8289 17.7273 38.8544 17.7709 38.8762C17.8146 38.8981 17.8602 38.915 17.9071 38.928C17.9544 38.9409 18.0021 38.949 18.051 38.9526C18.0995 38.9563 18.1484 38.955 18.1969 38.949C18.2454 38.9429 18.2927 38.9324 18.3392 38.9171C18.3857 38.9021 18.4301 38.8823 18.4725 38.8585C18.5154 38.8346 18.5554 38.8071 18.5926 38.7752C18.6298 38.7437 18.6633 38.7085 18.6936 38.6705C19.1705 38.0691 19.622 37.4495 20.0488 36.8118C20.4752 36.1744 20.8757 35.5204 21.2492 34.8503C21.623 34.1802 21.9694 33.4964 22.2879 32.7984C22.6064 32.1004 22.8962 31.3907 23.1576 30.6692C23.4187 29.9478 23.6507 29.2171 23.8528 28.4766C24.0549 27.7366 24.2271 26.9897 24.3689 26.2355C24.5108 25.4817 24.6219 24.7231 24.7028 23.9601C24.7832 23.197 24.8329 22.4319 24.8519 21.6652Z" fill="#FFC107"/>
<path d="M20.7253 25.4125C20.7654 25.4186 20.8054 25.4214 20.8458 25.4214C20.8898 25.4214 20.9339 25.4178 20.9775 25.4097C21.0212 25.402 21.0636 25.3903 21.1053 25.3749C21.1469 25.3596 21.1869 25.3406 21.2249 25.3184C21.2633 25.2957 21.2993 25.2703 21.3328 25.2416C21.3668 25.2129 21.3975 25.1813 21.4258 25.147C21.4537 25.1126 21.4787 25.0763 21.5005 25.0375C21.522 24.9991 21.5401 24.9587 21.5547 24.917C21.5692 24.875 21.5802 24.8321 21.587 24.7885C21.7705 23.7437 21.8546 22.6913 21.8396 21.6307C21.8384 21.5814 21.832 21.5325 21.8206 21.484C21.8093 21.4359 21.7936 21.3895 21.7729 21.3442C21.7523 21.2993 21.7277 21.2565 21.6982 21.2165C21.6691 21.1765 21.6363 21.1397 21.6 21.1065C21.5632 21.073 21.5236 21.0435 21.4811 21.018C21.4387 20.9926 21.3942 20.9715 21.3478 20.955C21.3009 20.9384 21.2532 20.9263 21.2039 20.9194C21.155 20.9125 21.1057 20.9105 21.0564 20.9133C21.0071 20.9158 20.9586 20.9226 20.9105 20.9344C20.8628 20.9461 20.8163 20.9627 20.7718 20.9837C20.727 21.0043 20.6849 21.0293 20.6453 21.0584C20.6053 21.0879 20.5689 21.1207 20.5354 21.1571C20.5022 21.1934 20.4727 21.2326 20.4473 21.2747C20.4218 21.3167 20.4004 21.3612 20.3834 21.4072C20.3669 21.4537 20.3547 21.5014 20.347 21.5499C20.3394 21.5988 20.3369 21.6477 20.339 21.697C20.3458 22.6565 20.2666 23.6087 20.1013 24.5541C20.0936 24.6026 20.0908 24.6515 20.0928 24.7008C20.0948 24.7501 20.1017 24.7986 20.1134 24.8463C20.1248 24.8944 20.1409 24.9405 20.1615 24.9853C20.1821 25.0302 20.2072 25.0722 20.2359 25.1122C20.265 25.1518 20.2973 25.1886 20.3337 25.2222C20.3697 25.2557 20.4089 25.2852 20.4509 25.3111C20.493 25.3365 20.537 25.358 20.5831 25.3753C20.6296 25.3923 20.6768 25.4049 20.7253 25.4125Z" fill="#FFC107"/>
<path d="M20.3645 26.9792C20.3172 26.965 20.2691 26.9561 20.2198 26.9513C20.1705 26.9469 20.1216 26.9473 20.0723 26.9525C20.0234 26.9578 19.9753 26.9679 19.928 26.9824C19.8811 26.997 19.8358 27.0164 19.7922 27.0398C19.7489 27.0637 19.7085 27.0911 19.6705 27.1227C19.6325 27.1542 19.5982 27.1894 19.5671 27.2277C19.5359 27.2661 19.5089 27.307 19.4862 27.351C19.4632 27.3947 19.4446 27.4399 19.4308 27.4872C18.9499 29.0946 18.319 30.6405 17.5373 32.125C16.7557 33.6099 15.8386 35.0051 14.7854 36.311C14.7546 36.3498 14.728 36.391 14.7049 36.4347C14.6823 36.4783 14.6641 36.524 14.6504 36.5717C14.6366 36.619 14.6277 36.6675 14.6233 36.7164C14.6192 36.7657 14.6201 36.815 14.6253 36.8639C14.631 36.9128 14.6411 36.9609 14.656 37.0082C14.671 37.0551 14.69 37.1003 14.7138 37.1436C14.7377 37.1868 14.7656 37.2272 14.7975 37.2652C14.829 37.3028 14.8642 37.3372 14.903 37.3679C14.9414 37.399 14.9826 37.4257 15.0266 37.4483C15.0703 37.4709 15.116 37.4895 15.1633 37.5033C15.2109 37.517 15.259 37.5259 15.3083 37.53C15.3573 37.5344 15.4066 37.5336 15.4555 37.5283C15.5048 37.5227 15.5529 37.5126 15.5998 37.4976C15.647 37.4831 15.6923 37.4637 15.7356 37.4398C15.7788 37.416 15.8192 37.3881 15.8568 37.3566C15.8948 37.3246 15.9291 37.2895 15.9599 37.2511C17.0742 35.8688 18.0442 34.392 18.8707 32.821C19.6976 31.25 20.3649 29.6139 20.8729 27.9128C20.8867 27.8655 20.896 27.8174 20.9004 27.7681C20.9048 27.7192 20.9044 27.6699 20.8992 27.621C20.8943 27.5717 20.8842 27.5236 20.8697 27.4763C20.8547 27.4294 20.8357 27.3842 20.8119 27.3409C20.7884 27.2973 20.761 27.2568 20.7294 27.2189C20.6975 27.1809 20.6627 27.1465 20.6244 27.1154C20.586 27.0843 20.5447 27.0576 20.5011 27.0346C20.4574 27.0115 20.4118 26.9929 20.3645 26.9792Z" fill="#FFC107"/>
<path d="M26.7466 33.1098C26.3857 32.0319 26.049 30.8873 26.0474 30.8861C26.0256 30.8117 25.9928 30.7426 25.9496 30.6788C25.9063 30.6145 25.8542 30.5583 25.7936 30.5106C25.7334 30.4625 25.6667 30.4245 25.5947 30.3971C25.5224 30.3696 25.4476 30.3534 25.3704 30.349C25.2932 30.3445 25.2172 30.3514 25.1421 30.3704C25.0673 30.3894 24.997 30.4193 24.9311 30.4601C24.8652 30.5005 24.807 30.5502 24.7565 30.6088C24.7064 30.6674 24.666 30.7321 24.6352 30.8032C23.5937 33.2194 22.3909 35.5522 21.026 37.8014C20.9998 37.843 20.9775 37.8871 20.9597 37.9331C20.942 37.9792 20.929 38.0265 20.9201 38.075C20.9116 38.1235 20.908 38.1724 20.9092 38.2217C20.9104 38.271 20.9165 38.3199 20.927 38.368C20.9379 38.4161 20.9533 38.463 20.9731 38.5083C20.9929 38.5531 21.0171 38.596 21.0454 38.6364C21.0737 38.6768 21.1061 38.714 21.1416 38.7479C21.1772 38.7823 21.216 38.8126 21.2576 38.8389C21.2992 38.8656 21.3429 38.8878 21.389 38.9056C21.435 38.9234 21.4823 38.9367 21.5308 38.9452C21.5793 38.9537 21.6282 38.9573 21.6779 38.9565C21.7273 38.9553 21.7758 38.9496 21.8239 38.9387C21.8724 38.9282 21.9188 38.9128 21.9641 38.893C22.0094 38.8732 22.0522 38.849 22.0926 38.8207C22.133 38.7924 22.1702 38.7605 22.2042 38.7249C22.2385 38.6893 22.2688 38.6505 22.2955 38.6089C23.3722 36.8682 24.341 35.0692 25.2023 33.2121C25.2415 33.3325 25.2819 33.453 25.3227 33.5718L26.2248 36.4393C26.2398 36.4862 26.2588 36.5315 26.2826 36.5751C26.3061 36.6184 26.3339 36.6592 26.3655 36.6972C26.3974 36.7352 26.4326 36.7696 26.471 36.8007C26.5094 36.8318 26.5506 36.8585 26.5946 36.8815C26.6383 36.9045 26.684 36.9227 26.7312 36.9369C26.7789 36.9506 26.8274 36.9599 26.8767 36.9644C26.9256 36.9684 26.975 36.968 27.0243 36.9627C27.0736 36.9575 27.1217 36.9474 27.169 36.9324C27.2158 36.9179 27.2611 36.8985 27.3048 36.8746C27.348 36.8508 27.3888 36.8233 27.4264 36.7914C27.4644 36.7599 27.4988 36.7247 27.5299 36.6859C27.561 36.6475 27.5877 36.6063 27.6107 36.5622C27.6333 36.5186 27.6519 36.4729 27.6657 36.4252C27.6794 36.3779 27.6887 36.3294 27.6932 36.2801C27.6972 36.2308 27.6968 36.1819 27.6915 36.1326C27.6859 36.0833 27.6758 36.0352 27.6608 35.9879L26.7466 33.1098Z" fill="#FFC107"/>
<mask id="mask2_125_2223" style="mask-type:luminance" maskUnits="userSpaceOnUse" x="12" y="2" width="18" height="4">
<path d="M12.7709 2.86865H29.429V5.94557H12.7709V2.86865Z" fill="white"/>
</mask>
<g mask="url(#mask2_125_2223)">
<path d="M28.6114 5.87607C28.5026 5.87607 28.3988 5.85344 28.3001 5.80858C27.164 5.31388 25.9883 4.94528 24.7734 4.70318C23.5581 4.46109 22.331 4.35075 21.0922 4.37257C19.8539 4.34913 18.6272 4.45826 17.4123 4.69995C16.1974 4.94205 15.0225 5.31105 13.8876 5.80696C13.8423 5.82919 13.7958 5.84697 13.7469 5.85991C13.6984 5.87284 13.6491 5.88092 13.599 5.88375C13.5489 5.88699 13.4988 5.88497 13.449 5.87769C13.3993 5.87082 13.3504 5.8591 13.3031 5.84212C13.2558 5.82555 13.2106 5.80413 13.1673 5.77827C13.1245 5.7524 13.0841 5.72249 13.0469 5.68895C13.0097 5.655 12.9766 5.61781 12.9467 5.57699C12.9172 5.53657 12.8917 5.49333 12.8707 5.44766C12.8497 5.40199 12.8335 5.3547 12.8218 5.3058C12.8105 5.25689 12.804 5.20718 12.8024 5.15706C12.8008 5.10695 12.804 5.05683 12.8125 5.00752C12.821 4.95781 12.8343 4.90971 12.8521 4.86283C12.8703 4.81595 12.8929 4.77108 12.92 4.72865C12.9471 4.68661 12.9782 4.647 13.0129 4.61103C13.0477 4.57466 13.0861 4.54273 13.1273 4.51403C13.169 4.48534 13.2126 4.46149 13.2591 4.44169C14.4922 3.8997 15.7694 3.49594 17.0902 3.2308C18.4114 2.96567 19.7451 2.84482 21.0922 2.86867C22.4385 2.84685 23.7719 2.9685 25.0919 3.23363C26.4119 3.49836 27.689 3.90051 28.9226 4.44007C29.0006 4.47564 29.0705 4.52333 29.1323 4.58274C29.1942 4.64256 29.2443 4.71046 29.2831 4.78725C29.3215 4.86404 29.3461 4.94487 29.3566 5.03015C29.3675 5.11543 29.3639 5.1999 29.3457 5.28357C29.3275 5.36763 29.296 5.44604 29.2507 5.5192C29.2059 5.59195 29.1497 5.6554 29.083 5.70956C29.0163 5.76331 28.9424 5.80454 28.8615 5.83323C28.7807 5.86193 28.697 5.87607 28.6114 5.87607Z" fill="white"/>
</g>
<path d="M31.6189 11.8909C31.5183 11.8909 31.4217 11.8715 31.3287 11.8327C31.2362 11.7939 31.1545 11.7385 31.0838 11.667C30.9234 11.498 30.7585 11.3335 30.5899 11.1731C30.421 11.0126 30.2484 10.8566 30.0718 10.7051C29.8947 10.5535 29.7145 10.4064 29.5302 10.2637C29.3463 10.121 29.1584 9.98322 28.9672 9.85025C28.776 9.71728 28.5816 9.58916 28.384 9.46589C28.1867 9.34302 27.9859 9.225 27.7822 9.11184C27.5785 8.99867 27.3723 8.89116 27.1634 8.7885C26.954 8.68584 26.7427 8.58884 26.5284 8.4971C26.3146 8.40495 26.0984 8.31886 25.8802 8.23803C25.6615 8.15679 25.4412 8.08161 25.2189 8.0121C24.9971 7.94218 24.7731 7.87832 24.5476 7.81971C24.3221 7.76151 24.0954 7.70897 23.8674 7.66209C23.6391 7.61521 23.4099 7.57398 23.1799 7.53882C22.9495 7.50366 22.7188 7.47415 22.4872 7.45071C22.2552 7.42686 22.0232 7.40949 21.7908 7.39736C21.558 7.38564 21.3252 7.37998 21.0924 7.37998C20.8596 7.37998 20.6268 7.38564 20.3944 7.39736C20.1616 7.40949 19.9296 7.42686 19.698 7.45071C19.466 7.47415 19.2353 7.50366 19.0049 7.53882C18.7749 7.57398 18.5457 7.61521 18.3174 7.66209C18.0894 7.70897 17.8627 7.76151 17.6372 7.81971C17.4117 7.87832 17.1877 7.94218 16.9659 8.0121C16.7436 8.08161 16.5233 8.15679 16.3046 8.23803C16.0864 8.31886 15.8702 8.40495 15.6564 8.4971C15.4422 8.58884 15.2308 8.68584 15.0214 8.7885C14.8125 8.89116 14.6063 8.99867 14.4026 9.11184C14.1989 9.225 13.9985 9.34302 13.8008 9.46589C13.6032 9.58916 13.4088 9.71728 13.2176 9.85025C13.0264 9.98322 12.8389 10.121 12.6546 10.2637C12.4703 10.4064 12.2901 10.5535 12.1134 10.7051C11.9364 10.8566 11.7638 11.0126 11.5949 11.1731C11.4264 11.3335 11.2615 11.498 11.101 11.667C11.0658 11.6985 11.0278 11.726 10.9874 11.7502C10.9466 11.7745 10.9042 11.7947 10.8597 11.8109C10.8157 11.8274 10.77 11.8392 10.7235 11.8468C10.6766 11.8545 10.6297 11.8577 10.5825 11.8565C10.5352 11.8553 10.4887 11.8497 10.4422 11.8396C10.3961 11.8295 10.3513 11.8153 10.308 11.7967C10.2644 11.7785 10.2231 11.7559 10.1839 11.7296C10.1443 11.7034 10.108 11.6738 10.0744 11.6407C10.0405 11.6076 10.0106 11.5716 9.98348 11.5328C9.9568 11.4936 9.93377 11.4528 9.91437 11.4095C9.89537 11.3663 9.88042 11.3218 9.8695 11.2757C9.85899 11.2297 9.85253 11.1832 9.85051 11.1359C9.84849 11.0886 9.85091 11.0417 9.85819 10.9948C9.86506 10.9484 9.87597 10.9027 9.89173 10.8578C9.90709 10.8134 9.92689 10.7705 9.95034 10.7297C9.97378 10.6885 10.0013 10.6501 10.032 10.6145C10.2098 10.4278 10.3925 10.2459 10.5792 10.0689C10.7663 9.89147 10.9579 9.7193 11.1535 9.55157C11.3496 9.38424 11.5492 9.22177 11.7533 9.06414C11.9574 8.90652 12.1652 8.75455 12.377 8.60744C12.5887 8.46072 12.8042 8.31926 13.0228 8.18306C13.2419 8.04726 13.4638 7.91671 13.6893 7.79183C13.9148 7.66694 14.1432 7.54811 14.3747 7.43454C14.6063 7.32138 14.8403 7.21427 15.0776 7.11283C15.3144 7.01138 15.5537 6.916 15.7954 6.82668C16.0371 6.73736 16.2808 6.6541 16.5269 6.57731C16.7727 6.50011 17.0204 6.42938 17.2702 6.36512C17.5196 6.30045 17.7706 6.24225 18.0232 6.19052C18.2754 6.13879 18.5292 6.09352 18.7838 6.05472C19.0388 6.01551 19.2943 5.98318 19.5505 5.95731C19.8072 5.93104 20.0638 5.91164 20.3213 5.89871C20.5787 5.88578 20.8362 5.87891 21.094 5.87891C21.3515 5.87891 21.6093 5.88578 21.8664 5.89871C22.1238 5.91164 22.3809 5.93104 22.6371 5.95731C22.8938 5.98318 23.1492 6.01551 23.4038 6.05472C23.6589 6.09352 23.9123 6.13879 24.1649 6.19052C24.4171 6.24225 24.6681 6.30045 24.9178 6.36512C25.1672 6.42938 25.415 6.50011 25.6611 6.57731C25.9068 6.6541 26.1505 6.73736 26.3926 6.82668C26.6343 6.916 26.8736 7.01138 27.1104 7.11283C27.3473 7.21427 27.5817 7.32138 27.8129 7.43454C28.0445 7.54811 28.2728 7.66694 28.4984 7.79183C28.7239 7.91671 28.9462 8.04726 29.1648 8.18306C29.3839 8.31926 29.5993 8.46072 29.8107 8.60744C30.0225 8.75455 30.2306 8.90652 30.4343 9.06414C30.6384 9.22177 30.8385 9.38424 31.0341 9.55157C31.2301 9.7193 31.4213 9.89147 31.6084 10.0689C31.7955 10.2459 31.9782 10.4278 32.1561 10.6145C32.2074 10.6675 32.2502 10.7265 32.2846 10.792C32.3185 10.8574 32.3424 10.9265 32.3561 10.9993C32.3699 11.0716 32.3731 11.1448 32.365 11.2184C32.3573 11.2919 32.3391 11.3626 32.3105 11.4305C32.2822 11.4988 32.2442 11.5611 32.1969 11.6181C32.15 11.6751 32.0958 11.724 32.034 11.7652C31.9726 11.806 31.9067 11.8371 31.836 11.8586C31.7652 11.88 31.6929 11.8909 31.6189 11.8909Z" fill="white"/>
<path d="M33.1227 22.4172C33.0734 22.4172 33.0245 22.4124 32.976 22.4027C32.9275 22.393 32.8807 22.3788 32.835 22.3599C32.7893 22.3413 32.7461 22.3178 32.7052 22.2903C32.664 22.2629 32.626 22.2317 32.5913 22.197C32.5561 22.1622 32.525 22.1242 32.4975 22.083C32.47 22.0422 32.447 21.9985 32.428 21.9533C32.4094 21.9076 32.3948 21.8603 32.3851 21.8122C32.3758 21.7637 32.371 21.7148 32.371 21.6655C32.3706 21.4513 32.3645 21.2375 32.352 21.0241C32.3395 20.8103 32.3213 20.5973 32.2966 20.3847C32.272 20.1721 32.2417 19.9603 32.2049 19.7497C32.1685 19.5388 32.1261 19.329 32.0776 19.1209C32.0291 18.9123 31.9745 18.7054 31.9143 18.5001C31.8541 18.2947 31.7882 18.0914 31.7167 17.8898C31.6447 17.6881 31.5671 17.4888 31.4843 17.2916C31.401 17.0944 31.3125 16.9 31.2179 16.7076C31.1237 16.5156 31.0243 16.326 30.9192 16.1397C30.8146 15.9534 30.7042 15.7699 30.589 15.5897C30.4734 15.4094 30.353 15.2328 30.2277 15.0594C30.1024 14.886 29.9719 14.7163 29.8369 14.5505C29.7019 14.3844 29.562 14.2224 29.4178 14.0643C29.2735 13.9063 29.1247 13.7527 28.972 13.6032C28.8188 13.4536 28.6616 13.3085 28.5003 13.1679C28.339 13.0272 28.1741 12.891 28.0048 12.7601C27.8358 12.6287 27.6633 12.5022 27.487 12.381C27.3108 12.2593 27.1314 12.1433 26.9487 12.0318C26.766 11.9206 26.5801 11.8147 26.3914 11.7141C26.2022 11.6135 26.0106 11.5181 25.8166 11.4284C25.6222 11.3386 25.4258 11.2546 25.2265 11.1758C25.0277 11.0973 24.8264 11.0242 24.6235 10.9571C24.4202 10.89 24.2153 10.8286 24.0084 10.7732C23.8019 10.7178 23.5937 10.6681 23.3844 10.6245C23.175 10.5808 22.9644 10.5428 22.7526 10.5113C22.5413 10.4794 22.3287 10.4539 22.1157 10.4341C21.9027 10.4147 21.6889 10.401 21.4751 10.3933C21.2613 10.386 21.0475 10.3844 20.8337 10.3892C20.6194 10.3937 20.406 10.4046 20.1926 10.4212C19.9792 10.4381 19.7667 10.4608 19.5545 10.4899C19.3427 10.5186 19.1313 10.5537 18.9215 10.5946C18.7114 10.6354 18.5028 10.6823 18.2951 10.7348C18.247 10.7485 18.1981 10.757 18.148 10.7607C18.0979 10.7643 18.0481 10.7627 17.9984 10.7566C17.9487 10.7502 17.9002 10.7388 17.8529 10.7227C17.8052 10.7069 17.76 10.6863 17.7167 10.6612C17.6731 10.6358 17.6327 10.6067 17.5951 10.5735C17.5579 10.5404 17.5239 10.504 17.4936 10.464C17.4633 10.424 17.4374 10.3812 17.416 10.3363C17.3942 10.291 17.3772 10.2441 17.3647 10.1956C17.3526 10.1471 17.3453 10.0978 17.3425 10.0477C17.34 9.9976 17.3429 9.94789 17.3501 9.89858C17.3578 9.84887 17.3699 9.80078 17.3869 9.75349C17.4043 9.7066 17.4257 9.66134 17.452 9.6189C17.4779 9.57606 17.5082 9.53645 17.5421 9.49967C17.5761 9.46289 17.6137 9.42975 17.6541 9.40065C17.6949 9.37115 17.7381 9.34649 17.7838 9.32548C17.8291 9.30486 17.8764 9.2891 17.9253 9.27778C18.1605 9.21797 18.3969 9.16502 18.635 9.11854C18.873 9.07206 19.1123 9.03245 19.3524 8.99972C19.5929 8.96698 19.8337 8.94111 20.0754 8.92212C20.3171 8.90272 20.5592 8.89059 20.8017 8.88534C21.0442 8.88008 21.2867 8.8817 21.5292 8.89019C21.7713 8.89868 22.0134 8.91403 22.2547 8.93626C22.4964 8.95849 22.7369 8.98759 22.977 9.02356C23.2166 9.05953 23.4555 9.10197 23.6927 9.15168C23.9304 9.20099 24.166 9.25717 24.4004 9.32022C24.6344 9.38327 24.8668 9.45279 25.0968 9.52877C25.3272 9.60475 25.5551 9.68761 25.7807 9.77653C26.0062 9.86544 26.2293 9.96083 26.4491 10.0627C26.6694 10.1645 26.8865 10.2724 27.1003 10.3864C27.3145 10.5004 27.525 10.6208 27.7324 10.7465C27.9393 10.8726 28.143 11.0048 28.3427 11.1422C28.5423 11.28 28.7379 11.4231 28.9291 11.5718C29.1207 11.7206 29.3078 11.8746 29.4909 12.0342C29.6736 12.1934 29.8514 12.3579 30.0248 12.5273C30.1986 12.697 30.3667 12.8712 30.5304 13.0503C30.6937 13.2293 30.8521 13.4132 31.0053 13.6012C31.1581 13.7895 31.306 13.9815 31.4479 14.1783C31.5901 14.3747 31.7264 14.5752 31.8573 14.7793C31.9878 14.9834 32.1127 15.1911 32.2316 15.4025C32.3504 15.6139 32.4631 15.8285 32.5698 16.0464C32.6765 16.2642 32.7772 16.4849 32.8714 16.7084C32.9655 16.9319 33.0532 17.1578 33.1345 17.3862C33.2157 17.6145 33.2905 17.8453 33.3588 18.0781C33.4271 18.3105 33.4885 18.5453 33.5431 18.7814C33.598 19.0174 33.6461 19.255 33.6874 19.4943C33.729 19.7332 33.7634 19.9728 33.7912 20.2137C33.8187 20.455 33.8397 20.6963 33.8535 20.9384C33.8676 21.1805 33.8745 21.423 33.8745 21.6655C33.8745 21.7148 33.8701 21.7637 33.8604 21.8122C33.8507 21.8603 33.8365 21.9076 33.8175 21.9533C33.7985 21.9985 33.7755 22.0422 33.748 22.083C33.7205 22.1242 33.6894 22.1622 33.6546 22.197C33.6195 22.2317 33.5815 22.2629 33.5407 22.2903C33.4994 22.3178 33.4562 22.3413 33.4105 22.3599C33.3648 22.3788 33.318 22.393 33.2695 22.4027C33.221 22.4124 33.1721 22.4172 33.1227 22.4172Z" fill="white"/>
<mask id="mask3_125_2223" style="mask-type:luminance" maskUnits="userSpaceOnUse" x="8" y="10" width="8" height="13">
<path d="M8.24963 10.498H15.875V22.5002H8.24963V10.498Z" fill="white"/>
</mask>
<g mask="url(#mask3_125_2223)">
<path d="M9.06195 22.4168H9.05306C9.00375 22.416 8.95484 22.4103 8.90634 22.3998C8.85825 22.3897 8.81137 22.3743 8.7661 22.3549C8.72083 22.3351 8.67799 22.3113 8.63717 22.2834C8.59675 22.2551 8.55917 22.2236 8.52481 22.188C8.49046 22.1524 8.45974 22.114 8.43307 22.0724C8.40639 22.0312 8.38376 21.9875 8.36557 21.9415C8.34738 21.8954 8.33404 21.8485 8.32515 21.7996C8.31626 21.7511 8.31222 21.7022 8.31303 21.6529C8.31465 21.3752 8.32475 21.0976 8.34415 20.8203C8.36355 20.5434 8.39184 20.267 8.42902 19.9918C8.46621 19.7165 8.51228 19.4429 8.56725 19.1705C8.62222 18.8981 8.68567 18.6281 8.75802 18.3597C8.83077 18.0918 8.9116 17.8258 9.00132 17.5631C9.09064 17.3 9.18886 17.0405 9.29515 16.7839C9.40145 16.5272 9.51623 16.2742 9.6391 16.0249C9.76156 15.7759 9.89251 15.531 10.0311 15.2901C10.1698 15.0492 10.3157 14.8132 10.4697 14.582C10.6236 14.3508 10.7849 14.1249 10.9534 13.9038C11.1216 13.6831 11.2974 13.4677 11.4797 13.2583C11.662 13.049 11.8511 12.8453 12.0467 12.6481C12.2423 12.4508 12.444 12.2601 12.6518 12.0758C12.8599 11.8915 13.0733 11.7144 13.2928 11.5439C13.5122 11.3737 13.7369 11.2104 13.9669 11.0544C14.1969 10.8988 14.4317 10.7505 14.671 10.6098C14.7138 10.5848 14.7583 10.5642 14.8052 10.548C14.8516 10.5318 14.8993 10.5205 14.9482 10.5136C14.9971 10.5068 15.0464 10.5048 15.0958 10.5076C15.1451 10.5108 15.1936 10.5185 15.2413 10.531C15.2889 10.5432 15.335 10.5601 15.3795 10.582C15.4239 10.6034 15.466 10.6292 15.5052 10.6587C15.5448 10.6887 15.5808 10.7222 15.6135 10.759C15.6462 10.7958 15.6753 10.8358 15.7004 10.8782C15.7254 10.9206 15.7457 10.9655 15.7622 11.012C15.7784 11.0589 15.7897 11.1066 15.7966 11.1555C15.8034 11.2044 15.8051 11.2533 15.8022 11.3026C15.7994 11.3519 15.7917 11.4004 15.7792 11.4485C15.7667 11.4962 15.7497 11.5423 15.7283 11.5867C15.7069 11.6312 15.681 11.6728 15.6515 11.7124C15.6216 11.7516 15.588 11.788 15.5512 11.8207C15.5145 11.8535 15.4749 11.8822 15.432 11.9072C14.5728 12.4112 13.7931 13.0175 13.0935 13.7268C12.8365 13.9895 12.5923 14.2639 12.3616 14.5497C12.1308 14.8358 11.9142 15.1321 11.7117 15.4388C11.5092 15.746 11.322 16.0616 11.1499 16.3866C10.9777 16.7111 10.8217 17.0434 10.6814 17.3833C10.5412 17.7232 10.4179 18.0687 10.3108 18.4204C10.2037 18.772 10.114 19.1281 10.0412 19.4882C9.96809 19.8487 9.91272 20.2116 9.87513 20.577C9.83714 20.9428 9.81653 21.3093 9.8137 21.6767C9.81289 21.7256 9.80764 21.7741 9.79753 21.8218C9.78702 21.8695 9.77247 21.916 9.75307 21.9609C9.73408 22.0057 9.71064 22.0486 9.68315 22.089C9.65527 22.129 9.62414 22.1666 9.58939 22.2009C9.55463 22.2349 9.51664 22.2656 9.47582 22.2927C9.43499 22.3194 9.39215 22.342 9.34689 22.3606C9.30162 22.3792 9.25514 22.3933 9.20704 22.4026C9.15935 22.4119 9.11085 22.4168 9.06195 22.4168Z" fill="white"/>
</g>
<path d="M10.1446 29.1838C10.1119 29.1838 10.0795 29.1818 10.0468 29.1774C10.0145 29.1733 9.98253 29.1668 9.951 29.1588C9.91948 29.1503 9.88836 29.1398 9.85845 29.1272C9.82814 29.1147 9.79863 29.1006 9.77034 29.0844C9.74205 29.0682 9.71497 29.05 9.6891 29.0302C9.66283 29.0104 9.63818 28.989 9.61514 28.966C9.5917 28.9429 9.57028 28.9187 9.55007 28.8928C9.53027 28.867 9.51208 28.8399 9.49551 28.8116C9.47894 28.7837 9.46439 28.7546 9.45145 28.7243C9.43892 28.6944 9.42842 28.6633 9.41952 28.6317C9.41104 28.6002 9.40417 28.5683 9.39972 28.5359C9.39527 28.5036 9.39285 28.4713 9.39245 28.4385C9.39204 28.4058 9.39406 28.3735 9.3981 28.3407C9.40215 28.3084 9.40821 28.2765 9.41629 28.2449C9.42437 28.213 9.43448 28.1823 9.4466 28.152C9.45873 28.1217 9.47287 28.0922 9.48904 28.0635L9.9114 27.3117C10.3418 26.4723 10.6753 25.5956 10.9125 24.6826C11.1498 23.7692 11.2848 22.8412 11.3175 21.8983C11.3134 21.5705 11.3252 21.2432 11.3531 20.9166C11.3809 20.59 11.425 20.2655 11.4852 19.943C11.545 19.6208 11.6206 19.3023 11.712 18.9871C11.8033 18.6723 11.91 18.3627 12.0317 18.0583C12.1533 17.754 12.2899 17.4561 12.4411 17.1655C12.5922 16.8745 12.7575 16.5916 12.9366 16.3168C13.1152 16.0423 13.3076 15.7768 13.5125 15.5214C13.7178 15.2655 13.9349 15.0202 14.1644 14.7858C14.3896 14.5566 14.6256 14.3388 14.8725 14.1331C15.1195 13.9269 15.3761 13.7341 15.6425 13.5535C15.9088 13.3732 16.1837 13.2067 16.4662 13.0539C16.7491 12.9012 17.0389 12.7625 17.3359 12.6384C17.6326 12.5148 17.9345 12.4056 18.2421 12.3119C18.5496 12.2181 18.8613 12.1397 19.1765 12.0771C19.4922 12.0144 19.8098 11.9675 20.1299 11.9364C20.45 11.9053 20.7705 11.8903 21.0923 11.8911C21.4407 11.8915 21.7878 11.9101 22.1338 11.9473C22.4802 11.9849 22.8233 12.0403 23.1636 12.1142C23.5039 12.1882 23.8394 12.2804 24.1696 12.3899C24.5002 12.4998 24.8239 12.6267 25.1408 12.7714C25.4577 12.9157 25.7656 13.0766 26.0655 13.254C26.365 13.4314 26.6544 13.6242 26.9337 13.8324C27.2126 14.0405 27.4797 14.2632 27.7351 14.5C27.9906 14.7365 28.2323 14.9863 28.461 15.249C28.4954 15.2861 28.5257 15.3258 28.552 15.369C28.5782 15.4118 28.6001 15.4571 28.6174 15.5044C28.6344 15.5521 28.6469 15.6006 28.6542 15.6507C28.6619 15.7004 28.6643 15.7505 28.6615 15.8011C28.6591 15.8512 28.6514 15.9009 28.6389 15.9498C28.6259 15.9987 28.6085 16.0456 28.5867 16.0908C28.5645 16.1365 28.5382 16.1789 28.5075 16.219C28.4768 16.259 28.4424 16.2958 28.4044 16.3289C28.366 16.3616 28.3252 16.3907 28.2812 16.4158C28.2375 16.4404 28.1914 16.4607 28.1434 16.4764C28.0957 16.4922 28.0464 16.5027 27.9962 16.5083C27.9465 16.514 27.896 16.5148 27.8459 16.5104C27.7958 16.5063 27.7465 16.497 27.698 16.4825C27.6495 16.4683 27.603 16.4493 27.5585 16.4259C27.5141 16.402 27.472 16.3742 27.4332 16.3422C27.3944 16.3103 27.3589 16.2747 27.3269 16.2355C27.1337 16.0132 26.9288 15.8019 26.713 15.6018C26.4968 15.4013 26.2708 15.213 26.0348 15.0368C25.7984 14.8606 25.5539 14.6977 25.3 14.5477C25.0466 14.3974 24.7859 14.2616 24.5176 14.1395C24.2496 14.0171 23.9756 13.9096 23.6959 13.817C23.4166 13.724 23.1329 13.646 22.8447 13.5838C22.557 13.5211 22.2664 13.4739 21.9737 13.4423C21.6807 13.4108 21.3869 13.395 21.0923 13.395C20.8203 13.3938 20.5487 13.4064 20.2775 13.4326C20.0067 13.4585 19.7375 13.4981 19.4707 13.5511C19.2036 13.604 18.9401 13.6703 18.6794 13.7495C18.4191 13.8287 18.1633 13.9209 17.9123 14.0255C17.6609 14.1306 17.4156 14.2474 17.1763 14.3772C16.9366 14.5065 16.7042 14.6472 16.4787 14.7999C16.2532 14.9523 16.0361 15.116 15.8272 15.2902C15.6178 15.4644 15.4182 15.6487 15.2274 15.8431C15.0338 16.0415 14.8503 16.2489 14.6773 16.4655C14.5039 16.6817 14.3419 16.906 14.1907 17.1384C14.0396 17.3708 13.9001 17.6101 13.7724 17.8562C13.6447 18.102 13.5295 18.3538 13.4264 18.6112C13.3234 18.8687 13.2332 19.1306 13.156 19.3965C13.0788 19.6629 13.015 19.9324 12.9641 20.2049C12.9131 20.4773 12.876 20.7517 12.8521 21.0277C12.8283 21.3038 12.8182 21.5806 12.8214 21.8579C12.7943 22.9318 12.6472 23.9891 12.3809 25.0298C12.1141 26.0705 11.735 27.0684 11.2423 28.0231L10.7985 28.814C10.7654 28.8706 10.725 28.9223 10.6777 28.9684C10.6308 29.0149 10.5787 29.0541 10.5213 29.0864C10.4639 29.1192 10.4033 29.1434 10.3394 29.16C10.2755 29.1765 10.2105 29.1846 10.1446 29.1838Z" fill="white"/>
<path d="M31.5425 31.3041C31.4617 31.3041 31.3833 31.2916 31.3065 31.2665C31.2297 31.2415 31.1589 31.2047 31.0943 31.157C31.0292 31.1089 30.9738 31.0519 30.927 30.9864C30.8805 30.9206 30.8457 30.849 30.8219 30.7718L29.965 27.939C29.571 26.0083 29.3729 24.0582 29.3709 22.0879L29.3616 21.6833C29.3644 20.7323 29.208 19.808 28.8928 18.9108C28.8774 18.8643 28.8669 18.817 28.8613 18.7689C28.8552 18.7204 28.854 18.6723 28.8572 18.6238C28.8609 18.5753 28.8689 18.5272 28.8819 18.4803C28.8944 18.4334 28.9114 18.3882 28.9332 18.3445C28.9546 18.3009 28.9801 18.2596 29.0096 18.2212C29.0391 18.1824 29.0722 18.1469 29.1086 18.1149C29.145 18.0826 29.1842 18.0539 29.2258 18.0293C29.2678 18.0046 29.3119 17.9844 29.3576 17.9682C29.4036 17.9521 29.4505 17.9403 29.4986 17.9335C29.5467 17.9262 29.5952 17.9238 29.6437 17.9262C29.6922 17.9286 29.7403 17.9355 29.7876 17.9472C29.8349 17.9589 29.8806 17.9751 29.9246 17.9957C29.9687 18.0159 30.0103 18.0406 30.0495 18.0693C30.0891 18.098 30.1251 18.1299 30.1582 18.1655C30.1914 18.2014 30.2209 18.2398 30.2463 18.2811C30.2722 18.3223 30.2936 18.3659 30.3106 18.4112C30.6828 19.4641 30.8683 20.5488 30.8671 21.6656L30.876 22.058C30.8752 23.9099 31.0563 25.744 31.4188 27.5599L32.2656 30.3341C32.274 30.3624 32.2813 30.3907 32.2862 30.4194C32.2914 30.4485 32.2951 30.4776 32.2971 30.5067C32.2987 30.5358 32.2991 30.5653 32.2975 30.5944C32.2959 30.6235 32.2926 30.6526 32.2874 30.6817C32.2825 30.7104 32.2757 30.7391 32.2676 30.767C32.2591 30.7953 32.2494 30.8228 32.2377 30.8498C32.2263 30.8765 32.213 30.9028 32.1985 30.9282C32.1839 30.9537 32.1681 30.978 32.1504 31.0014C32.133 31.0252 32.1144 31.0475 32.0942 31.0689C32.074 31.0903 32.053 31.1105 32.0303 31.1291C32.0081 31.1481 31.9847 31.1655 31.96 31.1817C31.9358 31.1978 31.9103 31.2124 31.884 31.2257C31.8577 31.2386 31.8311 31.2504 31.8036 31.2605C31.7761 31.2706 31.7478 31.2787 31.7195 31.2855C31.6908 31.2924 31.6621 31.2972 31.633 31.3005C31.6039 31.3041 31.5748 31.3057 31.5453 31.3057L31.5425 31.3041Z" fill="white"/>
<path d="M29.3498 34.7808C29.2694 34.7808 29.1909 34.7682 29.1146 34.7432C29.0386 34.7181 28.9678 34.6817 28.9032 34.6341C28.8385 34.5868 28.7827 34.5302 28.7363 34.4647C28.6898 34.3992 28.6546 34.3281 28.6308 34.2513L27.936 32.0199C27.4429 30.3406 27.0642 28.6354 26.7995 26.9052C26.5352 25.1753 26.3868 23.435 26.3557 21.685C26.3541 21.5124 26.3444 21.3406 26.3262 21.1692C26.308 20.9979 26.2813 20.8277 26.2466 20.6588C26.2114 20.4898 26.1682 20.3229 26.1169 20.1584C26.0655 19.9939 26.0061 19.8323 25.939 19.6734C25.8719 19.5146 25.7968 19.3594 25.7143 19.2082C25.6319 19.0567 25.5421 18.9095 25.4451 18.7673C25.3481 18.6246 25.2447 18.4872 25.1339 18.3546C25.0236 18.2221 24.9068 18.0956 24.7839 17.9747C24.661 17.8535 24.5325 17.7391 24.3983 17.6308C24.2642 17.5224 24.1251 17.421 23.9808 17.3264C23.8369 17.2318 23.6882 17.1441 23.5354 17.0641C23.3831 16.9841 23.2267 16.9117 23.0666 16.8471C22.907 16.7824 22.7441 16.7258 22.5788 16.6773C22.4135 16.6284 22.2461 16.588 22.0768 16.5557C21.9071 16.5233 21.7365 16.4995 21.5647 16.4841C21.3934 16.4688 21.2212 16.4615 21.0486 16.4631C20.876 16.4643 20.7043 16.4744 20.5329 16.4926C20.3615 16.5108 20.1914 16.5375 20.0224 16.5727C19.8535 16.6078 19.687 16.6511 19.5221 16.7024C19.3576 16.7537 19.1959 16.8131 19.0371 16.8806C18.8786 16.9477 18.7234 17.0229 18.5719 17.1053C18.4207 17.1878 18.2736 17.2779 18.1309 17.3749C17.9887 17.4719 17.8508 17.5754 17.7187 17.6861C17.5861 17.7965 17.4596 17.9133 17.3388 18.0361C17.2179 18.1594 17.1031 18.2879 16.9952 18.4221C16.8869 18.5563 16.7855 18.6953 16.6909 18.8396C16.5963 18.9839 16.509 19.1322 16.429 19.285C16.349 19.4378 16.2766 19.5942 16.2123 19.7538C16.1477 19.9139 16.0911 20.0764 16.0422 20.2421C15.9937 20.4074 15.9533 20.5747 15.9209 20.7441C15.889 20.9138 15.8652 21.0844 15.8498 21.2557C15.8344 21.4275 15.8276 21.5997 15.8288 21.7723C15.7973 22.7063 15.6966 23.633 15.5273 24.5521C15.3575 25.4716 15.1207 26.3733 14.8168 27.2572C14.5128 28.1411 14.1454 28.9975 13.7138 29.8269C13.2825 30.6558 12.7919 31.4488 12.2422 32.205C12.2143 32.2454 12.1824 32.283 12.1468 32.3174C12.1113 32.3513 12.0729 32.382 12.0312 32.4087C11.9896 32.4354 11.946 32.458 11.9003 32.4758C11.8542 32.494 11.8069 32.5077 11.7584 32.5162C11.7095 32.5251 11.6606 32.5292 11.6113 32.5283C11.562 32.5275 11.5131 32.5219 11.465 32.5114C11.4165 32.5009 11.37 32.4859 11.3244 32.4661C11.2791 32.4463 11.2362 32.4225 11.1958 32.3942C11.155 32.3663 11.1178 32.3343 11.0835 32.2988C11.0491 32.2632 11.0184 32.2248 10.9917 32.1832C10.965 32.1416 10.9428 32.0979 10.9246 32.0522C10.9064 32.0062 10.8931 31.9589 10.8842 31.9104C10.8753 31.8619 10.8713 31.8126 10.8725 31.7633C10.8733 31.7139 10.879 31.665 10.8895 31.6169C10.8996 31.5684 10.9149 31.522 10.9343 31.4767C10.9541 31.4314 10.978 31.3882 11.0063 31.3478C11.5091 30.6546 11.9585 29.9283 12.3546 29.1689C12.7507 28.4099 13.0893 27.6258 13.3706 26.8167C13.6515 26.0079 13.8722 25.183 14.0323 24.3415C14.1919 23.5005 14.2897 22.6517 14.3253 21.7961C14.3241 21.6854 14.3257 21.5746 14.3301 21.4643C14.3346 21.3535 14.3415 21.2428 14.3512 21.1329C14.3613 21.0225 14.3738 20.9122 14.3887 20.8027C14.4041 20.6931 14.4219 20.5836 14.4425 20.4749C14.4631 20.3662 14.4861 20.2578 14.512 20.1499C14.5379 20.0424 14.5666 19.9353 14.5977 19.829C14.6288 19.7227 14.6624 19.6172 14.6987 19.513C14.7351 19.4083 14.7739 19.3044 14.8151 19.2018C14.8568 19.0991 14.9004 18.9972 14.9469 18.897C14.9934 18.7964 15.0423 18.697 15.0932 18.5987C15.1445 18.5005 15.1983 18.4035 15.2545 18.3081C15.3102 18.2128 15.3684 18.1186 15.4295 18.026C15.4901 17.9331 15.5527 17.8421 15.6178 17.7524C15.6829 17.6627 15.7504 17.575 15.8199 17.4885C15.889 17.4024 15.9605 17.3179 16.0341 17.2351C16.1077 17.1522 16.1832 17.0714 16.2608 16.9922C16.3384 16.9134 16.4181 16.8362 16.4993 16.761C16.5805 16.6858 16.6638 16.6127 16.7487 16.5415C16.8335 16.4704 16.9204 16.4017 17.0086 16.3346C17.0971 16.2679 17.1868 16.2032 17.2781 16.141C17.3699 16.0784 17.4628 16.0185 17.557 15.9603C17.6516 15.9025 17.7474 15.8472 17.8448 15.7938C17.9418 15.7409 18.04 15.69 18.1398 15.6419C18.2396 15.5934 18.3403 15.5477 18.4421 15.5044C18.544 15.4608 18.647 15.42 18.7509 15.3816C18.8548 15.3436 18.9595 15.3076 19.0654 15.2745C19.1708 15.2413 19.2775 15.2106 19.3846 15.1827C19.4918 15.1548 19.5997 15.1298 19.708 15.1071C19.8163 15.0841 19.9254 15.0643 20.0345 15.0469C20.1441 15.0295 20.2536 15.015 20.3639 15.0033C20.4739 14.9911 20.5842 14.9819 20.695 14.9754C20.8053 14.9689 20.916 14.9653 21.0268 14.9641C21.1375 14.9633 21.2483 14.9649 21.359 14.9689C21.4697 14.9734 21.5801 14.9806 21.6904 14.9903C21.8008 15 21.9107 15.0126 22.0206 15.0279C22.1302 15.0429 22.2397 15.0607 22.3484 15.0813C22.4571 15.1019 22.5654 15.1253 22.6729 15.1512C22.7809 15.1771 22.888 15.2054 22.9943 15.2365C23.1006 15.2676 23.2056 15.3015 23.3103 15.3375C23.415 15.3739 23.5189 15.4127 23.6215 15.4543C23.7242 15.4955 23.826 15.5396 23.9263 15.5857C24.0269 15.6322 24.1263 15.6811 24.2245 15.7324C24.3228 15.7837 24.4198 15.8371 24.5151 15.8932C24.6105 15.9494 24.7047 16.0076 24.7977 16.0683C24.8902 16.1289 24.9811 16.1915 25.0709 16.257C25.1606 16.3221 25.2483 16.3892 25.3348 16.4587C25.4209 16.5282 25.5053 16.5997 25.5882 16.6733C25.6711 16.7468 25.7519 16.8224 25.8311 16.8996C25.9103 16.9772 25.9871 17.0568 26.0623 17.1381C26.1375 17.2193 26.2106 17.3026 26.2818 17.3875C26.3529 17.4723 26.422 17.5592 26.4887 17.6473C26.5554 17.7358 26.62 17.8256 26.6827 17.9169C26.7449 18.0087 26.8051 18.1016 26.8629 18.1958C26.9207 18.2904 26.9765 18.3861 27.0295 18.4836C27.0828 18.5806 27.1333 18.6788 27.1818 18.7786C27.2299 18.878 27.276 18.9791 27.3192 19.0809C27.3625 19.1828 27.4033 19.2858 27.4417 19.3897C27.4801 19.4936 27.5157 19.5982 27.5488 19.7041C27.5824 19.8096 27.6127 19.9159 27.6406 20.023C27.6684 20.1305 27.6939 20.238 27.7165 20.3464C27.7392 20.4551 27.7594 20.5638 27.7764 20.6733C27.7937 20.7825 27.8083 20.8924 27.8204 21.0023C27.8321 21.1127 27.8414 21.223 27.8479 21.3333C27.8544 21.4441 27.8584 21.5548 27.8592 21.6656C27.9206 25.0339 28.4263 28.3347 29.3752 31.5672L30.0716 33.8047C30.0862 33.852 30.0963 33.9001 30.1011 33.949C30.1064 33.9983 30.1068 34.0472 30.1023 34.0965C30.0979 34.1458 30.0886 34.1939 30.0745 34.2412C30.0607 34.2885 30.0421 34.3342 30.0191 34.3778C29.996 34.4215 29.969 34.4627 29.9382 34.5011C29.9071 34.5395 29.8724 34.5742 29.8344 34.6062C29.7968 34.6377 29.756 34.6652 29.7127 34.6886C29.6691 34.7125 29.6238 34.7315 29.5769 34.746C29.503 34.7694 29.427 34.7812 29.3498 34.7808Z" fill="white"/>
<path d="M18.0982 38.9575C18.0283 38.9575 17.96 38.9482 17.8929 38.9292C17.8254 38.9098 17.7623 38.8819 17.7029 38.8455C17.6435 38.8087 17.5902 38.7647 17.5433 38.713C17.496 38.6616 17.4568 38.6046 17.4257 38.542C17.3945 38.4797 17.3723 38.4139 17.3594 38.3456C17.3465 38.2769 17.3432 38.2077 17.3493 38.1382C17.3557 38.0687 17.3711 38.0012 17.3962 37.9361C17.4212 37.8711 17.4548 37.8104 17.4968 37.7547C17.9479 37.1864 18.3759 36.6012 18.78 35.9986C19.1842 35.3964 19.5633 34.7784 19.9178 34.1455C20.2722 33.5121 20.6004 32.8659 20.9027 32.2063C21.205 31.5467 21.4803 30.8762 21.7284 30.1943C21.9766 29.5125 22.1973 28.8218 22.3896 28.1226C22.582 27.423 22.7461 26.7169 22.8819 26.0039C23.0173 25.2914 23.124 24.5744 23.202 23.853C23.2796 23.1315 23.3285 22.4085 23.3479 21.683C23.3483 21.609 23.3451 21.5355 23.3382 21.4619C23.3314 21.3883 23.3208 21.3152 23.3067 21.2428C23.2926 21.1701 23.2748 21.0986 23.2538 21.0278C23.2327 20.9571 23.2081 20.8872 23.1802 20.8189C23.1519 20.7506 23.1208 20.6835 23.0864 20.6184C23.0517 20.5529 23.0141 20.4895 22.9733 20.428C22.9324 20.3662 22.8888 20.3068 22.8419 20.2494C22.7954 20.192 22.7461 20.1375 22.694 20.0849C22.6422 20.0324 22.5877 19.9827 22.5307 19.9354C22.4737 19.8885 22.4147 19.844 22.3533 19.8028C22.2922 19.7616 22.2288 19.7232 22.1637 19.688C22.099 19.6533 22.0324 19.6213 21.9641 19.5926C21.8958 19.5639 21.8266 19.5389 21.7559 19.5171C21.6852 19.4956 21.6136 19.4774 21.5413 19.4625C21.469 19.4479 21.3958 19.4366 21.3226 19.4294C21.2491 19.4217 21.1751 19.4176 21.1012 19.4172C21.0276 19.4172 20.9536 19.4205 20.8801 19.4273C20.8065 19.4342 20.7334 19.4447 20.661 19.4589C20.5883 19.473 20.5167 19.4908 20.446 19.5118C20.3753 19.5332 20.3054 19.5579 20.2371 19.5858C20.1687 19.6137 20.1021 19.6452 20.0366 19.6795C19.9711 19.7143 19.9077 19.7519 19.8462 19.7927C19.7848 19.8335 19.7254 19.8772 19.668 19.9241C19.6106 19.9705 19.5556 20.0198 19.5031 20.072C19.4509 20.1241 19.4012 20.1787 19.3539 20.2357C19.3067 20.2927 19.2626 20.3517 19.2214 20.4131C19.1802 20.4741 19.1418 20.5376 19.107 20.6022C19.0718 20.6673 19.0399 20.734 19.0116 20.8023C18.9829 20.8702 18.9579 20.9397 18.936 21.0105C18.9142 21.0812 18.896 21.1527 18.8815 21.2251C18.8669 21.2974 18.8556 21.3706 18.8483 21.4441C18.8407 21.5173 18.837 21.5912 18.8366 21.6652C18.8196 22.267 18.7784 22.8672 18.7125 23.4658C18.6467 24.0643 18.5565 24.6593 18.4426 25.2502C18.3286 25.8415 18.1904 26.4271 18.0287 27.0071C17.867 27.5871 17.6819 28.1598 17.4734 28.7244C17.2652 29.2894 17.034 29.8451 16.7806 30.3912C16.5272 30.9372 16.252 31.4723 15.9549 31.9961C15.6578 32.5199 15.3398 33.0308 15.0015 33.5287C14.6628 34.0266 14.3047 34.51 13.9268 34.9789C13.8961 35.0173 13.8625 35.052 13.8254 35.0835C13.7882 35.1155 13.7482 35.1429 13.7057 35.1668C13.6629 35.191 13.6184 35.2104 13.5719 35.2258C13.5255 35.2408 13.4782 35.2513 13.4297 35.2573C13.3812 35.2634 13.3327 35.2646 13.2838 35.261C13.2353 35.2573 13.1872 35.2492 13.1399 35.2363C13.093 35.2238 13.0473 35.2064 13.0037 35.1846C12.96 35.1628 12.9188 35.1373 12.88 35.1074C12.8412 35.0775 12.8056 35.0443 12.7733 35.008C12.7414 34.9712 12.7127 34.9316 12.688 34.8895C12.6638 34.8471 12.6432 34.803 12.6274 34.757C12.6112 34.7109 12.5999 34.6636 12.5935 34.6151C12.5866 34.5666 12.5846 34.5181 12.5874 34.4692C12.5898 34.4207 12.5975 34.3726 12.6092 34.3253C12.6213 34.278 12.6379 34.2324 12.6589 34.1879C12.6799 34.1438 12.705 34.1022 12.7341 34.063C13.0841 33.6265 13.4163 33.1767 13.7304 32.7135C14.0444 32.2507 14.3395 31.7758 14.6155 31.2892C14.8915 30.8022 15.1478 30.3055 15.3842 29.7982C15.6203 29.291 15.8361 28.7753 16.0313 28.2507C16.2261 27.7265 16.3999 27.195 16.5523 26.6567C16.705 26.1183 16.8356 25.5747 16.9447 25.0258C17.0534 24.477 17.1403 23.9249 17.2054 23.3692C17.2701 22.8134 17.3125 22.2557 17.3327 21.6967C17.3323 21.5735 17.338 21.4506 17.3493 21.3281C17.361 21.2057 17.3784 21.0836 17.4018 20.9628C17.4253 20.8419 17.4548 20.7227 17.4899 20.6047C17.5255 20.4867 17.5663 20.3707 17.6128 20.2567C17.6597 20.1427 17.7118 20.0316 17.7692 19.9228C17.827 19.8137 17.8897 19.7082 17.9576 19.6056C18.0255 19.5029 18.0986 19.4039 18.1762 19.3081C18.2538 19.2127 18.3359 19.1214 18.4227 19.0337C18.5096 18.9464 18.6002 18.8635 18.6952 18.7851C18.7897 18.7063 18.8883 18.6327 18.9906 18.564C19.0925 18.4949 19.1979 18.4315 19.3063 18.3729C19.4146 18.3143 19.5253 18.2613 19.6389 18.2136C19.7525 18.1663 19.868 18.1243 19.9857 18.0879C20.1037 18.052 20.2225 18.0212 20.3433 17.997C20.4642 17.9723 20.5854 17.9537 20.7079 17.9412C20.8304 17.9287 20.9532 17.9222 21.0765 17.9214C21.1998 17.921 21.3226 17.9267 21.4451 17.938C21.5676 17.9497 21.6892 17.9671 21.8101 17.9909C21.9309 18.0144 22.0505 18.0435 22.1686 18.079C22.2866 18.1142 22.4026 18.155 22.5166 18.2019C22.6305 18.2484 22.7417 18.3005 22.8504 18.3579C22.9595 18.4157 23.065 18.4783 23.1677 18.5462C23.2703 18.6141 23.3697 18.6873 23.4651 18.7649C23.5605 18.8425 23.6523 18.925 23.7396 19.0114C23.8269 19.0983 23.9097 19.1889 23.9885 19.2839C24.0669 19.3788 24.1405 19.477 24.2096 19.5793C24.2783 19.6811 24.3418 19.7866 24.4004 19.895C24.459 20.0033 24.5119 20.114 24.5596 20.2276C24.6073 20.3412 24.6489 20.4567 24.6853 20.5744C24.7217 20.692 24.752 20.8112 24.7767 20.932C24.8009 21.0525 24.8195 21.1741 24.832 21.2966C24.8446 21.4191 24.8514 21.5419 24.8518 21.6652C24.8328 22.4315 24.7827 23.1958 24.7019 23.958C24.621 24.7207 24.5099 25.4785 24.368 26.2319C24.2258 26.9852 24.054 27.7317 23.8519 28.4714C23.6494 29.2106 23.4178 29.9409 23.1568 30.6615C22.8957 31.3826 22.6059 32.0915 22.2878 32.7891C21.9693 33.4867 21.6233 34.1701 21.2499 34.8394C20.8764 35.5091 20.4767 36.1623 20.0503 36.7996C19.6239 37.437 19.1729 38.0562 18.6968 38.6568C18.626 38.7509 18.5379 38.8245 18.4329 38.8774C18.3274 38.9304 18.2162 38.9571 18.0982 38.9575Z" fill="white"/>
<path d="M20.8458 25.4246C20.8053 25.4246 20.7653 25.4214 20.7253 25.4157C20.6764 25.4076 20.6291 25.3951 20.5826 25.3781C20.5366 25.3611 20.4921 25.3393 20.4501 25.3135C20.408 25.2876 20.3688 25.2581 20.3325 25.2245C20.2965 25.191 20.2638 25.1542 20.2347 25.1142C20.206 25.0742 20.1809 25.0318 20.1603 24.9869C20.1397 24.9416 20.1239 24.8951 20.1122 24.8475C20.1009 24.7994 20.094 24.7505 20.0924 24.7011C20.0904 24.6518 20.0936 24.6025 20.1013 24.554C20.2666 23.6087 20.3458 22.6565 20.3389 21.697C20.3369 21.6477 20.3393 21.5988 20.347 21.5499C20.3547 21.5014 20.3668 21.4537 20.3834 21.4072C20.4004 21.3611 20.4218 21.3167 20.4472 21.2746C20.4727 21.2326 20.5022 21.1934 20.5354 21.157C20.5689 21.1206 20.6053 21.0879 20.6453 21.0584C20.6849 21.0293 20.7269 21.0042 20.7718 20.9836C20.8162 20.9626 20.8627 20.946 20.9104 20.9343C20.9585 20.9226 21.007 20.9157 21.0563 20.9133C21.106 20.9093 21.1553 20.9097 21.2051 20.9157C21.2548 20.9218 21.3029 20.9327 21.3502 20.9489C21.3974 20.9646 21.4427 20.9852 21.4855 21.0107C21.5284 21.0362 21.5684 21.0657 21.6052 21.0992C21.642 21.1328 21.6751 21.1699 21.7042 21.2104C21.7333 21.2508 21.758 21.294 21.7782 21.3397C21.7984 21.3854 21.8137 21.4322 21.8238 21.4811C21.8343 21.5301 21.8396 21.5794 21.8396 21.6291C21.8546 22.6896 21.7705 23.7425 21.587 24.7868C21.5801 24.8309 21.5696 24.8741 21.5555 24.9162C21.5409 24.9582 21.5231 24.9986 21.5013 25.0374C21.4799 25.0762 21.4548 25.113 21.4269 25.1473C21.3987 25.1821 21.3679 25.2136 21.334 25.2427C21.3004 25.2718 21.2645 25.2977 21.2261 25.3203C21.1877 25.3426 21.1481 25.362 21.106 25.3773C21.0644 25.3927 21.022 25.4044 20.9779 25.4125C20.9343 25.4206 20.8902 25.4246 20.8458 25.4246Z" fill="white"/>
<path d="M15.3778 37.5338C15.3071 37.5338 15.2375 37.5241 15.1696 37.5047C15.1013 37.4849 15.0375 37.4562 14.9777 37.4186C14.9174 37.381 14.8641 37.3358 14.8168 37.2832C14.7695 37.2303 14.7307 37.1721 14.7 37.1082C14.6693 37.0444 14.6479 36.9777 14.6361 36.9077C14.6244 36.8378 14.6224 36.7679 14.6305 36.6976C14.6382 36.6273 14.6559 36.5594 14.683 36.4939C14.7101 36.4284 14.7457 36.3682 14.7897 36.3128C15.843 35.007 16.7604 33.6114 17.5417 32.1269C18.3234 30.6424 18.9543 29.0964 19.4352 27.489C19.4498 27.4426 19.4688 27.3977 19.4918 27.3545C19.5152 27.3116 19.5423 27.2712 19.5734 27.2336C19.6046 27.196 19.6393 27.1617 19.6769 27.1306C19.7149 27.0998 19.7553 27.0728 19.7986 27.0497C19.8418 27.0267 19.8867 27.0081 19.9336 26.9939C19.98 26.9794 20.0277 26.9697 20.0766 26.9648C20.1251 26.96 20.1736 26.9596 20.2225 26.964C20.271 26.9689 20.3187 26.9778 20.3656 26.9919C20.4125 27.0057 20.4578 27.0239 20.501 27.0465C20.5443 27.0691 20.5851 27.0958 20.6235 27.1261C20.6615 27.1568 20.6962 27.1908 20.7277 27.2284C20.7593 27.2655 20.7868 27.3056 20.8106 27.3484C20.8344 27.3912 20.8538 27.4357 20.8688 27.4822C20.8838 27.5291 20.8939 27.5763 20.8999 27.6248C20.9056 27.6733 20.9064 27.7223 20.9027 27.7708C20.8987 27.8197 20.8902 27.8673 20.8773 27.9146C20.3692 29.6158 19.702 31.2514 18.8754 32.8228C18.0485 34.3938 17.0785 35.8703 15.9642 37.2525C15.8931 37.3414 15.8058 37.4105 15.7031 37.4598C15.6005 37.5091 15.4918 37.5338 15.3778 37.5338Z" fill="white"/>
<path d="M21.6549 38.9577C21.5874 38.9581 21.5211 38.9492 21.456 38.9314C21.391 38.9137 21.3295 38.8874 21.2713 38.853C21.2131 38.8191 21.1606 38.7775 21.1137 38.729C21.0668 38.6805 21.0272 38.6267 20.9949 38.5677C20.9622 38.5087 20.9383 38.446 20.9225 38.3806C20.9068 38.3151 20.9003 38.2484 20.9023 38.1813C20.9048 38.1138 20.9157 38.0479 20.9359 37.9833C20.9557 37.919 20.984 37.8584 21.0199 37.8014C22.3848 35.5522 23.588 33.2194 24.6292 30.8032C24.6583 30.7313 24.6979 30.6658 24.748 30.6064C24.7977 30.5474 24.8559 30.4973 24.9218 30.4569C24.9881 30.4165 25.0588 30.387 25.134 30.3692C25.2095 30.3514 25.2859 30.3457 25.3631 30.3522C25.4403 30.3566 25.5155 30.3728 25.5878 30.4003C25.6602 30.4278 25.7269 30.4658 25.7875 30.5139C25.8481 30.562 25.9003 30.6181 25.9435 30.6824C25.9868 30.7467 26.0195 30.8162 26.0413 30.8905C26.0413 30.8905 26.3796 32.038 26.7405 33.1143L27.643 35.9956C27.6576 36.0429 27.6677 36.091 27.6729 36.1399C27.6786 36.1892 27.679 36.2385 27.6746 36.2874C27.6701 36.3367 27.6612 36.3852 27.6471 36.4325C27.6333 36.4798 27.6151 36.5254 27.5921 36.5695C27.5691 36.6131 27.5424 36.6544 27.5113 36.6928C27.4802 36.7312 27.4458 36.7663 27.4082 36.7983C27.3702 36.8298 27.3294 36.8577 27.2861 36.8815C27.2429 36.905 27.1976 36.9244 27.1504 36.9393C27.1031 36.9539 27.055 36.964 27.0061 36.9692C26.9568 36.9745 26.9078 36.9753 26.8585 36.9708C26.8092 36.9664 26.7607 36.9575 26.7134 36.9433C26.6662 36.9296 26.6205 36.911 26.5764 36.8884C26.5328 36.8653 26.4916 36.8387 26.4532 36.8075C26.4148 36.7764 26.3796 36.7421 26.3477 36.7041C26.3162 36.6665 26.2883 36.6257 26.2644 36.5824C26.241 36.5392 26.2216 36.4939 26.2066 36.4466L25.3045 33.5791C25.2637 33.4602 25.2233 33.3402 25.1841 33.2198C24.3289 35.0741 23.3657 36.871 22.2955 38.6105C22.2611 38.6643 22.2207 38.7128 22.1738 38.7564C22.1274 38.7997 22.076 38.8365 22.0199 38.8668C21.9641 38.8975 21.9051 38.9201 21.8432 38.9355C21.7814 38.9508 21.7183 38.9585 21.6549 38.9577Z" fill="white"/>
</g>
<defs>
<clipPath id="clip0_125_2223">
<rect width="42" height="42" fill="white" transform="translate(0.5)"/>
</clipPath>
</defs>
</svg>
