<svg width="123" height="124" viewBox="0 0 123 124" fill="none" xmlns="http://www.w3.org/2000/svg">
<g clip-path="url(#clip0_125_2497)">
<mask id="mask0_125_2497" style="mask-type:luminance" maskUnits="userSpaceOnUse" x="40" y="14" width="45" height="9">
<path d="M40.8176 14.8027H84.1803V22.8122H40.8176V14.8027Z" fill="white"/>
</mask>
<g mask="url(#mask0_125_2497)">
<path d="M43.7288 22.4515C46.682 21.1606 49.7405 20.2001 52.902 19.5709C56.0635 18.9407 59.2555 18.6566 62.4791 18.7177C65.7037 18.6609 68.8978 18.9481 72.0615 19.5783C75.224 20.2085 78.2845 21.168 81.2419 22.4557C81.3587 22.5125 81.4808 22.5567 81.607 22.5893C81.7333 22.6209 81.8616 22.6409 81.9921 22.6472C82.1225 22.6546 82.2519 22.6483 82.3803 22.6283C82.5097 22.6093 82.6349 22.5778 82.758 22.5336C82.88 22.4894 82.9979 22.4326 83.1083 22.3652C83.2198 22.2979 83.324 22.219 83.4197 22.1306C83.5155 22.0423 83.6018 21.9455 83.6775 21.8403C83.7543 21.734 83.8195 21.6225 83.8732 21.5036C83.9279 21.3847 83.9689 21.2616 83.9984 21.1354C84.0278 21.0081 84.0447 20.8797 84.0478 20.7492C84.052 20.6188 84.0426 20.4894 84.0205 20.361C83.9984 20.2327 83.9637 20.1075 83.9174 19.9854C83.87 19.8644 83.8111 19.7487 83.7406 19.6382C83.6712 19.5288 83.5902 19.4268 83.4997 19.3331C83.4092 19.2395 83.3103 19.1553 83.203 19.0817C83.0957 19.008 82.9821 18.9449 82.8621 18.8934C79.6512 17.4888 76.3266 16.442 72.8905 15.7529C69.4544 15.0627 65.9836 14.7461 62.4791 14.8029C58.9735 14.7418 55.5017 15.0554 52.0635 15.7455C48.6263 16.4368 45.3017 17.4867 42.0918 18.8976C41.9719 18.9491 41.8572 19.0112 41.7499 19.0859C41.6426 19.1606 41.5426 19.2437 41.4521 19.3384C41.3606 19.432 41.2807 19.5351 41.2102 19.6446C41.1397 19.755 41.0808 19.8718 41.0334 19.9938C40.9861 20.1159 40.9524 20.2411 40.9303 20.3705C40.9082 20.4988 40.8987 20.6293 40.903 20.7598C40.9072 20.8902 40.925 21.0196 40.9545 21.1469C40.985 21.2742 41.0271 21.3973 41.0818 21.5162C41.1365 21.6351 41.2028 21.7477 41.2796 21.8529C41.3564 21.9591 41.4437 22.0559 41.5405 22.1443C41.6373 22.2316 41.7415 22.3095 41.854 22.3768C41.9666 22.4441 42.0844 22.4999 42.2075 22.543C42.3306 22.5872 42.4569 22.6177 42.5873 22.6356C42.7167 22.6546 42.8462 22.6598 42.9777 22.6514C43.1081 22.644 43.2365 22.623 43.3627 22.5893C43.489 22.5557 43.611 22.5094 43.7288 22.4515Z" fill="#FFC107"/>
</g>
<path d="M36.4706 37.7095C36.8882 37.2697 37.3175 36.8415 37.7562 36.4238C38.196 36.0061 38.6452 35.6 39.106 35.2055C39.5658 34.8099 40.035 34.427 40.5148 34.0566C40.9945 33.6852 41.4827 33.3265 41.9803 32.9803C42.478 32.6342 42.984 32.3007 43.4985 31.9798C44.0129 31.6589 44.5348 31.3517 45.065 31.0582C45.5953 30.7636 46.1318 30.4827 46.6768 30.2165C47.2207 29.9493 47.771 29.6957 48.3286 29.4569C48.8851 29.2181 49.448 28.993 50.0172 28.7825C50.5853 28.5721 51.1587 28.3764 51.7373 28.1944C52.3149 28.0135 52.8978 27.8472 53.4848 27.6947C54.0719 27.5432 54.6621 27.4054 55.2555 27.2844C55.8499 27.1623 56.4465 27.055 57.0451 26.9635C57.6448 26.8709 58.2455 26.7952 58.8494 26.7331C59.4523 26.6721 60.0562 26.6258 60.6622 26.5953C61.2671 26.5647 61.8731 26.549 62.4791 26.549C63.0851 26.549 63.6911 26.5647 64.2971 26.5953C64.9021 26.6258 65.506 26.6721 66.1099 26.7331C66.7127 26.7952 67.3134 26.8709 67.9131 26.9635C68.5118 27.055 69.1083 27.1623 69.7027 27.2844C70.2961 27.4054 70.8863 27.5432 71.4734 27.6947C72.0604 27.8472 72.6433 28.0135 73.2209 28.1944C73.7995 28.3764 74.3729 28.5721 74.9421 28.7825C75.5102 28.993 76.0731 29.2181 76.6296 29.4569C77.1872 29.6957 77.7375 29.9493 78.2825 30.2165C78.8264 30.4827 79.3629 30.7636 79.8932 31.0582C80.4234 31.3517 80.9463 31.6589 81.4608 31.9798C81.9742 32.3007 82.4803 32.6342 82.9779 32.9803C83.4755 33.3265 83.9648 33.6852 84.4435 34.0566C84.9232 34.427 85.3924 34.8099 85.8532 35.2055C86.313 35.6 86.7622 36.0061 87.202 36.4238C87.6407 36.8415 88.07 37.2697 88.4877 37.7095C88.5781 37.7947 88.677 37.8715 88.7833 37.9378C88.8885 38.0051 89 38.0609 89.1168 38.1061C89.2336 38.1513 89.3535 38.1861 89.4766 38.2082C89.5997 38.2302 89.7239 38.2408 89.8491 38.2397C89.9743 38.2387 90.0984 38.225 90.2204 38.1997C90.3435 38.1745 90.4624 38.1387 90.5782 38.0903C90.6939 38.0419 90.8033 37.9841 90.9085 37.9146C91.0127 37.8452 91.1095 37.7673 91.1989 37.679C91.2883 37.5916 91.3683 37.4959 91.4388 37.3928C91.5103 37.2897 91.5713 37.1813 91.6208 37.0666C91.6713 36.952 91.7102 36.8331 91.7376 36.711C91.7649 36.589 91.7807 36.4659 91.7838 36.3407C91.7881 36.2155 91.7796 36.0914 91.7596 35.9672C91.7386 35.8441 91.707 35.7231 91.6639 35.6063C91.6208 35.4885 91.5671 35.3759 91.5019 35.2686C91.4367 35.1624 91.363 35.0624 91.2788 34.9688C90.8159 34.4838 90.3404 34.0103 89.8533 33.5495C89.3662 33.0877 88.8685 32.6395 88.3583 32.2029C87.8491 31.7662 87.3283 31.3433 86.797 30.934C86.2667 30.5237 85.7249 30.1282 85.1736 29.7452C84.6234 29.3633 84.0626 28.994 83.4924 28.6405C82.9232 28.286 82.3446 27.9472 81.7575 27.6221C81.1704 27.297 80.576 26.9866 79.9732 26.692C79.3714 26.3975 78.7612 26.1176 78.1446 25.8535C77.5281 25.5895 76.9053 25.3422 76.2761 25.1097C75.6459 24.8772 75.0115 24.6605 74.3719 24.4595C73.7311 24.2596 73.0862 24.0755 72.4371 23.9072C71.7869 23.7399 71.1335 23.5884 70.4771 23.4537C69.8195 23.3191 69.1598 23.2012 68.496 23.0992C67.8332 22.9982 67.1682 22.914 66.5002 22.8456C65.8332 22.7783 65.164 22.7278 64.4939 22.6941C63.8247 22.6594 63.1535 22.6426 62.4833 22.6426C61.8121 22.6426 61.1419 22.6594 60.4717 22.6941C59.8016 22.7278 59.1335 22.7783 58.4654 22.8456C57.7984 22.914 57.1335 22.9982 56.4696 23.0992C55.8068 23.2012 55.1461 23.3191 54.4896 23.4537C53.832 23.5884 53.1787 23.7399 52.5296 23.9072C51.8794 24.0755 51.2344 24.2596 50.5948 24.4595C49.9541 24.6605 49.3197 24.8772 48.6905 25.1097C48.0614 25.3422 47.4385 25.5895 46.822 25.8535C46.2044 26.1176 45.5953 26.3975 44.9924 26.692C44.3896 26.9866 43.7952 27.297 43.2081 27.6221C42.621 27.9472 42.0434 28.286 41.4732 28.6405C40.904 28.994 40.3433 29.3633 39.792 29.7452C39.2407 30.1282 38.6999 30.5237 38.1686 30.934C37.6373 31.3433 37.1176 31.7662 36.6073 32.2029C36.0981 32.6395 35.5994 33.0877 35.1123 33.5495C34.6263 34.0103 34.1507 34.4838 33.6878 34.9688C33.6078 35.0624 33.5363 35.1624 33.4753 35.2686C33.4143 35.3759 33.3627 35.4864 33.3227 35.6032C33.2817 35.7189 33.2533 35.8378 33.2354 35.9598C33.2175 36.0819 33.2101 36.2039 33.2154 36.327C33.2207 36.4491 33.2375 36.5711 33.2649 36.691C33.2933 36.8099 33.3322 36.9267 33.3816 37.0393C33.4321 37.1519 33.4921 37.2581 33.5615 37.3591C33.632 37.4601 33.7099 37.5538 33.7983 37.64C33.8856 37.7263 33.9803 37.8042 34.0834 37.8725C34.1854 37.9409 34.2927 37.9988 34.4064 38.0472C34.5189 38.0956 34.6357 38.1324 34.7557 38.1587C34.8766 38.185 34.9976 38.1997 35.1207 38.2029C35.2438 38.206 35.3659 38.1976 35.4879 38.1776C35.6089 38.1577 35.7278 38.1261 35.8425 38.084C35.9582 38.0419 36.0687 37.9893 36.1749 37.9262C36.2801 37.8631 36.379 37.7905 36.4706 37.7095Z" fill="#FFC107"/>
<path d="M62.4789 30.4595C59.6961 30.4584 56.9555 30.8014 54.2579 31.4895C54.1317 31.5189 54.0086 31.56 53.8897 31.6136C53.7708 31.6673 53.6582 31.7325 53.553 31.8082C53.4468 31.885 53.35 31.9713 53.2605 32.066C53.1722 32.1617 53.0943 32.2659 53.0259 32.3764C52.9586 32.4879 52.9018 32.6047 52.8576 32.7278C52.8124 32.8498 52.7808 32.9761 52.7608 33.1044C52.7419 33.2338 52.7356 33.3632 52.7419 33.4937C52.7482 33.6241 52.7671 33.7525 52.7997 33.8787C52.8313 34.005 52.8755 34.127 52.9323 34.2438C52.9891 34.3617 53.0564 34.4721 53.1353 34.5763C53.2132 34.6804 53.3016 34.7762 53.3994 34.8624C53.4973 34.9487 53.6025 35.0245 53.715 35.0897C53.8276 35.1549 53.9455 35.2086 54.0696 35.2507C54.1927 35.2927 54.3189 35.3222 54.4483 35.338C54.5778 35.3548 54.7082 35.358 54.8376 35.3485C54.9681 35.339 55.0954 35.3169 55.2216 35.2822C55.7613 35.1455 56.3042 35.0245 56.8503 34.9182C57.3973 34.8119 57.9465 34.7225 58.4978 34.6468C59.0491 34.5721 59.6025 34.5132 60.158 34.47C60.7125 34.4269 61.269 34.3995 61.8256 34.388C62.3821 34.3764 62.9376 34.3806 63.4942 34.3995C64.0507 34.4195 64.6062 34.4553 65.1607 34.5068C65.7151 34.5584 66.2675 34.6257 66.8177 34.7088C67.3679 34.7909 67.9161 34.8898 68.461 35.0034C69.006 35.117 69.5468 35.2465 70.0844 35.3916C70.622 35.5358 71.1544 35.6957 71.6836 35.8714C72.2117 36.046 72.7346 36.2354 73.2522 36.4406C73.7699 36.6457 74.2812 36.8646 74.7872 37.0981C75.2922 37.3317 75.7899 37.58 76.2812 37.8419C76.7725 38.1039 77.2554 38.3796 77.731 38.6689C78.2065 38.9582 78.6736 39.2612 79.1323 39.5779C79.59 39.8935 80.0392 40.2228 80.479 40.5637C80.9188 40.9056 81.348 41.2591 81.7678 41.6252C82.1865 41.9914 82.5958 42.368 82.9935 42.7573C83.3922 43.1465 83.7783 43.5474 84.1539 43.9577C84.5285 44.3691 84.8925 44.791 85.2439 45.2223C85.5953 45.6547 85.9341 46.0955 86.2602 46.5469C86.5863 46.9972 86.8999 47.458 87.1997 47.9262C87.4995 48.3954 87.7868 48.872 88.0593 49.357C88.3328 49.842 88.5916 50.3344 88.8367 50.8341C89.0819 51.3339 89.3123 51.841 89.529 52.3533C89.7447 52.8667 89.9467 53.3854 90.1329 53.9094C90.3202 54.4343 90.4917 54.9635 90.6484 55.497C90.8052 56.0314 90.9472 56.569 91.0735 57.1119C91.1997 57.6537 91.3102 58.1987 91.4049 58.7479C91.5006 59.296 91.5795 59.8463 91.6437 60.3997C91.7079 60.9531 91.7563 61.5075 91.7878 62.063C91.8205 62.6185 91.8373 63.1751 91.8383 63.7316C91.8383 63.86 91.851 63.9873 91.8752 64.1135C91.9004 64.2387 91.9383 64.3618 91.9867 64.4807C92.0361 64.5985 92.0961 64.7121 92.1676 64.8184C92.2392 64.9257 92.3202 65.0246 92.4117 65.1151C92.5022 65.2056 92.6011 65.2866 92.7084 65.3581C92.8147 65.4297 92.9272 65.4907 93.0461 65.5391C93.165 65.5885 93.2871 65.6254 93.4133 65.6506C93.5396 65.6759 93.6669 65.6885 93.7952 65.6885C93.9236 65.6885 94.0509 65.6759 94.1771 65.6506C94.3034 65.6254 94.4254 65.5885 94.5443 65.5391C94.6632 65.4907 94.7758 65.4297 94.8831 65.3581C94.9893 65.2866 95.0882 65.2056 95.1798 65.1151C95.2702 65.0246 95.3512 64.9257 95.4228 64.8184C95.4943 64.7121 95.5543 64.5985 95.6037 64.4807C95.6532 64.3618 95.69 64.2387 95.7153 64.1135C95.7405 63.9873 95.7521 63.86 95.7521 63.7316C95.7521 63.1866 95.7384 62.6427 95.7111 62.0988C95.6837 61.5559 95.6427 61.013 95.589 60.4712C95.5354 59.9294 95.468 59.3897 95.387 58.851C95.3071 58.3134 95.2134 57.7768 95.1072 57.2434C94.9999 56.709 94.8799 56.1787 94.7474 55.6506C94.6148 55.1224 94.4696 54.5985 94.3107 54.0777C94.1529 53.5569 93.9814 53.0403 93.7984 52.528C93.6143 52.0156 93.4175 51.5075 93.2092 51.0046C93.0009 50.5017 92.78 50.0051 92.5464 49.5127C92.3139 49.0214 92.0687 48.5353 91.812 48.0545C91.5553 47.5748 91.2871 47.1013 91.0072 46.6353C90.7263 46.1681 90.4359 45.7084 90.1329 45.256C89.8299 44.8036 89.5164 44.3585 89.1924 43.9219C88.8683 43.4843 88.5337 43.055 88.1876 42.6342C87.8425 42.2144 87.4869 41.802 87.1208 41.399C86.7557 40.995 86.3801 40.6016 85.9951 40.2165C85.6111 39.8314 85.2165 39.4558 84.8136 39.0908C84.4096 38.7246 83.9982 38.369 83.5774 38.024C83.1565 37.6789 82.7273 37.3443 82.2896 37.0192C81.853 36.6952 81.408 36.3817 80.9556 36.0787C80.5032 35.7767 80.0434 35.4853 79.5763 35.2054C79.1092 34.9256 78.6368 34.6573 78.156 34.3995C77.6762 34.1428 77.1902 33.8987 76.6989 33.6652C76.2065 33.4327 75.7089 33.2117 75.206 33.0034C74.7031 32.794 74.196 32.5984 73.6836 32.4142C73.1712 32.2312 72.6547 32.0597 72.1339 31.9008C71.6131 31.743 71.0881 31.5978 70.56 31.4642C70.0318 31.3317 69.5016 31.2128 68.9671 31.1055C68.4337 30.9992 67.8982 30.9056 67.3595 30.8256C66.8208 30.7446 66.2811 30.6773 65.7393 30.6236C65.1975 30.5699 64.6546 30.5289 64.1107 30.5016C63.5678 30.4742 63.0228 30.4605 62.4789 30.4595Z" fill="#FFC107"/>
<mask id="mask1_125_2497" style="mask-type:luminance" maskUnits="userSpaceOnUse" x="29" y="34" width="20" height="32">
<path d="M29.0482 34.6626H48.8979V65.9053H29.0482V34.6626Z" fill="white"/>
</mask>
<g mask="url(#mask1_125_2497)">
<path d="M33.1198 63.762C33.1272 62.8057 33.1808 61.8515 33.2787 60.9004C33.3776 59.9493 33.5217 59.0045 33.7111 58.0671C33.9005 57.1297 34.1351 56.2028 34.4128 55.2875C34.6916 54.3722 35.0125 53.4727 35.3776 52.5889C35.7427 51.7041 36.1488 50.8393 36.597 49.9945C37.0441 49.1486 37.5312 48.3269 38.0583 47.5284C38.5843 46.7299 39.1483 45.9576 39.749 45.2138C40.3497 44.4689 40.9852 43.7556 41.6543 43.0718C43.4744 41.2254 45.5039 39.6462 47.7406 38.3353C47.8521 38.2701 47.9552 38.1954 48.052 38.1101C48.1478 38.0239 48.2341 37.9302 48.3119 37.8282C48.3898 37.7251 48.456 37.6157 48.5129 37.501C48.5686 37.3853 48.6128 37.2643 48.6454 37.1401C48.678 37.016 48.698 36.8897 48.7054 36.7614C48.7127 36.633 48.7075 36.5047 48.6907 36.3774C48.6728 36.2501 48.6423 36.1259 48.6002 36.0049C48.5581 35.8829 48.5044 35.7672 48.4403 35.6556C48.375 35.5452 48.2993 35.4421 48.2141 35.3453C48.1288 35.2495 48.0352 35.1622 47.9321 35.0854C47.8301 35.0076 47.7206 34.9402 47.6049 34.8845C47.4892 34.8287 47.3692 34.7845 47.2451 34.7519C47.1199 34.7193 46.9936 34.6993 46.8653 34.6919C46.7369 34.6846 46.6096 34.6888 46.4823 34.7067C46.355 34.7245 46.2298 34.754 46.1088 34.7961C45.9879 34.8392 45.8711 34.8918 45.7606 34.9571C45.1367 35.3232 44.5255 35.7093 43.9268 36.1154C43.3282 36.5204 42.7432 36.9455 42.1719 37.3884C41.6017 37.8324 41.0452 38.2932 40.5033 38.773C39.9626 39.2527 39.4376 39.7493 38.9284 40.2627C38.4192 40.7761 37.9268 41.3053 37.4523 41.8503C36.9768 42.3963 36.5202 42.956 36.0814 43.5305C35.6427 44.106 35.2229 44.6941 34.8221 45.2959C34.4223 45.8977 34.0414 46.5121 33.6806 47.1391C33.3197 47.7651 32.9788 48.4027 32.659 49.0518C32.3402 49.6999 32.0414 50.3585 31.7647 51.0266C31.487 51.6936 31.2324 52.3701 30.9988 53.055C30.7653 53.7388 30.5548 54.4301 30.3655 55.1286C30.1771 55.8262 30.012 56.53 29.8689 57.2381C29.7258 57.9472 29.6048 58.6594 29.508 59.377C29.4112 60.0934 29.3376 60.812 29.2871 61.5337C29.2366 62.2544 29.2092 62.9772 29.2061 63.7C29.204 63.8283 29.2145 63.9567 29.2376 64.0829C29.2608 64.2102 29.2955 64.3333 29.3439 64.4533C29.3912 64.5732 29.4502 64.6868 29.5196 64.7952C29.5901 64.9036 29.67 65.0035 29.7595 65.0961C29.8489 65.1876 29.9478 65.2707 30.0541 65.3433C30.1593 65.417 30.2718 65.479 30.3907 65.5295C30.5086 65.58 30.6306 65.619 30.7568 65.6463C30.8831 65.6726 31.0104 65.6863 31.1398 65.6884H31.1629C31.2903 65.6884 31.4165 65.6758 31.5406 65.6516C31.6658 65.6274 31.7868 65.5906 31.9047 65.5422C32.0225 65.4938 32.134 65.4349 32.2403 65.3654C32.3465 65.2949 32.4454 65.215 32.5359 65.1266C32.6264 65.0372 32.7074 64.9393 32.78 64.8352C32.8515 64.73 32.9126 64.6184 32.962 64.5017C33.0125 64.3849 33.0504 64.2639 33.0777 64.1397C33.104 64.0156 33.1177 63.8893 33.1198 63.762Z" fill="#FFC107"/>
</g>
<path d="M40.9494 64.2126C40.941 63.4908 40.9673 62.7712 41.0294 62.0526C41.0914 61.333 41.1882 60.6186 41.3208 59.9095C41.4533 59.2004 41.6196 58.4987 41.8205 57.8064C42.0215 57.1131 42.2561 56.4313 42.5244 55.7612C42.7926 55.092 43.0925 54.4366 43.425 53.7959C43.7574 53.1552 44.1204 52.5323 44.5139 51.9284C44.9073 51.3235 45.3292 50.7385 45.7806 50.1757C46.2309 49.6117 46.7085 49.072 47.2125 48.5554C47.709 48.0504 48.2298 47.5718 48.7748 47.1194C49.3187 46.667 49.8847 46.2419 50.4718 45.8453C51.0589 45.4497 51.6638 45.0836 52.2877 44.748C52.9105 44.4113 53.5492 44.1072 54.2035 43.8358C54.8569 43.5633 55.5229 43.3245 56.2004 43.1193C56.879 42.9131 57.565 42.7416 58.2593 42.6049C58.9548 42.4681 59.6544 42.366 60.3593 42.2987C61.0642 42.2314 61.7712 42.1998 62.4792 42.203C63.2462 42.203 64.0111 42.2451 64.7738 42.3271C65.5366 42.4092 66.292 42.5312 67.0421 42.6943C67.7912 42.8574 68.5298 43.0604 69.2578 43.3024C69.9858 43.5444 70.6981 43.8242 71.3967 44.142C72.0942 44.4607 72.7728 44.8153 73.4335 45.2056C74.0932 45.5959 74.7307 46.021 75.3452 46.4797C75.9596 46.9384 76.5487 47.4287 77.1106 47.9505C77.6724 48.4723 78.2058 49.0226 78.7087 49.6012C78.7918 49.7033 78.8844 49.7959 78.9854 49.879C79.0864 49.9621 79.1958 50.0347 79.3115 50.0957C79.4272 50.1578 79.5482 50.2072 79.6745 50.244C79.8007 50.2809 79.9291 50.3051 80.0595 50.3166C80.19 50.3282 80.3215 50.3261 80.4509 50.3114C80.5814 50.2966 80.7097 50.2682 80.8339 50.2283C80.9591 50.1872 81.079 50.1346 81.1926 50.0694C81.3073 50.0052 81.4136 49.9295 81.5135 49.8432C81.6124 49.7569 81.7018 49.6622 81.7818 49.5581C81.8618 49.4539 81.9301 49.3424 81.988 49.2246C82.0448 49.1067 82.0901 48.9836 82.1237 48.8574C82.1563 48.7301 82.1763 48.6007 82.1827 48.4692C82.19 48.3387 82.1837 48.2083 82.1637 48.0778C82.1448 47.9484 82.1122 47.8221 82.068 47.698C82.0227 47.5749 81.9659 47.4571 81.8975 47.3456C81.8292 47.233 81.7502 47.1288 81.6608 47.0331C81.0653 46.3492 80.4362 45.699 79.7713 45.0825C79.1074 44.466 78.412 43.8863 77.685 43.3434C76.9591 42.8016 76.2058 42.2998 75.4251 41.8379C74.6455 41.376 73.8428 40.9573 73.018 40.5807C72.1931 40.2051 71.3504 39.8737 70.4908 39.5885C69.6302 39.3024 68.757 39.0625 67.8712 38.87C66.9853 38.6774 66.0921 38.5323 65.1915 38.4355C64.2899 38.3376 63.3861 38.2892 62.4792 38.2882C61.6418 38.2861 60.8075 38.325 59.9742 38.406C59.141 38.487 58.314 38.6091 57.4924 38.7721C56.6717 38.9352 55.8606 39.1393 55.0599 39.3834C54.2593 39.6275 53.4734 39.9115 52.7012 40.2335C51.9279 40.5565 51.1735 40.9173 50.4371 41.315C49.7017 41.7127 48.9863 42.1462 48.2929 42.6154C47.5996 43.0857 46.9315 43.5875 46.2887 44.1241C45.6459 44.6596 45.0315 45.2267 44.4455 45.8232C43.8489 46.4334 43.284 47.071 42.7506 47.7359C42.2172 48.4008 41.7174 49.0899 41.2513 49.8043C40.7863 50.5186 40.356 51.254 39.9625 52.0105C39.5701 52.7669 39.2145 53.5413 38.8978 54.3324C38.5801 55.1247 38.3024 55.9295 38.0646 56.748C37.8268 57.5676 37.6301 58.3956 37.4733 59.2341C37.3176 60.0716 37.2019 60.9164 37.1293 61.7654C37.0556 62.6144 37.0241 63.4656 37.0346 64.3188C36.9494 66.7733 36.598 69.1889 35.9804 71.5656C35.3628 73.9422 34.4949 76.2242 33.3744 78.4094L32.275 80.3673C32.2066 80.4788 32.1498 80.5967 32.1045 80.7208C32.0603 80.8439 32.0277 80.9712 32.0088 81.1017C31.9899 81.2311 31.9835 81.3615 31.9909 81.493C31.9983 81.6245 32.0183 81.7539 32.0519 81.8802C32.0845 82.0075 32.1298 82.1306 32.1876 82.2484C32.2455 82.3663 32.315 82.4778 32.3949 82.5819C32.4759 82.6861 32.5653 82.7808 32.6653 82.867C32.7642 82.9523 32.8715 83.028 32.9862 83.0922C33.0998 83.1564 33.2197 83.209 33.3449 83.249C33.4701 83.29 33.5985 83.3173 33.729 83.3321C33.8594 83.3457 33.9899 83.3479 34.1214 83.3363C34.2518 83.3237 34.3802 83.2995 34.5064 83.2616C34.6327 83.2237 34.7537 83.1743 34.8694 83.1122C34.9851 83.0501 35.0935 82.9775 35.1945 82.8933C35.2955 82.8092 35.3881 82.7166 35.4701 82.6135C35.5522 82.5114 35.6238 82.402 35.6837 82.2852L36.8389 80.2263C38.1182 77.7466 39.1051 75.1542 39.7984 72.4514C40.4928 69.7486 40.8758 67.0027 40.9494 64.2126Z" fill="#FFC107"/>
<path d="M89.3524 79.0751C88.4087 74.3481 87.9374 69.5738 87.9395 64.7531L87.9237 63.7316C87.9279 60.8257 87.446 58.004 86.4792 55.2644C86.4339 55.1466 86.3782 55.0329 86.3119 54.9256C86.2456 54.8183 86.1688 54.7173 86.0825 54.6247C85.9963 54.5321 85.9026 54.448 85.7995 54.3743C85.6975 54.2996 85.5891 54.2355 85.4744 54.1818C85.3587 54.1292 85.2398 54.0871 85.1178 54.0566C84.9947 54.0261 84.8695 54.0082 84.7432 54.0019C84.617 53.9956 84.4907 54.0019 84.3655 54.0198C84.2403 54.0387 84.1183 54.0682 83.9984 54.1103C83.8784 54.1523 83.7648 54.206 83.6554 54.2702C83.546 54.3344 83.445 54.408 83.3492 54.4922C83.2545 54.5763 83.1693 54.6689 83.0925 54.7699C83.0157 54.8699 82.9494 54.9772 82.8926 55.0908C82.8369 55.2044 82.7927 55.3223 82.759 55.4443C82.7264 55.5663 82.7053 55.6905 82.6959 55.8167C82.6875 55.943 82.6906 56.0692 82.7053 56.1955C82.7211 56.3207 82.7485 56.4438 82.7874 56.5637C83.6101 58.8993 84.0194 61.3055 84.0131 63.7821L84.0362 64.8352C84.0425 69.9631 84.5581 75.0404 85.5828 80.0652L87.8216 87.4403C87.8826 87.6402 87.9742 87.8264 88.0952 87.9979C88.2172 88.1694 88.3613 88.3177 88.5307 88.4429C88.6991 88.567 88.8832 88.6628 89.0831 88.728C89.2819 88.7932 89.4871 88.8259 89.6964 88.8259C89.7732 88.8259 89.849 88.8216 89.9247 88.8122C90.0005 88.8038 90.0762 88.7911 90.1499 88.7733C90.2246 88.7554 90.2972 88.7343 90.3687 88.708C90.4403 88.6817 90.5108 88.6512 90.5791 88.6175C90.6465 88.5828 90.7128 88.5449 90.7769 88.5029C90.8401 88.4608 90.9011 88.4155 90.96 88.3661C91.0179 88.3177 91.0736 88.2651 91.1262 88.2093C91.1778 88.1536 91.2272 88.0957 91.2725 88.0336C91.3177 87.9726 91.3598 87.9095 91.3977 87.8432C91.4355 87.7769 91.4692 87.7085 91.4997 87.6391C91.5292 87.5686 91.5555 87.4971 91.5765 87.4234C91.5986 87.3508 91.6154 87.2761 91.6291 87.2014C91.6417 87.1257 91.6502 87.0499 91.6544 86.9742C91.6586 86.8984 91.6586 86.8216 91.6533 86.7459C91.6491 86.6701 91.6396 86.5944 91.626 86.5186C91.6123 86.4439 91.5944 86.3703 91.5723 86.2966L89.3524 79.0751Z" fill="#FFC107"/>
<path d="M84.0328 89.5067C81.5646 81.0911 80.2516 72.4998 80.0938 63.7317C80.0917 63.4435 80.0812 63.1552 80.0643 62.8669C80.0475 62.5797 80.0233 62.2925 79.9928 62.0053C79.9612 61.7191 79.9234 61.4329 79.8781 61.1489C79.8339 60.8638 79.7813 60.5808 79.7224 60.2977C79.6635 60.0158 79.5972 59.7359 79.5246 59.4561C79.452 59.1773 79.3731 58.9006 79.2858 58.626C79.1995 58.3503 79.1069 58.0778 79.007 57.8075C78.9071 57.5371 78.8008 57.2688 78.6882 57.0037C78.5756 56.7385 78.4557 56.4755 78.3305 56.2167C78.2043 55.9568 78.0728 55.7012 77.9339 55.4487C77.7961 55.1951 77.6509 54.9458 77.5004 54.6996C77.35 54.4545 77.1932 54.2125 77.0312 53.9737C76.8681 53.7359 76.6998 53.5023 76.5262 53.2719C76.3526 53.0426 76.1727 52.8164 75.9875 52.5954C75.8024 52.3745 75.6119 52.1578 75.4162 51.9463C75.2206 51.7348 75.0207 51.5276 74.8144 51.3256C74.6082 51.1246 74.3978 50.9279 74.1821 50.7364C73.9665 50.5449 73.7466 50.3587 73.5225 50.1778C73.2973 49.9968 73.069 49.8221 72.8355 49.6528C72.6019 49.4823 72.3652 49.3193 72.1243 49.1614C71.8823 49.0036 71.6372 48.8521 71.3889 48.7059C71.1406 48.5596 70.8881 48.4208 70.6324 48.2872C70.3768 48.1535 70.118 48.0262 69.856 47.9053C69.5951 47.7853 69.3299 47.6706 69.0627 47.5633C68.7955 47.455 68.5251 47.354 68.2526 47.2593C67.9801 47.1656 67.7066 47.0773 67.4299 46.9963C67.1532 46.9152 66.8744 46.8416 66.5935 46.7743C66.3136 46.7069 66.0317 46.6459 65.7486 46.5923C65.4656 46.5386 65.1805 46.4923 64.8954 46.4534C64.6092 46.4134 64.3231 46.3808 64.0359 46.3555C63.7486 46.3303 63.4614 46.3113 63.1731 46.2998C62.8849 46.2893 62.5966 46.285 62.3083 46.2871C62.0201 46.2903 61.7318 46.2998 61.4446 46.3166C61.1563 46.3334 60.8691 46.3576 60.5829 46.3892C60.2957 46.4197 60.0106 46.4576 59.7255 46.5028C59.4414 46.5481 59.1573 46.5996 58.8754 46.6596C58.5934 46.7185 58.3125 46.7837 58.0337 46.8563C57.7549 46.9289 57.4772 47.0089 57.2026 47.0951C56.9269 47.1814 56.6544 47.2751 56.3841 47.3739C56.1137 47.4739 55.8454 47.5802 55.5803 47.6938C55.3151 47.8064 55.0532 47.9252 54.7933 48.0515C54.5334 48.1767 54.2778 48.3093 54.0253 48.4471C53.7717 48.5859 53.5224 48.7301 53.2762 48.8805C53.0311 49.032 52.7891 49.1877 52.5503 49.3508C52.3125 49.5128 52.0789 49.6812 51.8485 49.8548C51.6192 50.0294 51.393 50.2083 51.172 50.3934C50.9511 50.5786 50.7344 50.769 50.5229 50.9647C50.3114 51.1604 50.1042 51.3613 49.9022 51.5665C49.7002 51.7727 49.5034 51.9831 49.3119 52.1988C49.1205 52.4145 48.9342 52.6344 48.7543 52.8585C48.5734 53.0836 48.3977 53.3119 48.2283 53.5455C48.0589 53.779 47.8958 54.0158 47.738 54.2577C47.5792 54.4987 47.4277 54.7438 47.2825 54.9921C47.1362 55.2404 46.9963 55.4929 46.8627 55.7485C46.7301 56.0042 46.6028 56.263 46.4818 56.525C46.3609 56.7859 46.2472 57.051 46.1389 57.3182C46.0316 57.5855 45.9306 57.8559 45.8359 58.1283C45.7412 58.3998 45.6539 58.6744 45.5728 58.9511C45.4918 59.2278 45.4171 59.5066 45.3498 59.7864C45.2825 60.0673 45.2225 60.3493 45.1688 60.6323C45.1152 60.9153 45.0689 61.2004 45.0289 61.4855C44.99 61.7707 44.9574 62.0579 44.9311 62.3451C44.9058 62.6313 44.8879 62.9195 44.8764 63.2078C44.8648 63.495 44.8606 63.7833 44.8637 64.0716C44.7712 66.2988 44.5166 68.5082 44.101 70.6976C43.6844 72.888 43.1099 75.0353 42.3787 77.1405C41.6465 79.2468 40.7648 81.2879 39.7338 83.2637C38.7027 85.2405 37.5328 87.1311 36.224 88.9355C36.1504 89.0407 36.0883 89.1532 36.0368 89.2711C35.9863 89.3889 35.9463 89.5099 35.92 89.6361C35.8926 89.7613 35.8779 89.8886 35.8758 90.017C35.8726 90.1454 35.8832 90.2737 35.9063 90.4C35.9294 90.5262 35.9642 90.6493 36.0115 90.7692C36.0589 90.8881 36.1167 91.0017 36.1862 91.1101C36.2556 91.2185 36.3356 91.3184 36.425 91.411C36.5144 91.5036 36.6112 91.5867 36.7175 91.6593C36.8227 91.7329 36.9342 91.795 37.052 91.8466C37.1709 91.8981 37.2919 91.937 37.4181 91.9644C37.5433 91.9918 37.6706 92.0065 37.799 92.0086C37.9274 92.0107 38.0547 92.0002 38.182 91.977C38.3082 91.9549 38.4313 91.9192 38.5512 91.8718C38.6701 91.8255 38.7838 91.7666 38.8921 91.6972C39.0005 91.6277 39.1004 91.5478 39.193 91.4594C39.2856 91.37 39.3687 91.2721 39.4413 91.1669C40.8721 89.1974 42.1494 87.1343 43.273 84.9754C44.3956 82.8165 45.353 80.5861 46.1441 78.2852C46.9353 75.9833 47.5518 73.6361 47.9926 71.2436C48.4345 68.8501 48.6954 66.4377 48.7775 64.0053C48.7743 63.556 48.7922 63.1089 48.8322 62.6618C48.8722 62.2146 48.9342 61.7707 49.0174 61.3298C49.1015 60.889 49.2067 60.4524 49.333 60.0221C49.4603 59.5918 49.6076 59.1678 49.7759 58.7522C49.9432 58.3356 50.1315 57.9285 50.3398 57.5308C50.5481 57.1331 50.7754 56.747 51.0216 56.3714C51.2678 55.9968 51.5318 55.6339 51.8138 55.2846C52.0947 54.9353 52.3935 54.6007 52.7081 54.2809C53.0226 53.96 53.3519 53.657 53.697 53.3687C54.0411 53.0815 54.3998 52.8111 54.7702 52.5586C55.1415 52.3061 55.5245 52.0726 55.918 51.8569C56.3125 51.6423 56.7165 51.4476 57.1289 51.2719C57.5424 51.0973 57.9632 50.9426 58.3914 50.8079C58.8207 50.6743 59.2541 50.5618 59.6939 50.4702C60.1337 50.3798 60.5766 50.3103 61.0227 50.2619C61.4688 50.2146 61.9159 50.1893 62.3651 50.1851C62.8144 50.182 63.2626 50.1998 63.7087 50.2398C64.1558 50.2809 64.5998 50.3429 65.0416 50.426C65.4825 50.5102 65.918 50.6154 66.3483 50.7427C66.7786 50.869 67.2026 51.0173 67.6182 51.1856C68.0348 51.354 68.442 51.5423 68.8386 51.7506C69.2363 51.9589 69.6235 52.1862 69.998 52.4324C70.3736 52.6786 70.7355 52.9426 71.0848 53.2246C71.4341 53.5065 71.7687 53.8053 72.0885 54.1199C72.4083 54.4345 72.7124 54.7648 72.9996 55.1089C73.2879 55.4539 73.5572 55.8117 73.8097 56.183C74.0622 56.5544 74.2958 56.9363 74.5104 57.3309C74.725 57.7254 74.9207 58.1283 75.0954 58.5418C75.27 58.9553 75.4247 59.3761 75.5583 59.8043C75.6919 60.2336 75.8045 60.667 75.896 61.1068C75.9865 61.5466 76.0559 61.9895 76.1032 62.4356C76.1506 62.8817 76.1758 63.3298 76.18 63.778C76.2632 68.3346 76.6503 72.8638 77.3416 77.3678C78.0317 81.8718 79.0207 86.3095 80.3053 90.6809L82.1138 96.4894C82.1759 96.6893 82.2674 96.8745 82.3884 97.0449C82.5104 97.2154 82.6546 97.3626 82.8229 97.4868C82.9912 97.6109 83.1754 97.7046 83.3742 97.7698C83.572 97.835 83.7761 97.8676 83.9855 97.8676C84.1833 97.8687 84.3758 97.8403 84.5652 97.7814C84.6872 97.7435 84.805 97.694 84.9187 97.632C85.0312 97.571 85.1375 97.4994 85.2353 97.4174C85.3342 97.3342 85.4247 97.2438 85.5057 97.1438C85.5857 97.0439 85.6562 96.9366 85.7161 96.8229C85.7761 96.7093 85.8245 96.5904 85.8603 96.4673C85.8971 96.3442 85.9213 96.219 85.9329 96.0907C85.9444 95.9623 85.9434 95.835 85.9297 95.7067C85.9171 95.5794 85.8908 95.4542 85.8529 95.3311L84.0328 89.5067Z" fill="#FFC107"/>
<path d="M72.2656 63.7318C72.2645 63.4109 72.2467 63.0911 72.214 62.7723C72.1814 62.4535 72.133 62.1369 72.0699 61.8233C72.0057 61.5088 71.9268 61.1984 71.8321 60.8923C71.7375 60.5861 71.6291 60.2852 71.5049 59.9896C71.3808 59.6939 71.243 59.4057 71.0904 59.1237C70.9379 58.8417 70.7727 58.5672 70.5938 58.302C70.4139 58.0358 70.2225 57.7802 70.0183 57.533C69.8132 57.2857 69.5975 57.05 69.3703 56.8238C69.143 56.5987 68.9042 56.3841 68.6559 56.1821C68.4076 55.9801 68.1488 55.7897 67.8816 55.6129C67.6143 55.4362 67.3397 55.2731 67.0557 55.1226C66.7727 54.9732 66.4833 54.8375 66.1867 54.7165C65.89 54.5945 65.588 54.4882 65.2808 54.3967C64.9736 54.3041 64.6622 54.2284 64.3476 54.1673C64.033 54.1053 63.7164 54.06 63.3976 54.0295C63.0788 54.0001 62.759 53.9853 62.4381 53.9864C62.1172 53.9885 61.7974 54.0053 61.4786 54.0379C61.1598 54.0705 60.8442 54.1189 60.5296 54.1831C60.215 54.2462 59.9057 54.3262 59.5985 54.4198C59.2924 54.5145 58.9915 54.6239 58.6958 54.747C58.4002 54.8712 58.1119 55.009 57.83 55.1616C57.548 55.3141 57.2734 55.4793 57.0083 55.6592C56.7421 55.838 56.4854 56.0295 56.2392 56.2347C55.992 56.4388 55.7563 56.6545 55.5301 56.8817C55.3039 57.11 55.0903 57.3478 54.8883 57.5961C54.6863 57.8454 54.4959 58.1032 54.3192 58.3704C54.1424 58.6376 53.9793 58.9122 53.8289 59.1963C53.6795 59.4793 53.5438 59.7686 53.4217 60.0653C53.3007 60.362 53.1945 60.664 53.1019 60.9712C53.0104 61.2784 52.9336 61.5887 52.8725 61.9033C52.8115 62.2179 52.7663 62.5356 52.7358 62.8544C52.7063 63.1732 52.6916 63.493 52.6926 63.8139C52.64 65.2689 52.5296 66.7208 52.3602 68.1674C52.1908 69.614 51.9646 71.0522 51.6805 72.481C51.3965 73.9086 51.0556 75.3237 50.659 76.7251C50.2613 78.1275 49.8089 79.5099 49.3007 80.8755C48.7926 82.2411 48.2308 83.5836 47.6153 84.904C46.9998 86.2233 46.3328 87.5173 45.6142 88.784C44.8946 90.0507 44.1266 91.2869 43.3091 92.4926C42.4906 93.6973 41.6258 94.8682 40.7147 96.0045C40.6389 96.1065 40.5737 96.2149 40.519 96.3296C40.4643 96.4453 40.4211 96.5642 40.3896 96.6873C40.358 96.8104 40.3391 96.9356 40.3317 97.0618C40.3243 97.1891 40.3296 97.3154 40.3475 97.4416C40.3654 97.5679 40.3948 97.691 40.4359 97.8109C40.478 97.9309 40.5306 98.0455 40.5947 98.156C40.6589 98.2654 40.7326 98.3685 40.8167 98.4643C40.9009 98.5589 40.9935 98.6452 41.0934 98.7231C41.1944 98.8009 41.3017 98.8672 41.4164 98.924C41.53 98.9808 41.6479 99.0261 41.771 99.0587C41.8941 99.0924 42.0182 99.1134 42.1455 99.1229C42.2718 99.1323 42.3991 99.1292 42.5243 99.1134C42.6505 99.0976 42.7747 99.0703 42.8956 99.0313C43.0166 98.9913 43.1324 98.9408 43.2428 98.8777C43.3543 98.8157 43.4575 98.7441 43.5542 98.661C43.651 98.5789 43.7394 98.4885 43.8183 98.3885C44.8031 97.1681 45.7352 95.9098 46.6169 94.6136C47.4985 93.3175 48.3265 91.9876 49.0998 90.6252C49.8741 89.2617 50.5906 87.8687 51.2513 86.4474C51.9109 85.0249 52.5127 83.5794 53.0556 82.1086C53.5985 80.6378 54.0803 79.148 54.5012 77.6383C54.9231 76.1285 55.2829 74.6041 55.5796 73.0649C55.8773 71.5257 56.1119 69.977 56.2834 68.4189C56.4549 66.8607 56.5633 65.2984 56.6074 63.7318C56.6085 63.5393 56.618 63.3468 56.638 63.1563C56.6569 62.9649 56.6863 62.7744 56.7242 62.5861C56.7621 62.3978 56.8094 62.2116 56.8663 62.0275C56.9231 61.8433 56.9883 61.6624 57.063 61.4856C57.1366 61.3078 57.2198 61.1342 57.3113 60.9648C57.4018 60.7965 57.5017 60.6313 57.609 60.4725C57.7163 60.3126 57.831 60.159 57.9541 60.0106C58.0772 59.8623 58.2066 59.7202 58.3423 59.5845C58.4791 59.4488 58.6222 59.3204 58.7716 59.1995C58.921 59.0774 59.0756 58.9638 59.2355 58.8575C59.3955 58.7513 59.5606 58.6534 59.7311 58.5629C59.9015 58.4735 60.0751 58.3915 60.2529 58.3189C60.4307 58.2463 60.6127 58.1821 60.7968 58.1263C60.981 58.0716 61.1672 58.0253 61.3565 57.9885C61.5449 57.9517 61.7353 57.9243 61.9268 57.9064C62.1183 57.8886 62.3108 57.8801 62.5023 57.8801C62.6948 57.8812 62.8873 57.8917 63.0788 57.9117C63.2692 57.9306 63.4597 57.9601 63.648 57.998C63.8363 58.0369 64.0225 58.0842 64.2066 58.14C64.3908 58.1968 64.5707 58.262 64.7485 58.3367C64.9263 58.4114 65.0999 58.4946 65.2682 58.585C65.4376 58.6766 65.6028 58.7765 65.7616 58.8838C65.9215 58.9911 66.0751 59.1069 66.2235 59.2289C66.3718 59.352 66.5139 59.4814 66.6485 59.6182C66.7842 59.755 66.9126 59.897 67.0336 60.0464C67.1556 60.1958 67.2693 60.3504 67.3755 60.5114C67.4818 60.6713 67.5796 60.8365 67.6701 61.0069C67.7595 61.1763 67.8405 61.351 67.9142 61.5288C67.9868 61.7066 68.051 61.8886 68.1057 62.0727C68.1604 62.2568 68.2067 62.443 68.2435 62.6324C68.2803 62.8207 68.3077 63.0112 68.3255 63.2026C68.3434 63.3941 68.3518 63.5856 68.3508 63.7781C68.3003 65.6666 68.174 67.5488 67.972 69.4268C67.77 71.3037 67.4923 73.1701 67.1398 75.0259C66.7874 76.8808 66.3613 78.7188 65.8605 80.5399C65.3597 82.36 64.7863 84.158 64.1404 85.9329C63.4954 87.7078 62.779 89.4532 61.9931 91.1702C61.2061 92.8872 60.3529 94.5694 59.4302 96.2181C58.5086 97.8656 57.5217 99.4743 56.4707 101.043C55.4186 102.612 54.3055 104.135 53.1314 105.614C53.0556 105.716 52.9904 105.825 52.9357 105.939C52.881 106.054 52.8378 106.173 52.8063 106.297C52.7747 106.42 52.7558 106.545 52.7484 106.672C52.7421 106.799 52.7473 106.925 52.7642 107.051C52.7821 107.178 52.8115 107.3 52.8536 107.421C52.8946 107.541 52.9472 107.655 53.0114 107.766C53.0756 107.875 53.1492 107.978 53.2334 108.073C53.3176 108.169 53.4102 108.255 53.5112 108.333C53.6122 108.411 53.7195 108.477 53.8331 108.534C53.9467 108.591 54.0656 108.635 54.1877 108.668C54.3107 108.702 54.4349 108.723 54.5622 108.733C54.6884 108.742 54.8157 108.739 54.942 108.723C55.0682 108.707 55.1913 108.68 55.3123 108.64C55.4333 108.601 55.549 108.55 55.6595 108.487C55.771 108.425 55.8752 108.354 55.972 108.271C56.0688 108.189 56.1561 108.097 56.235 107.998C57.4765 106.433 58.6516 104.82 59.7626 103.16C60.8726 101.501 61.9152 99.7983 62.8873 98.0539C63.8605 96.3096 64.7621 94.5295 65.5912 92.7125C66.4202 90.8956 67.1746 89.0481 67.8553 87.1701C68.5349 85.2922 69.1388 83.39 69.6648 81.4626C70.1909 79.5362 70.6391 77.592 71.0084 75.6288C71.3776 73.6667 71.667 71.6919 71.8774 69.7056C72.0867 67.7192 72.2162 65.7276 72.2656 63.7318Z" fill="#FFC107"/>
<path d="M61.5238 73.4855C61.6279 73.5013 61.7321 73.5087 61.8373 73.5087C61.952 73.5087 62.0666 73.4992 62.1803 73.4782C62.2939 73.4582 62.4044 73.4277 62.5127 73.3877C62.6211 73.3477 62.7252 73.2983 62.8241 73.2404C62.9241 73.1815 63.0177 73.1152 63.105 73.0405C63.1934 72.9658 63.2734 72.8837 63.347 72.7943C63.4196 72.7049 63.4848 72.6102 63.5417 72.5092C63.5974 72.4092 63.6448 72.304 63.6826 72.1957C63.7205 72.0863 63.7489 71.9747 63.7668 71.8611C64.2445 69.1415 64.4633 66.4018 64.4244 63.6412C64.4212 63.5128 64.4044 63.3855 64.3749 63.2593C64.3455 63.1341 64.3044 63.0131 64.2508 62.8953C64.1971 62.7785 64.1329 62.6669 64.0561 62.5628C63.9804 62.4586 63.8952 62.3629 63.8005 62.2766C63.7047 62.1893 63.6016 62.1125 63.4912 62.0462C63.3807 61.9799 63.265 61.9252 63.144 61.8821C63.0219 61.839 62.8978 61.8074 62.7694 61.7895C62.6421 61.7716 62.5138 61.7664 62.3854 61.7737C62.2571 61.78 62.1308 61.7979 62.0056 61.8284C61.8815 61.8589 61.7605 61.9021 61.6448 61.9568C61.528 62.0104 61.4186 62.0757 61.3155 62.1514C61.2113 62.2282 61.1166 62.3134 61.0293 62.4081C60.943 62.5028 60.8662 62.6049 60.7999 62.7143C60.7337 62.8237 60.6779 62.9394 60.6337 63.0594C60.5906 63.1804 60.559 63.3045 60.539 63.4308C60.519 63.5581 60.5127 63.6854 60.518 63.8137C60.5359 66.3114 60.3297 68.7901 59.8993 71.2509C59.8794 71.3771 59.872 71.5044 59.8773 71.6328C59.8825 71.7612 59.9004 71.8874 59.9309 72.0116C59.9604 72.1368 60.0025 72.2567 60.0561 72.3735C60.1098 72.4903 60.175 72.5997 60.2497 72.7038C60.3254 72.8069 60.4096 72.9027 60.5043 72.99C60.5979 73.0773 60.7 73.1541 60.8094 73.2214C60.9188 73.2877 61.0335 73.3435 61.1534 73.3887C61.2744 73.4329 61.3975 73.4655 61.5238 73.4855Z" fill="#FFC107"/>
<path d="M60.5843 77.5644C60.4612 77.5276 60.336 77.5045 60.2077 77.4918C60.0793 77.4803 59.952 77.4813 59.8237 77.495C59.6964 77.5087 59.5712 77.535 59.4481 77.5729C59.326 77.6107 59.2082 77.6612 59.0946 77.7222C58.982 77.7843 58.8768 77.8559 58.7779 77.9379C58.679 78.02 58.5896 78.1115 58.5085 78.2115C58.4275 78.3114 58.357 78.4177 58.2981 78.5324C58.2382 78.646 58.1898 78.7638 58.154 78.8869C56.902 83.071 55.2597 87.0953 53.225 90.9596C51.1903 94.8249 48.8031 98.4567 46.0614 101.856C45.9814 101.957 45.912 102.064 45.852 102.178C45.7931 102.292 45.7457 102.41 45.71 102.535C45.6742 102.658 45.651 102.784 45.6395 102.911C45.6289 103.04 45.631 103.168 45.6447 103.295C45.6595 103.423 45.6858 103.548 45.7247 103.671C45.7636 103.793 45.8131 103.911 45.8751 104.023C45.9372 104.136 46.0098 104.241 46.0929 104.34C46.175 104.438 46.2665 104.527 46.3675 104.607C46.4675 104.688 46.5748 104.758 46.6894 104.817C46.8031 104.875 46.922 104.924 47.045 104.96C47.1692 104.995 47.2944 105.019 47.4227 105.029C47.55 105.041 47.6784 105.039 47.8057 105.025C47.9341 105.01 48.0593 104.984 48.1813 104.945C48.3044 104.907 48.4222 104.857 48.5348 104.794C48.6474 104.732 48.7526 104.66 48.8504 104.578C48.9493 104.495 49.0387 104.403 49.1187 104.303C52.0193 100.705 54.5443 96.8607 56.6958 92.7713C58.8484 88.6818 60.5854 84.423 61.9078 79.9947C61.9436 79.8717 61.9678 79.7465 61.9794 79.6181C61.9909 79.4908 61.9899 79.3624 61.9762 79.2351C61.9636 79.1068 61.9373 78.9816 61.8994 78.8585C61.8605 78.7365 61.811 78.6186 61.749 78.5061C61.6879 78.3924 61.6164 78.2872 61.5343 78.1883C61.4512 78.0894 61.3607 78 61.2608 77.919C61.1608 77.838 61.0535 77.7685 60.9399 77.7086C60.8263 77.6486 60.7074 77.6002 60.5843 77.5644Z" fill="#FFC107"/>
<path d="M77.1977 93.5227C76.2582 90.7168 75.3818 87.7373 75.3776 87.7341C75.3207 87.5405 75.2355 87.3606 75.123 87.1944C75.0104 87.0271 74.8747 86.8809 74.7169 86.7567C74.5601 86.6315 74.3865 86.5327 74.1992 86.4611C74.0109 86.3896 73.8163 86.3475 73.6153 86.3359C73.4144 86.3243 73.2166 86.3422 73.0209 86.3917C72.8263 86.4411 72.6432 86.519 72.4717 86.6252C72.3002 86.7304 72.1487 86.8599 72.0172 87.0124C71.8867 87.165 71.7815 87.3333 71.7016 87.5185C68.9904 93.8078 65.8594 99.8804 62.3065 105.735C62.2381 105.844 62.1802 105.958 62.1339 106.078C62.0876 106.198 62.054 106.321 62.0308 106.448C62.0087 106.574 61.9993 106.701 62.0024 106.829C62.0056 106.958 62.0214 107.085 62.0487 107.21C62.0771 107.335 62.1171 107.458 62.1687 107.575C62.2202 107.692 62.2833 107.804 62.357 107.909C62.4306 108.014 62.5148 108.111 62.6074 108.199C62.7 108.289 62.801 108.368 62.9093 108.436C63.0177 108.505 63.1313 108.563 63.2512 108.61C63.3712 108.656 63.4943 108.691 63.6205 108.713C63.7468 108.735 63.8741 108.744 64.0035 108.742C64.1318 108.739 64.2581 108.724 64.3833 108.696C64.5095 108.668 64.6305 108.629 64.7484 108.577C64.8662 108.525 64.9777 108.462 65.0829 108.389C65.1881 108.315 65.2849 108.232 65.3733 108.139C65.4627 108.047 65.5416 107.946 65.6111 107.837C68.4138 103.306 70.9357 98.6232 73.1777 93.7889C73.2797 94.1024 73.3849 94.4159 73.4912 94.7252L75.8394 102.19C75.8784 102.312 75.9278 102.43 75.9899 102.543C76.0509 102.656 76.1235 102.762 76.2055 102.861C76.2887 102.96 76.3802 103.049 76.4801 103.13C76.5801 103.211 76.6874 103.281 76.8021 103.341C76.9157 103.401 77.0346 103.448 77.1577 103.485C77.2818 103.521 77.4081 103.545 77.5364 103.556C77.6637 103.567 77.7921 103.566 77.9204 103.552C78.0488 103.539 78.174 103.512 78.2971 103.473C78.4191 103.435 78.537 103.385 78.6506 103.323C78.7632 103.261 78.8694 103.189 78.9673 103.106C79.0662 103.024 79.1556 102.933 79.2366 102.832C79.3176 102.732 79.387 102.624 79.447 102.51C79.5059 102.396 79.5543 102.277 79.5901 102.153C79.6259 102.03 79.6501 101.904 79.6616 101.775C79.6722 101.647 79.6711 101.52 79.6574 101.391C79.6427 101.263 79.6164 101.138 79.5775 101.015L77.1977 93.5227Z" fill="#FFC107"/>
<mask id="mask2_125_2497" style="mask-type:luminance" maskUnits="userSpaceOnUse" x="40" y="14" width="45" height="9">
<path d="M40.8176 14.8027H84.1803V22.8122H40.8176V14.8027Z" fill="white"/>
</mask>
<g mask="url(#mask2_125_2497)">
<path d="M82.0517 22.6316C81.7687 22.6316 81.4983 22.5727 81.2416 22.4559C78.2842 21.1682 75.2237 20.2087 72.0611 19.5785C68.8975 18.9483 65.7034 18.6611 62.4788 18.7179C59.2552 18.6569 56.0621 18.9409 52.8995 19.5701C49.737 20.2003 46.6786 21.1608 43.7243 22.4517C43.6065 22.5096 43.4855 22.5559 43.3582 22.5896C43.232 22.6232 43.1036 22.6443 42.9731 22.6516C42.8427 22.66 42.7122 22.6548 42.5828 22.6358C42.4534 22.618 42.3261 22.5874 42.203 22.5433C42.0799 22.5001 41.9621 22.4444 41.8495 22.377C41.738 22.3097 41.6328 22.2318 41.536 22.1445C41.4392 22.0561 41.3529 21.9594 41.2751 21.8531C41.1983 21.7479 41.132 21.6353 41.0773 21.5164C41.0226 21.3975 40.9805 21.2744 40.95 21.1471C40.9205 21.0198 40.9037 20.8904 40.8995 20.76C40.8953 20.6295 40.9037 20.4991 40.9258 20.3707C40.9479 20.2413 40.9826 20.1161 41.0289 19.9941C41.0762 19.872 41.1352 19.7552 41.2056 19.6448C41.2761 19.5354 41.3571 19.4323 41.4476 19.3386C41.5381 19.2439 41.638 19.1608 41.7454 19.0861C41.8537 19.0114 41.9673 18.9493 42.0883 18.8978C45.2982 17.4869 48.6228 16.4359 52.061 15.7457C55.5003 15.0556 58.9722 14.741 62.4788 14.8031C65.9833 14.7463 69.4541 15.0629 72.8902 15.7531C76.3263 16.4422 79.6509 17.4891 82.8618 18.8936C83.0649 18.9862 83.2469 19.1103 83.4079 19.265C83.5688 19.4207 83.6993 19.5974 83.8003 19.7973C83.9002 19.9972 83.9644 20.2076 83.9918 20.4296C84.0202 20.6516 84.0107 20.8715 83.9634 21.0893C83.916 21.3081 83.834 21.5122 83.7161 21.7026C83.5993 21.892 83.4531 22.0572 83.2795 22.1982C83.1059 22.3381 82.9134 22.4454 82.703 22.5201C82.4925 22.5948 82.2748 22.6316 82.0517 22.6316Z" fill="#423F91"/>
</g>
<path d="M89.8807 38.2879C89.6188 38.2879 89.3673 38.2374 89.1253 38.1364C88.8844 38.0354 88.6719 37.8913 88.4878 37.7051C88.0701 37.2653 87.6408 36.8371 87.2021 36.4194C86.7624 36.0017 86.3131 35.5956 85.8534 35.2011C85.3925 34.8066 84.9233 34.4236 84.4436 34.0522C83.9649 33.6809 83.4757 33.3221 82.978 32.976C82.4804 32.6298 81.9743 32.2963 81.4599 31.9754C80.9464 31.6556 80.4236 31.3484 79.8933 31.0538C79.3631 30.7592 78.8265 30.4794 78.2826 30.2121C77.7376 29.9449 77.1873 29.6924 76.6297 29.4536C76.0732 29.2137 75.5103 28.9896 74.9422 28.7792C74.373 28.5677 73.7996 28.372 73.221 28.1911C72.6434 28.0091 72.0605 27.8428 71.4735 27.6903C70.8864 27.5388 70.2962 27.402 69.7028 27.28C69.1084 27.1579 68.5119 27.0506 67.9132 26.9591C67.3135 26.8676 66.7128 26.7908 66.11 26.7297C65.5061 26.6677 64.9022 26.6224 64.2972 26.5909C63.6912 26.5604 63.0852 26.5456 62.4792 26.5456C61.8732 26.5456 61.2672 26.5604 60.6623 26.5909C60.0563 26.6224 59.4524 26.6677 58.8495 26.7297C58.2456 26.7908 57.6449 26.8676 57.0452 26.9591C56.4466 27.0506 55.85 27.1579 55.2556 27.28C54.6622 27.402 54.072 27.5388 53.485 27.6903C52.8979 27.8428 52.315 28.0091 51.7375 28.1911C51.1588 28.372 50.5854 28.5677 50.0162 28.7792C49.4481 28.9896 48.8853 29.2137 48.3287 29.4536C47.7711 29.6924 47.2209 29.9449 46.6759 30.2121C46.132 30.4794 45.5954 30.7592 45.0651 31.0538C44.5349 31.3484 44.0131 31.6556 43.4986 31.9754C42.9841 32.2963 42.4781 32.6298 41.9804 32.976C41.4828 33.3221 40.9946 33.6809 40.5149 34.0522C40.0351 34.4236 39.5659 34.8066 39.1061 35.2011C38.6453 35.5956 38.1961 36.0017 37.7563 36.4194C37.3176 36.8371 36.8883 37.2653 36.4707 37.7051C36.3791 37.7871 36.2802 37.8587 36.175 37.9218C36.0688 37.9849 35.9583 38.0375 35.8426 38.0796C35.7279 38.1227 35.609 38.1533 35.488 38.1732C35.366 38.1932 35.2439 38.2017 35.1208 38.1985C34.9978 38.1953 34.8768 38.1806 34.7558 38.1543C34.6358 38.128 34.5191 38.0912 34.4065 38.0428C34.2929 37.9954 34.1855 37.9365 34.0835 37.8681C33.9804 37.7998 33.8857 37.723 33.7984 37.6367C33.71 37.5504 33.6322 37.4568 33.5617 37.3558C33.4922 37.2537 33.4323 37.1475 33.3818 37.0349C33.3323 36.9223 33.2934 36.8066 33.265 36.6867C33.2376 36.5667 33.2208 36.4457 33.2155 36.3226C33.2103 36.1995 33.2166 36.0775 33.2355 35.9555C33.2534 35.8345 33.2818 35.7156 33.3228 35.5988C33.3628 35.4831 33.4144 35.3715 33.4754 35.2653C33.5364 35.158 33.608 35.058 33.6879 34.9654C34.1508 34.4794 34.6264 34.0059 35.1124 33.5451C35.5995 33.0833 36.0982 32.6351 36.6074 32.1985C37.1177 31.7629 37.6374 31.34 38.1687 30.9297C38.7 30.5193 39.2408 30.1238 39.7921 29.7408C40.3434 29.3589 40.9042 28.9907 41.4733 28.6361C42.0436 28.2826 42.6212 27.9428 43.2082 27.6177C43.7953 27.2926 44.3897 26.9833 44.9925 26.6877C45.5954 26.3931 46.2045 26.1143 46.8221 25.8502C47.4386 25.5861 48.0615 25.3378 48.6906 25.1053C49.3198 24.8728 49.9542 24.6561 50.5949 24.4562C51.2346 24.2552 51.8795 24.0711 52.5297 23.9038C53.1788 23.7355 53.8322 23.584 54.4897 23.4493C55.1462 23.3147 55.8069 23.1968 56.4697 23.0958C57.1336 22.9938 57.7985 22.9096 58.4655 22.8423C59.1336 22.7739 59.8017 22.7234 60.4718 22.6897C61.142 22.6561 61.8122 22.6382 62.4834 22.6382C63.1536 22.6382 63.8248 22.6561 64.494 22.6897C65.1641 22.7234 65.8333 22.7739 66.5003 22.8423C67.1684 22.9096 67.8333 22.9938 68.4961 23.0958C69.16 23.1968 69.8196 23.3147 70.4772 23.4493C71.1337 23.584 71.787 23.7355 72.4372 23.9038C73.0863 24.0711 73.7313 24.2552 74.372 24.4562C75.0116 24.6561 75.646 24.8728 76.2762 25.1053C76.9054 25.3378 77.5282 25.5861 78.1447 25.8502C78.7613 26.1143 79.3715 26.3931 79.9733 26.6877C80.5761 26.9833 81.1705 27.2926 81.7576 27.6177C82.3447 27.9428 82.9233 28.2826 83.4925 28.6361C84.0627 28.9907 84.6235 29.3589 85.1737 29.7408C85.725 30.1238 86.2668 30.5193 86.7971 30.9297C87.3284 31.34 87.8492 31.7629 88.3584 32.1985C88.8686 32.6351 89.3663 33.0833 89.8534 33.5451C90.3405 34.0059 90.816 34.4794 91.2789 34.9654C91.4126 35.1033 91.5241 35.2569 91.6135 35.4273C91.7019 35.5977 91.764 35.7777 91.7997 35.967C91.8355 36.1554 91.8439 36.3458 91.8229 36.5373C91.8029 36.7287 91.7555 36.9129 91.6808 37.0896C91.6072 37.2674 91.5083 37.4294 91.3852 37.5778C91.2632 37.7261 91.1222 37.8534 90.9612 37.9607C90.8013 38.067 90.6298 38.148 90.4457 38.2038C90.2616 38.2595 90.0733 38.2879 89.8807 38.2879Z" fill="#423F91"/>
<path d="M93.7953 65.6887C93.667 65.6887 93.5397 65.6761 93.4134 65.6508C93.2872 65.6256 93.1651 65.5888 93.0462 65.5393C92.9274 65.4909 92.8148 65.4299 92.7085 65.3583C92.6012 65.2868 92.5023 65.2058 92.4118 65.1153C92.3203 65.0248 92.2393 64.9259 92.1678 64.8186C92.0962 64.7124 92.0362 64.5987 91.9868 64.4809C91.9384 64.362 91.9005 64.2389 91.8753 64.1137C91.8511 63.9875 91.8385 63.8602 91.8385 63.7318C91.8374 63.1742 91.8216 62.6177 91.789 62.0622C91.7564 61.5056 91.709 60.9512 91.6449 60.3978C91.5807 59.8444 91.5018 59.2931 91.406 58.7449C91.3114 58.1958 91.2009 57.6497 91.0746 57.1079C90.9484 56.565 90.8064 56.0264 90.6496 55.4919C90.4928 54.9574 90.3214 54.4283 90.1351 53.9033C89.9479 53.3783 89.7459 52.8596 89.5302 52.3462C89.3135 51.8328 89.083 51.3267 88.8369 50.8259C88.5917 50.3262 88.3329 49.8328 88.0594 49.3477C87.7869 48.8627 87.4997 48.3851 87.1998 47.9159C86.8989 47.4466 86.5854 46.9869 86.2593 46.5355C85.9331 46.0842 85.5933 45.6423 85.2419 45.211C84.8905 44.7785 84.5265 44.3567 84.1509 43.9453C83.7753 43.5339 83.3881 43.1341 82.9904 42.7449C82.5917 42.3556 82.1824 41.9779 81.7627 41.6118C81.3429 41.2456 80.9136 40.8911 80.4728 40.5502C80.033 40.2083 79.5838 39.879 79.1251 39.5634C78.6664 39.2467 78.1992 38.9447 77.7237 38.6544C77.2482 38.365 76.7642 38.0894 76.2729 37.8274C75.7805 37.5655 75.2818 37.3172 74.7768 37.0836C74.2708 36.85 73.7595 36.6312 73.2408 36.4261C72.7232 36.222 72.1992 36.0315 71.6711 35.8569C71.1419 35.6822 70.6085 35.5223 70.0698 35.3782C69.5322 35.234 68.9904 35.1046 68.4454 34.991C67.9004 34.8774 67.3523 34.7785 66.801 34.6964C66.2507 34.6133 65.6973 34.547 65.1429 34.4955C64.5884 34.445 64.0319 34.4092 63.4753 34.3892C62.9188 34.3703 62.3622 34.3661 61.8057 34.3787C61.2481 34.3903 60.6926 34.4187 60.1371 34.4618C59.5816 34.506 59.0282 34.5649 58.4758 34.6407C57.9245 34.7154 57.3743 34.8069 56.8283 34.9132C56.2812 35.0194 55.7383 35.1415 55.1975 35.2782C55.0724 35.314 54.945 35.3361 54.8146 35.3456C54.6841 35.355 54.5547 35.3508 54.4253 35.335C54.2959 35.3182 54.1697 35.2888 54.0466 35.2467C53.9224 35.2056 53.8046 35.152 53.692 35.0868C53.5784 35.0205 53.4732 34.9447 53.3753 34.8585C53.2785 34.7722 53.1902 34.6775 53.1113 34.5733C53.0324 34.4692 52.965 34.3577 52.9093 34.2409C52.8525 34.123 52.8083 34.001 52.7757 33.8748C52.7441 33.7485 52.7252 33.6201 52.7178 33.4897C52.7115 33.3592 52.7188 33.2298 52.7378 33.1015C52.7578 32.9721 52.7893 32.8469 52.8335 32.7238C52.8788 32.6017 52.9345 32.4839 53.0029 32.3734C53.0702 32.2619 53.1491 32.1588 53.2375 32.0631C53.3259 31.9673 53.4237 31.8811 53.5289 31.8053C53.6352 31.7285 53.7478 31.6643 53.8667 31.6096C53.9845 31.556 54.1076 31.5149 54.2349 31.4855C54.8472 31.3298 55.4627 31.1919 56.0824 31.071C56.702 30.95 57.3249 30.8469 57.9498 30.7616C58.5758 30.6764 59.2028 30.6091 59.832 30.5596C60.4611 30.5091 61.0913 30.4776 61.7226 30.4639C62.3538 30.4502 62.9851 30.4544 63.6163 30.4765C64.2465 30.4986 64.8767 30.5386 65.5048 30.5965C66.134 30.6543 66.7599 30.7301 67.3849 30.8237C68.0088 30.9173 68.6305 31.0278 69.2481 31.1572C69.8667 31.2856 70.4801 31.4318 71.0903 31.5959C71.6995 31.7601 72.3044 31.941 72.9031 32.1388C73.5027 32.3366 74.0961 32.5523 74.6832 32.7837C75.2702 33.0152 75.851 33.2635 76.4233 33.5286C76.9967 33.7937 77.5617 34.0746 78.1182 34.3713C78.6758 34.668 79.224 34.9815 79.7637 35.3087C80.3024 35.637 80.8326 35.981 81.3523 36.3387C81.8721 36.6975 82.3813 37.0699 82.8789 37.4571C83.3776 37.8443 83.8647 38.2451 84.3413 38.6607C84.8168 39.0752 85.2798 39.5034 85.7311 39.9442C86.1835 40.3861 86.6212 40.8395 87.0473 41.3056C87.4723 41.7717 87.8847 42.2504 88.2835 42.7396C88.6812 43.2299 89.0662 43.7296 89.4355 44.242C89.8058 44.7533 90.1604 45.2751 90.5013 45.8064C90.8411 46.3377 91.1662 46.8785 91.4755 47.4287C91.7848 47.979 92.0783 48.5376 92.3561 49.1047C92.6338 49.6718 92.8958 50.2462 93.1409 50.828C93.3861 51.4098 93.6144 51.9979 93.8258 52.5924C94.0373 53.1868 94.2319 53.7875 94.4097 54.3935C94.5875 54.9985 94.7475 55.6097 94.8895 56.2242C95.0326 56.8386 95.1578 57.4572 95.2651 58.08C95.3735 58.7018 95.4629 59.3257 95.5355 59.9527C95.607 60.5808 95.6617 61.2089 95.6975 61.8391C95.7343 62.4693 95.7522 63.1006 95.7522 63.7318C95.7522 63.8602 95.7406 63.9875 95.7154 64.1137C95.6901 64.2389 95.6533 64.362 95.6039 64.4809C95.5544 64.5987 95.4944 64.7124 95.4229 64.8186C95.3514 64.9259 95.2703 65.0248 95.1799 65.1153C95.0883 65.2058 94.9894 65.2868 94.8832 65.3583C94.7759 65.4299 94.6633 65.4909 94.5444 65.5393C94.4255 65.5888 94.3035 65.6256 94.1772 65.6508C94.051 65.6761 93.9237 65.6887 93.7953 65.6887Z" fill="#423F91"/>
<mask id="mask3_125_2497" style="mask-type:luminance" maskUnits="userSpaceOnUse" x="29" y="34" width="20" height="32">
<path d="M29.0482 34.6626H48.8979V65.9053H29.0482V34.6626Z" fill="white"/>
</mask>
<g mask="url(#mask3_125_2497)">
<path d="M31.1627 65.6885H31.1395C31.0112 65.6864 30.8839 65.6716 30.7576 65.6443C30.6324 65.618 30.5104 65.578 30.3925 65.5275C30.2747 65.476 30.1632 65.4139 30.0569 65.3413C29.9517 65.2676 29.8539 65.1856 29.7644 65.093C29.675 65.0004 29.5951 64.9005 29.5256 64.7921C29.4562 64.6848 29.3973 64.5712 29.3499 64.4512C29.3026 64.3313 29.2679 64.2093 29.2447 64.0819C29.2216 63.9557 29.211 63.8284 29.2132 63.7C29.2174 62.9773 29.2437 62.2545 29.2942 61.5328C29.3447 60.8121 29.4183 60.0924 29.5151 59.376C29.6119 58.6595 29.7318 57.9473 29.8749 57.2381C30.018 56.529 30.1832 55.8263 30.3715 55.1277C30.5609 54.4301 30.7713 53.7379 31.0049 53.054C31.2374 52.3691 31.493 51.6937 31.7697 51.0256C32.0464 50.3575 32.3452 49.6989 32.665 49.0498C32.9838 48.4017 33.3247 47.7641 33.6856 47.1371C34.0464 46.5101 34.4262 45.8956 34.8271 45.2938C35.2279 44.6921 35.6477 44.1039 36.0864 43.5284C36.5241 42.954 36.9817 42.3933 37.4562 41.8483C37.9307 41.3033 38.4231 40.773 38.9323 40.2596C39.4415 39.7462 39.9665 39.2496 40.5073 38.7699C41.0491 38.2901 41.6046 37.8293 42.1759 37.3853C42.7472 36.9424 43.3321 36.5174 43.9307 36.1113C44.5294 35.7062 45.1406 35.3201 45.7635 34.954C45.875 34.8887 45.9907 34.8351 46.1128 34.793C46.2338 34.7509 46.3579 34.7215 46.4852 34.7036C46.6125 34.6857 46.7409 34.6804 46.8692 34.6878C46.9976 34.6962 47.1238 34.7162 47.248 34.7488C47.3721 34.7804 47.4921 34.8246 47.6078 34.8814C47.7235 34.9371 47.8329 35.0045 47.935 35.0813C48.0381 35.1591 48.1317 35.2464 48.2169 35.3422C48.3022 35.4379 48.3779 35.5421 48.4431 35.6526C48.5084 35.763 48.561 35.8798 48.6041 36.0008C48.6462 36.1228 48.6756 36.247 48.6935 36.3743C48.7114 36.5016 48.7156 36.6289 48.7083 36.7572C48.7009 36.8856 48.6809 37.0118 48.6483 37.137C48.6157 37.2612 48.5715 37.3811 48.5157 37.4969C48.46 37.6126 48.3926 37.7209 48.3158 37.8241C48.238 37.9261 48.1507 38.0208 48.0549 38.106C47.9592 38.1912 47.8561 38.2659 47.7445 38.3312C45.5078 39.6431 43.4784 41.2212 41.6572 43.0676C40.9881 43.7515 40.3526 44.4659 39.7519 45.2097C39.1511 45.9546 38.5872 46.7257 38.0601 47.5243C37.533 48.3238 37.0459 49.1455 36.5977 49.9914C36.1495 50.8362 35.7434 51.701 35.3784 52.5858C35.0133 53.4706 34.6924 54.3702 34.4136 55.2855C34.1348 56.2008 33.9012 57.1277 33.7119 58.0651C33.5214 59.0035 33.3773 59.9483 33.2795 60.8994C33.1806 61.8515 33.1269 62.8058 33.1195 63.7621C33.1174 63.8894 33.1038 64.0157 33.0775 64.1398C33.0501 64.264 33.0122 64.3849 32.9617 64.5017C32.9123 64.6185 32.8513 64.73 32.7797 64.8352C32.7071 64.9394 32.6261 65.0372 32.5356 65.1267C32.4452 65.215 32.3463 65.295 32.24 65.3655C32.1337 65.4349 32.0222 65.4938 31.9044 65.5422C31.7865 65.5906 31.6656 65.6275 31.5404 65.6517C31.4162 65.6759 31.29 65.6885 31.1627 65.6885Z" fill="#423F91"/>
</g>
<path d="M33.981 83.3026C33.8958 83.3026 33.8116 83.2973 33.7264 83.2858C33.6422 83.2752 33.5591 83.2584 33.4771 83.2374C33.395 83.2153 33.314 83.1879 33.2361 83.1553C33.1572 83.1227 33.0804 83.0859 33.0068 83.0438C32.9331 83.0017 32.8626 82.9544 32.7953 82.9028C32.7269 82.8513 32.6627 82.7955 32.6028 82.7355C32.5418 82.6756 32.486 82.6124 32.4334 82.5451C32.3818 82.4778 32.3345 82.4073 32.2914 82.3336C32.2482 82.261 32.2104 82.1853 32.1767 82.1064C32.1441 82.0285 32.1167 81.9475 32.0936 81.8655C32.0715 81.7834 32.0536 81.7003 32.042 81.6161C32.0304 81.5319 32.0241 81.4478 32.0231 81.3626C32.022 81.2773 32.0273 81.1932 32.0378 81.108C32.0483 81.0238 32.0641 80.9407 32.0852 80.8586C32.1062 80.7755 32.1325 80.6955 32.1641 80.6166C32.1956 80.5377 32.2324 80.4609 32.2745 80.3862L33.374 78.4294C34.4944 76.2442 35.3624 73.9622 35.98 71.5855C36.5975 69.2078 36.9489 66.7923 37.0342 64.3377C37.0236 63.4845 37.0541 62.6323 37.1267 61.7822C37.1993 60.9322 37.314 60.0873 37.4708 59.2478C37.6265 58.4093 37.8232 57.5802 38.061 56.7596C38.2988 55.94 38.5765 55.1341 38.8932 54.3419C39.2099 53.5497 39.5655 52.7743 39.9589 52.0179C40.3524 51.2604 40.7827 50.5239 41.2488 49.8085C41.7138 49.0941 42.2146 48.4029 42.748 47.738C43.2825 47.072 43.8474 46.4334 44.445 45.8232C45.031 45.2267 45.6455 44.6596 46.2883 44.1241C46.9311 43.5875 47.5992 43.0857 48.2925 42.6154C48.9858 42.1462 49.7012 41.7127 50.4366 41.315C51.1731 40.9173 51.9274 40.5565 52.7007 40.2335C53.473 39.9115 54.2589 39.6275 55.0595 39.3834C55.8601 39.1393 56.6713 38.9352 57.4919 38.7721C58.3136 38.6091 59.1405 38.487 59.9738 38.406C60.807 38.325 61.6413 38.2861 62.4788 38.2882C63.3857 38.2892 64.2894 38.3376 65.19 38.4344C66.0916 38.5323 66.9849 38.6764 67.8707 38.8689C68.7566 39.0614 69.6298 39.3013 70.4894 39.5864C71.35 39.8726 72.1927 40.203 73.0175 40.5796C73.8423 40.9552 74.644 41.3739 75.4247 41.8358C76.2043 42.2977 76.9576 42.7995 77.6846 43.3413C78.4105 43.8831 79.1059 44.4628 79.7708 45.0794C80.4357 45.6948 81.0649 46.345 81.6604 47.0289C81.7498 47.1257 81.8287 47.2288 81.8971 47.3413C81.9655 47.4529 82.0223 47.5707 82.0675 47.6938C82.1117 47.8179 82.1443 47.9442 82.1633 48.0746C82.1833 48.2041 82.1896 48.3345 82.1822 48.466C82.1759 48.5965 82.1559 48.7259 82.1233 48.8532C82.0896 48.9805 82.0444 49.1025 81.9876 49.2204C81.9297 49.3392 81.8613 49.4497 81.7814 49.5539C81.7014 49.658 81.612 49.7538 81.5131 49.84C81.4131 49.9253 81.3069 50.001 81.1922 50.0662C81.0786 50.1304 80.9586 50.183 80.8334 50.2241C80.7093 50.2651 80.5809 50.2924 80.4505 50.3072C80.3211 50.3219 80.1896 50.324 80.0591 50.3124C79.9286 50.3019 79.8003 50.2777 79.674 50.2398C79.5478 50.203 79.4268 50.1536 79.3111 50.0925C79.1953 50.0305 79.0859 49.9579 78.9849 49.8748C78.8839 49.7916 78.7913 49.6991 78.7082 49.597C78.2053 49.0184 77.6719 48.4681 77.1101 47.9473C76.5472 47.4255 75.9591 46.9352 75.3447 46.4765C74.7292 46.0178 74.0927 45.5938 73.432 45.2035C72.7724 44.8121 72.0938 44.4586 71.3952 44.1409C70.6977 43.8221 69.9844 43.5423 69.2563 43.3013C68.5293 43.0594 67.7908 42.8563 67.0406 42.6943C66.2915 42.5312 65.5351 42.4081 64.7734 42.3261C64.0106 42.244 63.2458 42.203 62.4788 42.203C61.7707 42.1998 61.0637 42.2324 60.3578 42.3008C59.6529 42.3681 58.9522 42.4713 58.2578 42.6091C57.5624 42.7469 56.8764 42.9194 56.1979 43.1256C55.5203 43.3319 54.8543 43.5717 54.201 43.8442C53.5466 44.1178 52.908 44.4218 52.2852 44.7595C51.6613 45.0962 51.0563 45.4623 50.4693 45.86C49.8822 46.2566 49.3172 46.6827 48.7733 47.1362C48.2283 47.5896 47.7086 48.0694 47.212 48.5754C46.7081 49.092 46.2304 49.6317 45.7801 50.1956C45.3288 50.7585 44.9069 51.3424 44.5134 51.9474C44.1199 52.5523 43.757 53.1751 43.4245 53.8159C43.0921 54.4555 42.7922 55.111 42.5239 55.7812C42.2556 56.4513 42.021 57.1331 41.8201 57.8254C41.6191 58.5187 41.4529 59.2204 41.3203 59.9295C41.1878 60.6386 41.091 61.353 41.0289 62.0716C40.9668 62.7901 40.9405 63.5108 40.949 64.2325C40.8785 67.0279 40.4955 69.7802 39.8022 72.4893C39.1078 75.1984 38.121 77.796 36.8385 80.281L35.6833 82.3399C35.597 82.4872 35.4918 82.6219 35.3687 82.7418C35.2467 82.8628 35.1109 82.9649 34.9615 83.049C34.8122 83.1343 34.6543 83.1974 34.4881 83.2405C34.3219 83.2837 34.1525 83.3047 33.981 83.3026Z" fill="#423F91"/>
<path d="M89.6818 88.8219C89.4714 88.8219 89.2673 88.7893 89.0674 88.7241C88.8675 88.6589 88.6834 88.5631 88.5151 88.439C88.3457 88.3138 88.2016 88.1654 88.0795 87.995C87.9585 87.8235 87.868 87.6373 87.806 87.4363L85.5756 80.0623C84.5498 75.0365 84.0343 69.9602 84.029 64.8313L84.0048 63.7781C84.0122 61.3026 83.605 58.8965 82.7844 56.5608C82.7444 56.4399 82.717 56.3168 82.7023 56.1916C82.6865 56.0653 82.6834 55.9401 82.6918 55.8139C82.7013 55.6876 82.7223 55.5624 82.756 55.4404C82.7886 55.3183 82.8328 55.2005 82.8896 55.0869C82.9453 54.9733 83.0116 54.8659 83.0884 54.766C83.1652 54.665 83.2515 54.5724 83.3462 54.4893C83.4409 54.4051 83.5429 54.3304 83.6513 54.2663C83.7607 54.2021 83.8754 54.1495 83.9943 54.1074C84.1142 54.0653 84.2363 54.0348 84.3615 54.0169C84.4867 53.998 84.6129 53.9917 84.7392 53.998C84.8654 54.0043 84.9906 54.0222 85.1137 54.0527C85.2368 54.0832 85.3557 54.1253 85.4703 54.1789C85.585 54.2315 85.6934 54.2957 85.7954 54.3704C85.8985 54.4451 85.9922 54.5282 86.0785 54.6208C86.1647 54.7144 86.2415 54.8144 86.3078 54.9217C86.3751 55.029 86.4309 55.1426 86.4751 55.2605C87.4441 58.0012 87.927 60.8249 87.9238 63.7318L87.947 64.7534C87.9448 69.5741 88.4162 74.3484 89.3599 79.0754L91.564 86.2969C91.5861 86.3706 91.605 86.4442 91.6177 86.5189C91.6313 86.5947 91.6408 86.6704 91.6461 86.7462C91.6503 86.8219 91.6513 86.8987 91.6471 86.9745C91.6429 87.0502 91.6345 87.126 91.6208 87.2017C91.6082 87.2764 91.5903 87.3511 91.5693 87.4237C91.5472 87.4974 91.5219 87.5689 91.4914 87.6394C91.462 87.7088 91.4272 87.7772 91.3894 87.8435C91.3515 87.9098 91.3105 87.9729 91.2642 88.0339C91.2189 88.096 91.1705 88.1539 91.1179 88.2096C91.0653 88.2654 91.0106 88.318 90.9517 88.3664C90.8938 88.4158 90.8328 88.4611 90.7686 88.5032C90.7055 88.5452 90.6392 88.5831 90.5708 88.6178C90.5025 88.6515 90.433 88.682 90.3615 88.7083C90.2899 88.7346 90.2163 88.7556 90.1427 88.7735C90.068 88.7914 89.9933 88.804 89.9175 88.8125C89.8418 88.8219 89.766 88.8261 89.6892 88.8261L89.6818 88.8219Z" fill="#423F91"/>
<path d="M83.9739 97.8718C83.7645 97.8718 83.5604 97.8392 83.3616 97.774C83.1638 97.7088 82.9797 97.6141 82.8113 97.4899C82.643 97.3668 82.4978 97.2196 82.3768 97.0491C82.2558 96.8787 82.1643 96.6935 82.1022 96.4936L80.2937 90.6851C79.0102 86.3137 78.0244 81.8749 77.3352 77.3709C76.6472 72.868 76.2611 68.3378 76.18 63.7822C76.1758 63.333 76.1506 62.8859 76.1032 62.4398C76.0559 61.9937 75.9865 61.5508 75.896 61.111C75.8045 60.6712 75.6919 60.2367 75.5583 59.8085C75.4247 59.3803 75.27 58.9595 75.0954 58.546C74.9207 58.1326 74.725 57.7286 74.5104 57.3351C74.2958 56.9405 74.0622 56.5576 73.8097 56.1873C73.5572 55.8159 73.2879 55.4582 72.9996 55.1131C72.7124 54.768 72.4083 54.4387 72.0885 54.1241C71.7687 53.8085 71.4341 53.5108 71.0848 53.2288C70.7355 52.9468 70.3736 52.6828 69.998 52.4366C69.6235 52.1904 69.2363 51.9621 68.8386 51.7538C68.442 51.5455 68.0348 51.3571 67.6182 51.1888C67.2026 51.0205 66.7786 50.8732 66.3483 50.7469C65.918 50.6196 65.4825 50.5144 65.0416 50.4303C64.5998 50.3461 64.1558 50.284 63.7087 50.244C63.2626 50.2041 62.8144 50.1851 62.3651 50.1893C61.9159 50.1925 61.4688 50.2188 61.0227 50.2661C60.5766 50.3135 60.1337 50.3829 59.6939 50.4744C59.2541 50.566 58.8207 50.6785 58.3914 50.8122C57.9632 50.9458 57.5424 51.1004 57.1289 51.2761C56.7165 51.4508 56.3125 51.6465 55.918 51.8611C55.5245 52.0757 55.1415 52.3103 54.7702 52.5628C54.3998 52.8153 54.0411 53.0847 53.697 53.3729C53.3519 53.6601 53.0226 53.9642 52.7081 54.284C52.3935 54.6049 52.0947 54.9395 51.8138 55.2888C51.5318 55.6381 51.2678 56 51.0216 56.3756C50.7754 56.7512 50.5481 57.1373 50.3398 57.535C50.1315 57.9327 49.9432 58.3398 49.7759 58.7554C49.6076 59.172 49.4603 59.5949 49.333 60.0263C49.2067 60.4566 49.1015 60.8922 49.0174 61.333C48.9342 61.7749 48.8722 62.2188 48.8322 62.6649C48.7922 63.1121 48.7743 63.5603 48.7775 64.0095C48.6954 66.4409 48.4335 68.8533 47.9926 71.2457C47.5508 73.6392 46.9342 75.9864 46.1431 78.2873C45.3519 80.5882 44.3956 82.8176 43.2719 84.9765C42.1494 87.1343 40.8721 89.1985 39.4413 91.1669C39.3687 91.2721 39.2856 91.37 39.193 91.4594C39.1004 91.5478 39.0005 91.6277 38.8921 91.6972C38.7838 91.7666 38.6701 91.8255 38.5512 91.8718C38.4313 91.9192 38.3082 91.9549 38.182 91.977C38.0547 92.0002 37.9274 92.0107 37.799 92.0086C37.6706 92.0065 37.5433 91.9918 37.4181 91.9644C37.2919 91.937 37.1709 91.8981 37.052 91.8466C36.9342 91.795 36.8227 91.7329 36.7175 91.6593C36.6112 91.5867 36.5144 91.5036 36.425 91.411C36.3356 91.3184 36.2556 91.2185 36.1862 91.1101C36.1167 91.0017 36.0589 90.8881 36.0115 90.7692C35.9642 90.6493 35.9294 90.5262 35.9063 90.3999C35.8832 90.2737 35.8726 90.1453 35.8758 90.017C35.8779 89.8886 35.8926 89.7613 35.92 89.6361C35.9463 89.5099 35.9863 89.3889 36.0368 89.2711C36.0883 89.1532 36.1504 89.0407 36.224 88.9354C37.5328 87.1311 38.7027 85.2405 39.7338 83.2637C40.7648 81.2879 41.6465 79.2468 42.3787 77.1405C43.1099 75.0353 43.6844 72.888 44.101 70.6976C44.5166 68.5082 44.7712 66.2988 44.8637 64.0716C44.8606 63.7833 44.8648 63.495 44.8764 63.2078C44.8879 62.9195 44.9058 62.6313 44.9311 62.3451C44.9574 62.0579 44.99 61.7707 45.0289 61.4855C45.0689 61.2004 45.1152 60.9153 45.1688 60.6323C45.2225 60.3493 45.2825 60.0673 45.3498 59.7864C45.4171 59.5066 45.4918 59.2278 45.5728 58.9511C45.6539 58.6744 45.7412 58.3998 45.8359 58.1283C45.9306 57.8559 46.0316 57.5855 46.1389 57.3182C46.2472 57.051 46.3609 56.7859 46.4818 56.525C46.6028 56.263 46.7301 56.0042 46.8627 55.7485C46.9963 55.4929 47.1362 55.2404 47.2825 54.9921C47.4277 54.7438 47.5792 54.4987 47.738 54.2577C47.8958 54.0158 48.0589 53.779 48.2283 53.5455C48.3977 53.3119 48.5734 53.0836 48.7543 52.8585C48.9342 52.6344 49.1205 52.4145 49.3119 52.1988C49.5034 51.9831 49.7002 51.7727 49.9022 51.5665C50.1042 51.3613 50.3114 51.1604 50.5229 50.9647C50.7344 50.769 50.9511 50.5786 51.172 50.3934C51.393 50.2083 51.6192 50.0294 51.8485 49.8548C52.0789 49.6812 52.3125 49.5128 52.5503 49.3508C52.7891 49.1877 53.0311 49.032 53.2762 48.8805C53.5224 48.7301 53.7717 48.5859 54.0253 48.4471C54.2778 48.3093 54.5334 48.1767 54.7933 48.0515C55.0532 47.9252 55.3151 47.8064 55.5803 47.6938C55.8454 47.5802 56.1137 47.4739 56.3841 47.3739C56.6544 47.2751 56.9269 47.1814 57.2026 47.0951C57.4772 47.0089 57.7549 46.9289 58.0337 46.8563C58.3125 46.7837 58.5934 46.7185 58.8754 46.6596C59.1573 46.5996 59.4414 46.5481 59.7255 46.5028C60.0106 46.4576 60.2957 46.4197 60.5829 46.3892C60.8691 46.3576 61.1563 46.3334 61.4446 46.3166C61.7318 46.2998 62.0201 46.2903 62.3083 46.2871C62.5966 46.285 62.8849 46.2893 63.1731 46.2998C63.4614 46.3113 63.7486 46.3303 64.0359 46.3555C64.3231 46.3808 64.6092 46.4134 64.8954 46.4534C65.1805 46.4923 65.4656 46.5386 65.7486 46.5923C66.0317 46.6459 66.3136 46.7069 66.5935 46.7743C66.8744 46.8416 67.1532 46.9152 67.4299 46.9963C67.7066 47.0773 67.9801 47.1656 68.2526 47.2593C68.5251 47.354 68.7955 47.455 69.0627 47.5633C69.3299 47.6706 69.5951 47.7853 69.856 47.9053C70.118 48.0262 70.3768 48.1535 70.6324 48.2872C70.8881 48.4208 71.1406 48.5596 71.3889 48.7059C71.6372 48.8521 71.8823 49.0036 72.1243 49.1614C72.3652 49.3193 72.6019 49.4823 72.8355 49.6528C73.069 49.8221 73.2973 49.9968 73.5225 50.1778C73.7466 50.3587 73.9665 50.5449 74.1821 50.7364C74.3978 50.9279 74.6082 51.1246 74.8144 51.3256C75.0207 51.5276 75.2206 51.7348 75.4162 51.9463C75.6119 52.1578 75.8024 52.3745 75.9875 52.5954C76.1727 52.8164 76.3526 53.0426 76.5262 53.2719C76.6998 53.5023 76.8681 53.7359 77.0312 53.9737C77.1932 54.2125 77.35 54.4545 77.5004 54.6996C77.6509 54.9458 77.7961 55.1951 77.9339 55.4487C78.0728 55.7012 78.2043 55.9568 78.3305 56.2167C78.4557 56.4755 78.5756 56.7385 78.6882 57.0037C78.8008 57.2688 78.9071 57.5371 79.007 57.8075C79.1069 58.0778 79.1995 58.3503 79.2858 58.626C79.3731 58.9006 79.452 59.1773 79.5246 59.4561C79.5972 59.7359 79.6635 60.0158 79.7224 60.2977C79.7813 60.5808 79.8339 60.8638 79.8781 61.1489C79.9234 61.4329 79.9612 61.7191 79.9928 62.0053C80.0233 62.2925 80.0475 62.5797 80.0643 62.8669C80.0812 63.1552 80.0917 63.4435 80.0938 63.7317C80.2537 72.4998 81.5699 81.0922 84.0402 89.5067L85.8529 95.3311C85.8908 95.4542 85.9171 95.5794 85.9297 95.7067C85.9434 95.835 85.9444 95.9623 85.9329 96.0907C85.9213 96.219 85.8971 96.3442 85.8603 96.4673C85.8245 96.5904 85.7761 96.7093 85.7161 96.8229C85.6562 96.9365 85.5857 97.0439 85.5057 97.1438C85.4247 97.2438 85.3342 97.3342 85.2353 97.4173C85.1375 97.4994 85.0312 97.5709 84.9187 97.632C84.805 97.694 84.6872 97.7435 84.5652 97.7814C84.3726 97.8424 84.1748 97.8729 83.9739 97.8718Z" fill="#423F91"/>
<path d="M54.685 108.745C54.503 108.745 54.3252 108.721 54.1506 108.672C53.9749 108.621 53.8108 108.548 53.6561 108.454C53.5015 108.358 53.3626 108.243 53.2405 108.109C53.1174 107.975 53.0154 107.827 52.9344 107.664C52.8534 107.502 52.7955 107.33 52.7618 107.152C52.7282 106.974 52.7198 106.794 52.7355 106.613C52.7524 106.432 52.7924 106.256 52.8576 106.087C52.9228 105.917 53.0101 105.759 53.1195 105.614C54.2937 104.135 55.4078 102.612 56.4599 101.043C57.512 99.4753 58.4988 97.8667 59.4215 96.2191C60.3442 94.5705 61.1985 92.8882 61.9855 91.1712C62.7724 89.4542 63.4889 87.7088 64.1349 85.9339C64.7808 84.1591 65.3553 82.3611 65.8561 80.541C66.3569 78.7198 66.784 76.8818 67.1375 75.0259C67.49 73.1711 67.7677 71.3047 67.9708 69.4268C68.1728 67.5488 68.3001 65.6666 68.3506 63.7781C68.3516 63.5856 68.3432 63.3941 68.3253 63.2026C68.3074 63.0112 68.2801 62.8207 68.2432 62.6324C68.2064 62.443 68.1601 62.2568 68.1054 62.0727C68.0507 61.8886 67.9865 61.7066 67.9139 61.5288C67.8403 61.351 67.7593 61.1763 67.6699 61.0069C67.5794 60.8365 67.4815 60.6713 67.3753 60.5114C67.269 60.3504 67.1554 60.1958 67.0333 60.0464C66.9124 59.897 66.784 59.755 66.6483 59.6182C66.5136 59.4814 66.3716 59.352 66.2232 59.2289C66.0749 59.1069 65.9213 58.9911 65.7614 58.8838C65.6025 58.7765 65.4373 58.6766 65.268 58.585C65.0996 58.4946 64.926 58.4114 64.7482 58.3367C64.5704 58.262 64.3905 58.1968 64.2064 58.14C64.0223 58.0842 63.8361 58.0369 63.6477 57.998C63.4594 57.9601 63.269 57.9306 63.0786 57.9117C62.8871 57.8917 62.6946 57.8812 62.502 57.8801C62.3105 57.8801 62.118 57.8886 61.9265 57.9064C61.7351 57.9243 61.5446 57.9517 61.3563 57.9885C61.1669 58.0253 60.9807 58.0716 60.7966 58.1263C60.6125 58.1821 60.4305 58.2463 60.2527 58.3189C60.0749 58.3915 59.9013 58.4735 59.7308 58.5629C59.5604 58.6534 59.3952 58.7513 59.2353 58.8575C59.0754 58.9638 58.9207 59.0774 58.7713 59.1995C58.6219 59.3204 58.4789 59.4488 58.3421 59.5845C58.2064 59.7202 58.077 59.8623 57.9539 60.0106C57.8308 60.159 57.7161 60.3126 57.6088 60.4725C57.5015 60.6313 57.4015 60.7965 57.311 60.9648C57.2195 61.1342 57.1364 61.3078 57.0628 61.4856C56.9881 61.6624 56.9228 61.8433 56.866 62.0275C56.8092 62.2116 56.7619 62.3978 56.724 62.5861C56.6861 62.7744 56.6567 62.9649 56.6377 63.1563C56.6177 63.3468 56.6083 63.5393 56.6072 63.7318C56.563 65.2984 56.4557 66.8607 56.2842 68.4189C56.1127 69.977 55.8781 71.5257 55.5814 73.0638C55.2847 74.603 54.9249 76.1275 54.5041 77.6372C54.0833 79.147 53.6014 80.6378 53.0585 82.1075C52.5167 83.5783 51.9149 85.0249 51.2553 86.4463C50.5956 87.8677 49.8791 89.2606 49.1059 90.6241C48.3326 91.9876 47.5046 93.3175 46.624 94.6136C45.7423 95.9098 44.8102 97.1681 43.8265 98.3885C43.7465 98.4885 43.6592 98.5789 43.5624 98.661C43.4656 98.7441 43.3615 98.8157 43.251 98.8777C43.1395 98.9408 43.0238 98.9913 42.9028 99.0313C42.7818 99.0703 42.6587 99.0976 42.5324 99.1134C42.4062 99.1292 42.2799 99.1323 42.1526 99.1229C42.0264 99.1134 41.9012 99.0924 41.7781 99.0587C41.656 99.0261 41.5372 98.9808 41.4235 98.924C41.3099 98.8672 41.2026 98.8009 41.1016 98.7231C41.0006 98.6452 40.908 98.5589 40.8239 98.4643C40.7407 98.3685 40.666 98.2654 40.6019 98.156C40.5387 98.0455 40.4851 97.9309 40.444 97.8109C40.402 97.691 40.3725 97.5679 40.3557 97.4416C40.3378 97.3154 40.3325 97.1891 40.3399 97.0618C40.3462 96.9356 40.3662 96.8104 40.3967 96.6873C40.4283 96.5642 40.4714 96.4453 40.5261 96.3296C40.5808 96.2149 40.646 96.1065 40.7218 96.0045C41.6329 94.8682 42.4977 93.6973 43.3152 92.4916C44.1327 91.2869 44.9007 90.0507 45.6192 88.784C46.3378 87.5163 47.0048 86.2233 47.6203 84.9029C48.2347 83.5825 48.7965 82.2401 49.3047 80.8745C49.8118 79.5099 50.2642 78.1264 50.6608 76.7251C51.0585 75.3237 51.3983 73.9086 51.6824 72.4799C51.9654 71.0512 52.1916 69.614 52.361 68.1674C52.5293 66.7208 52.6398 65.2689 52.6924 63.8139C52.6913 63.493 52.7061 63.1732 52.7355 62.8544C52.766 62.5356 52.8113 62.2179 52.8723 61.9033C52.9333 61.5887 53.0101 61.2784 53.1017 60.9712C53.1942 60.664 53.3005 60.362 53.4215 60.0653C53.5435 59.7686 53.6793 59.4793 53.8287 59.1963C53.9791 58.9122 54.1422 58.6376 54.3189 58.3704C54.4957 58.1032 54.6861 57.8454 54.8881 57.5961C55.0901 57.3478 55.3037 57.11 55.5299 56.8817C55.7561 56.6545 55.9917 56.4388 56.239 56.2347C56.4852 56.0295 56.7419 55.838 57.008 55.6592C57.2732 55.4793 57.5478 55.3141 57.8297 55.1616C58.1117 55.009 58.4 54.8712 58.6956 54.747C58.9912 54.6239 59.2921 54.5145 59.5983 54.4198C59.9055 54.3262 60.2148 54.2462 60.5294 54.1831C60.8439 54.1189 61.1596 54.0705 61.4783 54.0379C61.7971 54.0053 62.117 53.9885 62.4379 53.9864C62.7587 53.9853 63.0786 54.0001 63.3974 54.0295C63.7161 54.06 64.0328 54.1053 64.3474 54.1673C64.662 54.2284 64.9734 54.3041 65.2806 54.3967C65.5878 54.4882 65.8897 54.5945 66.1864 54.7165C66.4831 54.8375 66.7724 54.9732 67.0554 55.1226C67.3395 55.2731 67.6141 55.4362 67.8813 55.6129C68.1486 55.7897 68.4074 55.9801 68.6557 56.1821C68.904 56.3841 69.1428 56.5987 69.37 56.8238C69.5973 57.05 69.813 57.2857 70.0181 57.533C70.2222 57.7802 70.4137 58.0358 70.5936 58.302C70.7725 58.5672 70.9376 58.8417 71.0902 59.1237C71.2427 59.4057 71.3806 59.6939 71.5047 59.9896C71.6289 60.2852 71.7372 60.5861 71.8319 60.8923C71.9266 61.1984 72.0055 61.5088 72.0697 61.8233C72.1328 62.1369 72.1812 62.4535 72.2138 62.7723C72.2464 63.0911 72.2643 63.4109 72.2654 63.7318C72.2159 65.7266 72.0855 67.7161 71.875 69.7003C71.6646 71.6856 71.3753 73.6582 71.006 75.6193C70.6357 77.5804 70.1885 79.5236 69.6625 81.4489C69.1354 83.3732 68.5326 85.2743 67.8529 87.1502C67.1733 89.0271 66.4189 90.8724 65.5909 92.6883C64.7619 94.5042 63.8613 96.2833 62.8892 98.0255C61.9171 99.7688 60.8766 101.469 59.7666 103.128C58.6567 104.787 57.4825 106.399 56.2432 107.962C56.0591 108.208 55.8297 108.399 55.5562 108.537C55.2816 108.675 54.9923 108.744 54.685 108.745Z" fill="#423F91"/>
<path d="M61.8372 73.5173C61.732 73.5173 61.6279 73.5089 61.5237 73.4942C61.3964 73.4732 61.2733 73.4405 61.1523 73.3964C61.0324 73.3522 60.9167 73.2954 60.8073 73.228C60.6978 73.1607 60.5958 73.0839 60.5011 72.9966C60.4075 72.9092 60.3222 72.8135 60.2465 72.7093C60.1718 72.6052 60.1066 72.4947 60.0529 72.3779C59.9993 72.2601 59.9582 72.1391 59.9277 72.015C59.8983 71.8898 59.8804 71.7625 59.8762 71.6341C59.8709 71.5058 59.8793 71.3774 59.8993 71.2512C60.3296 68.7903 60.5358 66.3116 60.5179 63.814C60.5127 63.6856 60.519 63.5583 60.539 63.431C60.559 63.3048 60.5905 63.1806 60.6337 63.0596C60.6779 62.9397 60.7336 62.824 60.7999 62.7146C60.8662 62.6051 60.943 62.5031 61.0292 62.4084C61.1166 62.3137 61.2113 62.2285 61.3154 62.1517C61.4185 62.0759 61.5279 62.0107 61.6447 61.9571C61.7604 61.9023 61.8814 61.8592 62.0056 61.8287C62.1308 61.7982 62.257 61.7803 62.3854 61.774C62.5148 61.7635 62.6431 61.7645 62.7726 61.7803C62.902 61.7961 63.0272 61.8245 63.1502 61.8666C63.2733 61.9076 63.3912 61.9613 63.5027 62.0275C63.6142 62.0938 63.7184 62.1706 63.8141 62.2579C63.9099 62.3453 63.9961 62.4421 64.0719 62.5473C64.1476 62.6525 64.2118 62.7651 64.2644 62.8839C64.317 63.0028 64.357 63.1249 64.3833 63.2522C64.4106 63.3795 64.4243 63.5078 64.4243 63.6372C64.4633 66.3979 64.2444 69.1386 63.7668 71.8572C63.7489 71.9718 63.7215 72.0844 63.6847 72.1938C63.6468 72.3032 63.6005 72.4084 63.5437 72.5094C63.488 72.6104 63.4227 72.7062 63.3501 72.7956C63.2765 72.8861 63.1965 72.9682 63.1082 73.0439C63.0208 73.1197 62.9272 73.187 62.8273 73.2459C62.7273 73.3038 62.6242 73.3543 62.5148 73.3943C62.4064 73.4342 62.296 73.4647 62.1813 73.4858C62.0677 73.5068 61.953 73.5173 61.8372 73.5173Z" fill="#423F91"/>
<path d="M47.6035 105.039C47.4194 105.039 47.2384 105.013 47.0617 104.963C46.8839 104.911 46.7176 104.837 46.5619 104.739C46.4052 104.641 46.2663 104.523 46.1432 104.386C46.0201 104.249 45.9191 104.097 45.8392 103.931C45.7592 103.765 45.7034 103.591 45.6729 103.409C45.6424 103.227 45.6372 103.045 45.6582 102.862C45.6782 102.679 45.7245 102.502 45.795 102.332C45.8655 102.161 45.958 102.005 46.0727 101.86C48.8145 98.4611 51.2027 94.8283 53.2364 90.964C55.2711 87.0997 56.9134 83.0755 58.1654 78.8913C58.2032 78.7703 58.2527 78.6535 58.3127 78.541C58.3737 78.4295 58.4442 78.3242 58.5252 78.2264C58.6062 78.1286 58.6967 78.0391 58.7945 77.9581C58.8934 77.8782 58.9986 77.8077 59.1112 77.7477C59.2238 77.6877 59.3405 77.6393 59.4626 77.6025C59.5836 77.5646 59.7077 77.5394 59.835 77.5268C59.9613 77.5141 60.0875 77.5131 60.2148 77.5247C60.3411 77.5373 60.4652 77.5604 60.5873 77.5973C60.7093 77.633 60.8271 77.6804 60.9397 77.7393C61.0523 77.7982 61.1585 77.8676 61.2585 77.9465C61.3574 78.0265 61.4479 78.1149 61.5299 78.2127C61.612 78.3095 61.6835 78.4137 61.7456 78.5252C61.8077 78.6367 61.8582 78.7524 61.8971 78.8734C61.936 78.9955 61.9623 79.1186 61.9781 79.2448C61.9928 79.3711 61.995 79.4984 61.9855 79.6246C61.975 79.7519 61.9529 79.8761 61.9192 79.9992C60.5967 84.4274 58.8597 88.6852 56.7082 92.7757C54.5557 96.8651 52.0307 100.708 49.1301 104.306C48.9449 104.538 48.7177 104.718 48.4504 104.846C48.1832 104.975 47.9002 105.039 47.6035 105.039Z" fill="#423F91"/>
<path d="M63.9434 108.745C63.7677 108.746 63.5952 108.723 63.4258 108.677C63.2564 108.63 63.0965 108.562 62.945 108.473C62.7935 108.384 62.6567 108.276 62.5347 108.15C62.4127 108.023 62.3096 107.883 62.2254 107.73C62.1402 107.576 62.0781 107.413 62.0371 107.243C61.996 107.072 61.9792 106.899 61.9845 106.724C61.9908 106.548 62.0192 106.377 62.0718 106.209C62.1233 106.041 62.197 105.883 62.2906 105.735C65.8435 99.8802 68.9756 93.8076 71.6857 87.5183C71.7615 87.331 71.8646 87.1606 71.995 87.0059C72.1244 86.8523 72.2759 86.7218 72.4474 86.6166C72.62 86.5114 72.8041 86.4346 72.9998 86.3883C73.1965 86.342 73.3954 86.3273 73.5963 86.3441C73.7972 86.3557 73.9929 86.3978 74.1813 86.4693C74.3696 86.5409 74.5432 86.6398 74.701 86.765C74.8588 86.8902 74.9945 87.0364 75.1071 87.2037C75.2197 87.371 75.3049 87.5519 75.3617 87.7455C75.3617 87.7455 76.2423 90.7324 77.1818 93.5341L79.5311 101.034C79.569 101.157 79.5953 101.283 79.609 101.41C79.6237 101.538 79.6247 101.667 79.6132 101.794C79.6016 101.922 79.5784 102.049 79.5416 102.172C79.5059 102.295 79.4585 102.414 79.3985 102.528C79.3386 102.642 79.2691 102.749 79.1881 102.849C79.1071 102.949 79.0177 103.041 78.9198 103.124C78.8209 103.206 78.7147 103.278 78.6021 103.341C78.4895 103.402 78.3717 103.452 78.2486 103.491C78.1255 103.529 78.0003 103.555 77.873 103.569C77.7447 103.583 77.6174 103.585 77.489 103.573C77.3607 103.561 77.2344 103.538 77.1113 103.502C76.9882 103.466 76.8693 103.417 76.7547 103.358C76.641 103.298 76.5337 103.229 76.4338 103.148C76.3338 103.067 76.2423 102.978 76.1592 102.879C76.0771 102.781 76.0045 102.675 75.9424 102.562C75.8814 102.449 75.8309 102.332 75.792 102.208L73.4437 94.744C73.3375 94.4347 73.2323 94.1222 73.1302 93.8087C70.904 98.6356 68.3969 103.313 65.611 107.841C65.5216 107.981 65.4164 108.108 65.2943 108.221C65.1733 108.334 65.0397 108.429 64.8935 108.508C64.7483 108.588 64.5947 108.647 64.4337 108.687C64.2727 108.727 64.1086 108.747 63.9434 108.745Z" fill="#423F91"/>
<circle cx="62.4995" cy="62.0002" r="55.5657" stroke="#DFDFDF" stroke-width="5"/>
<path fill-rule="evenodd" clip-rule="evenodd" d="M115.398 57.7568C113.236 30.4335 90.3783 8.93457 62.4993 8.93457C33.1919 8.93457 9.43359 32.6929 9.43359 62.0002C9.43359 91.1417 32.9236 114.797 62.002 115.064V120.064C30.1621 119.797 4.43359 93.9031 4.43359 62.0002C4.43359 29.9315 30.4305 3.93457 62.4993 3.93457C93.141 3.93457 118.239 27.6692 120.412 57.7568H115.398Z" fill="url(#paint0_linear_125_2497)"/>
</g>
<defs>
<linearGradient id="paint0_linear_125_2497" x1="116.254" y1="-14.6722" x2="62.4229" y2="120.064" gradientUnits="userSpaceOnUse">
<stop stop-color="#423F91"/>
<stop offset="1" stop-color="#4641CD"/>
</linearGradient>
<clipPath id="clip0_125_2497">
<rect width="123" height="123" fill="white" transform="translate(0 0.5)"/>
</clipPath>
</defs>
</svg>
