<svg width="18" height="21" viewBox="0 0 18 21" fill="none" xmlns="http://www.w3.org/2000/svg">
<path d="M9.875 0.75V4.75C9.875 5.01522 9.98036 5.26957 10.1679 5.45711C10.3554 5.64464 10.6098 5.75 10.875 5.75H14.875" stroke="#423F91" stroke-width="1.5" stroke-linecap="round" stroke-linejoin="round"/>
<path fill-rule="evenodd" clip-rule="evenodd" d="M1.99112 1.86612C2.22554 1.6317 2.54348 1.5 2.875 1.5H9.56434L14.125 6.06066V9.88039C14.6541 9.99252 15.1575 10.1744 15.625 10.4159V5.75C15.625 5.55109 15.546 5.36032 15.4053 5.21967L10.4053 0.21967C10.2647 0.0790176 10.0739 0 9.875 0H2.875C2.14565 0 1.44618 0.289731 0.930456 0.805456C0.414731 1.32118 0.125 2.02065 0.125 2.75V16.75C0.125 17.4793 0.414731 18.1788 0.930456 18.6945C1.44618 19.2103 2.14565 19.5 2.875 19.5H8.19097C7.82929 19.0488 7.53144 18.5442 7.31114 18H2.875C2.54348 18 2.22554 17.8683 1.99112 17.6339C1.7567 17.3995 1.625 17.0815 1.625 16.75V2.75C1.625 2.41848 1.7567 2.10054 1.99112 1.86612Z" fill="#423F91"/>
<circle cx="12.875" cy="15.75" r="4.5" stroke="#423F91"/>
<path d="M10.875 16.55L12.0179 17.75L14.875 14.75" stroke="#423F91" stroke-linecap="round" stroke-linejoin="round"/>
</svg>
