<svg width="43" height="42" viewBox="0 0 43 42" fill="none" xmlns="http://www.w3.org/2000/svg">
<g clip-path="url(#clip0_125_2273)">
<path d="M4.21103 10.5993H1.66217V2.5424C1.66217 1.03673 2.80505 -0.181152 4.21103 -0.181152H11.7554V2.5424H4.21103V10.5993Z" fill="white"/>
<path d="M41.3 10.5993H38.7517V2.5424H31.2079V-0.181152H38.7517C40.1582 -0.181152 41.3 1.03673 41.3 2.5424V10.5993Z" fill="white"/>
<path d="M11.7554 42.1645H4.21103C2.80338 42.1645 1.66217 40.9437 1.66217 39.4439V31.3823H4.21103V39.4439H11.7554V42.1645Z" fill="white"/>
<path d="M38.7517 42.1645H31.2079V39.4439H38.7517V31.3823H41.3V39.4439C41.3 40.9437 40.1566 42.1645 38.7517 42.1645Z" fill="white"/>
<path d="M6.88406 6.05413V16.9648C6.88406 17.0044 6.88785 17.044 6.89505 17.0828C6.90225 17.122 6.91286 17.16 6.92688 17.1967C6.94128 17.2335 6.95833 17.2682 6.97879 17.3013C6.99963 17.3343 7.02274 17.365 7.04889 17.3931C7.07503 17.4213 7.10345 17.4466 7.13414 17.4687C7.16483 17.4907 7.19742 17.5095 7.23152 17.5246C7.26562 17.5397 7.30086 17.5516 7.33686 17.5593C7.37323 17.5671 7.40961 17.5708 7.44674 17.5708H17.5711C17.6082 17.5708 17.6446 17.5671 17.681 17.5593C17.7174 17.5516 17.7522 17.5397 17.7863 17.5246C17.8204 17.5095 17.853 17.4907 17.8837 17.4687C17.9144 17.4466 17.9428 17.4213 17.969 17.3931C17.9951 17.365 18.0182 17.3343 18.0387 17.3013C18.0591 17.2682 18.0766 17.2335 18.0906 17.1967C18.105 17.16 18.1156 17.122 18.1228 17.0828C18.13 17.044 18.1334 17.0044 18.1334 16.9648V6.05413C18.1334 6.01411 18.13 5.97491 18.1228 5.93571C18.1156 5.89692 18.105 5.85895 18.091 5.8222C18.0766 5.78545 18.0595 5.75033 18.0391 5.71725C18.0182 5.68418 17.9951 5.65355 17.969 5.62538C17.9428 5.5972 17.9144 5.5723 17.8837 5.54984C17.853 5.52779 17.8208 5.509 17.7863 5.4939C17.7522 5.47879 17.7174 5.46735 17.681 5.4596C17.6446 5.45184 17.6082 5.44775 17.5711 5.44775H7.44674C7.40961 5.44775 7.37323 5.45184 7.33686 5.4596C7.30048 5.46735 7.26562 5.47879 7.23152 5.4939C7.19704 5.509 7.16483 5.52779 7.13414 5.54984C7.10345 5.57189 7.07503 5.5972 7.04889 5.62538C7.02274 5.65355 6.99925 5.68418 6.97879 5.71725C6.95833 5.75033 6.9409 5.78545 6.92688 5.8222C6.91286 5.85895 6.90187 5.89692 6.89467 5.93571C6.88747 5.97491 6.88406 6.01411 6.88406 6.05413ZM8.00942 6.6601H17.0088V16.3588H8.00942V6.6601Z" fill="white"/>
<path d="M15.3212 7.87256H9.69668C9.65992 7.87256 9.62317 7.87664 9.5868 7.8844C9.5508 7.89216 9.51556 7.90359 9.48146 7.9187C9.44736 7.93381 9.41477 7.95259 9.38408 7.97464C9.35339 7.99669 9.32497 8.02201 9.29883 8.05018C9.27268 8.07795 9.24957 8.10858 9.22873 8.14165C9.20827 8.17513 9.19122 8.20984 9.17682 8.24659C9.1628 8.28334 9.15219 8.32132 9.14499 8.36052C9.13779 8.39931 9.134 8.43892 9.134 8.47853V14.5402C9.134 14.5802 9.13779 14.6194 9.14499 14.6586C9.15219 14.6978 9.1628 14.7354 9.17682 14.7722C9.19122 14.8089 9.20827 14.844 9.22873 14.8771C9.24957 14.9102 9.27268 14.9408 9.29883 14.969C9.32497 14.9972 9.35339 15.0221 9.38408 15.0441C9.41477 15.0666 9.44736 15.0849 9.48146 15.1001C9.51556 15.1156 9.5508 15.127 9.5868 15.1348C9.62317 15.1425 9.65992 15.1462 9.69668 15.1462H15.3212C15.3583 15.1462 15.3947 15.1425 15.431 15.1348C15.467 15.127 15.5023 15.1156 15.5364 15.1001C15.5705 15.0849 15.6031 15.0662 15.6338 15.0441C15.6645 15.0221 15.6929 14.9972 15.719 14.969C15.7452 14.9408 15.7683 14.9102 15.7887 14.8771C15.8096 14.844 15.8266 14.8089 15.841 14.7722C15.855 14.7354 15.8657 14.6974 15.8728 14.6586C15.88 14.6194 15.8838 14.5802 15.8838 14.5402V8.47853C15.8838 8.43892 15.88 8.39931 15.8728 8.36052C15.8657 8.32132 15.855 8.28334 15.841 8.24659C15.8266 8.20984 15.8096 8.17513 15.7887 8.14206C15.7683 8.10898 15.7452 8.07836 15.719 8.05018C15.6929 8.02201 15.6645 7.99669 15.6338 7.97464C15.6031 7.95259 15.5705 7.93422 15.5364 7.9187C15.5023 7.90359 15.467 7.89216 15.431 7.8844C15.3947 7.87664 15.3583 7.87256 15.3212 7.87256ZM14.7585 13.9343H10.259V9.0849H14.7585V13.9343Z" fill="white"/>
<path d="M15.3212 27.2695H9.69668C9.65955 27.2695 9.62317 27.2732 9.5868 27.281C9.5508 27.2887 9.51556 27.3002 9.48146 27.3157C9.44736 27.3308 9.41477 27.3496 9.38408 27.3716C9.35339 27.3937 9.32497 27.4186 9.29883 27.4467C9.27268 27.4749 9.24957 27.5055 9.22873 27.5386C9.20827 27.5717 9.19122 27.6068 9.17682 27.6436C9.1628 27.6803 9.15219 27.7183 9.14499 27.7575C9.13779 27.7963 9.134 27.8359 9.134 27.8755V33.9372C9.134 33.9768 9.13779 34.0164 9.14499 34.0552C9.15219 34.0944 9.1628 34.1324 9.17682 34.1691C9.19122 34.2059 9.20827 34.2406 9.22873 34.2737C9.24957 34.3067 9.27268 34.3374 9.29883 34.3655C9.32497 34.3937 9.35339 34.419 9.38408 34.4411C9.41477 34.4631 9.44736 34.4819 9.48146 34.497C9.51556 34.5125 9.5508 34.524 9.5868 34.5317C9.62317 34.5395 9.65955 34.5432 9.69668 34.5432H15.3212C15.3583 34.5432 15.3947 34.5395 15.431 34.5317C15.467 34.524 15.5023 34.5121 15.5364 34.497C15.5705 34.4819 15.6031 34.4631 15.6338 34.4411C15.6645 34.419 15.6929 34.3937 15.719 34.3655C15.7452 34.3374 15.7683 34.3067 15.7887 34.2737C15.8096 34.2406 15.8266 34.2059 15.841 34.1691C15.855 34.1324 15.8657 34.0944 15.8728 34.0552C15.88 34.0164 15.8838 33.9768 15.8838 33.9372V27.8755C15.8838 27.8359 15.88 27.7963 15.8728 27.7575C15.8657 27.7183 15.855 27.6803 15.841 27.6436C15.8266 27.6068 15.8096 27.5721 15.7887 27.539C15.7683 27.506 15.7452 27.4753 15.719 27.4472C15.6929 27.419 15.6645 27.3937 15.6338 27.3716C15.6031 27.3496 15.5705 27.3308 15.5364 27.3157C15.5023 27.3002 15.467 27.2887 15.431 27.281C15.3947 27.2732 15.3583 27.2695 15.3212 27.2695ZM14.7585 33.3312H10.259V28.4815H14.7585V33.3312Z" fill="white"/>
<path d="M33.3204 7.87256H27.6955C27.6587 7.87256 27.622 7.87664 27.586 7.8844C27.5496 7.89216 27.5144 7.90359 27.4803 7.9187C27.4462 7.93422 27.414 7.95259 27.3833 7.97464C27.3526 7.99669 27.3242 8.02201 27.298 8.05018C27.2719 8.07836 27.2484 8.10898 27.2279 8.14206C27.2075 8.17513 27.19 8.20984 27.176 8.24659C27.1616 8.28334 27.151 8.32132 27.1438 8.36052C27.1366 8.39931 27.1328 8.43892 27.1328 8.47853V14.5402C27.1328 14.5802 27.1366 14.6194 27.1438 14.6586C27.151 14.6974 27.1616 14.7354 27.176 14.7722C27.19 14.8089 27.2075 14.844 27.2279 14.8771C27.2484 14.9102 27.2719 14.9408 27.298 14.969C27.3242 14.9972 27.3526 15.0221 27.3833 15.0441C27.414 15.0662 27.4462 15.0849 27.4803 15.1001C27.5144 15.1156 27.5496 15.127 27.586 15.1348C27.622 15.1425 27.6587 15.1462 27.6955 15.1462H33.3204C33.3575 15.1462 33.3939 15.1425 33.4302 15.1348C33.4662 15.127 33.5015 15.1152 33.5356 15.1001C33.5697 15.0849 33.6023 15.0662 33.6329 15.0441C33.6636 15.0221 33.6921 14.9967 33.7182 14.969C33.744 14.9408 33.7675 14.9102 33.7879 14.8771C33.8084 14.844 33.8258 14.8089 33.8398 14.7722C33.8542 14.7354 33.8648 14.6974 33.872 14.6586C33.8792 14.6194 33.8826 14.5802 33.8826 14.5402V8.47853C33.8826 8.43892 33.8792 8.39931 33.872 8.36052C33.8648 8.32132 33.8542 8.28334 33.8398 8.24659C33.8258 8.20984 33.8084 8.17513 33.7879 8.14206C33.7675 8.10898 33.744 8.07836 33.7182 8.05018C33.6921 8.02201 33.6636 7.9971 33.6329 7.97464C33.6023 7.95259 33.5697 7.93422 33.5356 7.9187C33.5015 7.90359 33.4662 7.89216 33.4302 7.8844C33.3939 7.87664 33.3575 7.87256 33.3204 7.87256ZM32.7581 13.9343H28.2582V9.0849H32.7581V13.9343Z" fill="white"/>
<path d="M25.4459 17.5328H35.5703C35.6071 17.5328 35.6438 17.5291 35.6798 17.5214C35.7162 17.5136 35.7514 17.5022 35.7855 17.4866C35.8196 17.4715 35.8518 17.4528 35.8829 17.4307C35.9136 17.4087 35.942 17.3833 35.9682 17.3552C35.9939 17.3274 36.0174 17.2968 36.0379 17.2633C36.0583 17.2302 36.0758 17.1955 36.0898 17.1588C36.1042 17.122 36.1148 17.084 36.122 17.0448C36.1292 17.006 36.1326 16.9664 36.1326 16.9268V6.05413C36.1326 6.01411 36.1292 5.97491 36.122 5.93571C36.1148 5.89692 36.1042 5.85895 36.0898 5.8222C36.0758 5.78545 36.0583 5.75033 36.0379 5.71725C36.0174 5.68418 35.9939 5.65355 35.9682 5.62538C35.942 5.5972 35.9136 5.57189 35.8829 5.54984C35.8518 5.52779 35.8196 5.509 35.7855 5.4939C35.7514 5.47879 35.7162 5.46735 35.6798 5.4596C35.6438 5.45184 35.6071 5.44775 35.5703 5.44775H25.4459C25.4088 5.44775 25.3724 5.45143 25.336 5.45919C25.2997 5.46695 25.2648 5.47879 25.2303 5.4939C25.1962 5.509 25.164 5.52779 25.1333 5.54984C25.1023 5.57189 25.0738 5.5972 25.0477 5.62538C25.0216 5.65355 24.9984 5.68418 24.978 5.71725C24.9571 5.75033 24.9401 5.78504 24.9257 5.82179C24.9117 5.85895 24.9011 5.89651 24.8939 5.93571C24.8867 5.97491 24.8829 6.01411 24.8829 6.05413V16.9268C24.8829 16.9664 24.8867 17.006 24.8939 17.0448C24.9011 17.084 24.9117 17.122 24.9257 17.1588C24.9397 17.1955 24.9571 17.2302 24.9776 17.2633C24.9984 17.2968 25.0216 17.3274 25.0477 17.3552C25.0738 17.3833 25.1023 17.4087 25.133 17.4307C25.1636 17.4528 25.1962 17.4715 25.2303 17.4866C25.2644 17.5022 25.2997 17.5136 25.3357 17.5214C25.372 17.5291 25.4084 17.5328 25.4455 17.5328H25.4459ZM26.0082 6.6601H35.0076V16.3209H26.0082V6.6601Z" fill="white"/>
<path d="M6.88406 36.362C6.88406 36.4016 6.88785 36.4412 6.89505 36.48C6.90225 36.5192 6.91286 36.5572 6.92688 36.5939C6.94128 36.6307 6.95833 36.6654 6.97879 36.6985C6.99963 36.7316 7.02274 36.7622 7.04889 36.7904C7.07503 36.8185 7.10345 36.8434 7.13414 36.8659C7.16483 36.8879 7.19742 36.9063 7.23152 36.9218C7.26562 36.9369 7.30086 36.9484 7.33686 36.9561C7.37323 36.9639 7.40961 36.968 7.44674 36.968H17.5711C17.6082 36.968 17.6446 36.9639 17.681 36.9561C17.717 36.9484 17.7522 36.9369 17.7863 36.9218C17.8204 36.9063 17.853 36.8879 17.8837 36.8659C17.9144 36.8434 17.9428 36.8185 17.969 36.7904C17.9951 36.7622 18.0182 36.7316 18.0387 36.6985C18.0591 36.6654 18.0766 36.6307 18.0906 36.5939C18.105 36.5572 18.1156 36.5192 18.1228 36.48C18.13 36.4412 18.1334 36.4016 18.1334 36.362V25.4509C18.1334 25.4113 18.13 25.3717 18.1228 25.3325C18.1156 25.2933 18.105 25.2558 18.091 25.2186C18.077 25.1819 18.0595 25.1467 18.0391 25.1137C18.0186 25.0806 17.9955 25.05 17.9693 25.0218C17.9432 24.9936 17.9148 24.9683 17.8841 24.9462C17.8534 24.9242 17.8208 24.9054 17.7867 24.8903C17.7526 24.8748 17.7174 24.8634 17.681 24.8556C17.645 24.8478 17.6082 24.8438 17.5711 24.8438H7.44674C7.40961 24.8438 7.37323 24.8478 7.33686 24.8556C7.30086 24.8634 7.26562 24.8748 7.23152 24.8899C7.19742 24.9054 7.16483 24.9238 7.13414 24.9458C7.10345 24.9683 7.07503 24.9932 7.04889 25.0214C7.02274 25.0495 6.99963 25.0802 6.97879 25.1132C6.95833 25.1463 6.94128 25.181 6.92688 25.2178C6.91286 25.2545 6.90225 25.2925 6.89505 25.3317C6.88785 25.3705 6.88406 25.4101 6.88406 25.4497V36.362ZM8.00942 26.0573H17.0088V35.7556H8.00942V26.0573Z" fill="white"/>
<path d="M19.8211 10.2973C19.8578 10.2973 19.8946 10.2932 19.9306 10.2854C19.9669 10.2777 20.0022 10.2662 20.0363 10.2511C20.0704 10.2356 20.103 10.2172 20.1337 10.1948C20.1644 10.1727 20.1928 10.1478 20.2189 10.1196C20.2451 10.0915 20.2682 10.0608 20.2886 10.0278C20.3091 9.99468 20.3265 9.95956 20.3405 9.92281C20.3549 9.88606 20.3656 9.84809 20.3728 9.80889C20.38 9.7701 20.3837 9.73049 20.3837 9.69088V6.66023H20.9457C20.9832 6.66105 21.0207 6.65819 21.0574 6.65125C21.0946 6.64431 21.1306 6.63328 21.1654 6.61858C21.2003 6.60388 21.2336 6.58551 21.2651 6.56346C21.2965 6.54141 21.3261 6.5165 21.3526 6.48791C21.3795 6.45974 21.4038 6.42911 21.425 6.39563C21.4458 6.36215 21.464 6.32703 21.4784 6.28946C21.4932 6.25231 21.5042 6.21392 21.5114 6.17431C21.5189 6.13471 21.5227 6.09428 21.5227 6.05386C21.5227 6.01343 21.5189 5.97341 21.5114 5.93381C21.5042 5.8942 21.4932 5.85581 21.4784 5.81866C21.464 5.78109 21.4458 5.74597 21.425 5.71249C21.4038 5.67901 21.3795 5.64797 21.3526 5.6198C21.3261 5.59162 21.2965 5.56671 21.2651 5.54466C21.2336 5.52261 21.2003 5.50424 21.1654 5.48954C21.1306 5.47484 21.0946 5.46381 21.0574 5.45687C21.0207 5.44993 20.9832 5.44707 20.9457 5.44789H19.8211C19.7839 5.44789 19.7476 5.45197 19.7112 5.45973C19.6748 5.46749 19.64 5.47892 19.6058 5.49403C19.5714 5.50914 19.5392 5.52792 19.5085 5.54997C19.4778 5.57202 19.4494 5.59734 19.4232 5.62551C19.3971 5.65369 19.3736 5.68431 19.3531 5.71739C19.3327 5.75046 19.3152 5.78558 19.3012 5.82233C19.2872 5.85908 19.2762 5.89706 19.269 5.93585C19.2618 5.97505 19.2584 6.01425 19.2584 6.05426V9.69088C19.2584 9.73049 19.2618 9.7701 19.269 9.80889C19.2762 9.84809 19.2872 9.88606 19.3012 9.92281C19.3152 9.95956 19.3327 9.99468 19.3531 10.0278C19.3736 10.0608 19.3971 10.0915 19.4232 10.1196C19.4494 10.1478 19.4778 10.1727 19.5085 10.1948C19.5392 10.2172 19.5714 10.2356 19.6058 10.2511C19.64 10.2662 19.6748 10.2777 19.7112 10.2854C19.7476 10.2932 19.7839 10.2973 19.8211 10.2973Z" fill="white"/>
<path d="M23.7583 6.05413C23.7583 6.09374 23.7549 6.13335 23.7477 6.17255C23.7405 6.21134 23.7299 6.24931 23.7155 6.28606C23.7014 6.32281 23.684 6.35793 23.6635 6.391C23.6431 6.42408 23.6196 6.4547 23.5938 6.48288C23.5677 6.51105 23.5393 6.53596 23.5086 6.55801C23.4775 6.58047 23.4453 6.59885 23.4112 6.61436C23.3771 6.62947 23.3419 6.6409 23.3055 6.64866C23.2695 6.65642 23.2327 6.6605 23.196 6.6605C23.1588 6.6605 23.1225 6.65642 23.0861 6.64866C23.0497 6.6409 23.0145 6.62947 22.9804 6.61436C22.9463 6.59885 22.9141 6.58047 22.8834 6.55801C22.8527 6.53596 22.8243 6.51105 22.7981 6.48288C22.772 6.4547 22.7485 6.42408 22.728 6.391C22.7076 6.35793 22.6901 6.32281 22.6761 6.28606C22.6621 6.24931 22.6511 6.21134 22.6439 6.17255C22.6367 6.13335 22.6333 6.09374 22.6333 6.05413C22.6333 6.01411 22.6367 5.97491 22.6439 5.93571C22.6511 5.89692 22.6621 5.85895 22.6761 5.8222C22.6901 5.78545 22.7076 5.75033 22.728 5.71725C22.7485 5.68418 22.772 5.65355 22.7981 5.62538C22.8243 5.5972 22.8527 5.57189 22.8834 5.54984C22.9141 5.52779 22.9463 5.509 22.9804 5.4939C23.0145 5.47879 23.0497 5.46735 23.0861 5.4596C23.1225 5.45184 23.1588 5.44775 23.196 5.44775C23.2327 5.44775 23.2695 5.45184 23.3055 5.4596C23.3419 5.46735 23.3771 5.47879 23.4112 5.4939C23.4453 5.509 23.4775 5.52779 23.5086 5.54984C23.5393 5.57189 23.5677 5.5972 23.5938 5.62538C23.6196 5.65355 23.6431 5.68418 23.6635 5.71725C23.684 5.75033 23.7014 5.78545 23.7155 5.8222C23.7299 5.85895 23.7405 5.89692 23.7477 5.93571C23.7549 5.97491 23.7583 6.01411 23.7583 6.05413Z" fill="white"/>
<path d="M22.071 10.2972H23.196C23.2327 10.2972 23.2695 10.2931 23.3055 10.2853C23.3419 10.2776 23.3771 10.2661 23.4112 10.251C23.4453 10.2355 23.4775 10.2171 23.5086 10.1947C23.5393 10.1726 23.5677 10.1477 23.5938 10.1195C23.6196 10.0914 23.6431 10.0607 23.6636 10.0277C23.684 9.99459 23.7015 9.95947 23.7155 9.92272C23.7299 9.88597 23.7405 9.84799 23.7477 9.80879C23.7549 9.77 23.7583 9.73039 23.7583 9.69079V8.47845C23.7583 8.43884 23.7549 8.39923 23.7477 8.36003C23.7405 8.32124 23.7299 8.28326 23.7155 8.24651C23.7015 8.20976 23.684 8.17465 23.6636 8.14157C23.6431 8.1085 23.6196 8.07787 23.5938 8.0497C23.5677 8.02152 23.5393 7.99661 23.5086 7.97456C23.4775 7.9521 23.4453 7.93373 23.4112 7.91821C23.3771 7.9031 23.3419 7.89167 23.3055 7.88391C23.2695 7.87615 23.2327 7.87207 23.196 7.87207C23.1589 7.87207 23.1225 7.87615 23.0861 7.88391C23.0497 7.89167 23.0145 7.9031 22.9804 7.91821C22.9463 7.93373 22.9141 7.9521 22.8834 7.97456C22.8527 7.99661 22.8243 8.02152 22.7981 8.0497C22.772 8.07787 22.7485 8.1085 22.728 8.14157C22.7076 8.17465 22.6902 8.20976 22.6761 8.24651C22.6621 8.28326 22.6511 8.32124 22.6439 8.36003C22.6367 8.39923 22.6333 8.43884 22.6333 8.47845V9.08482H22.071C22.0335 9.0836 21.9964 9.08686 21.9592 9.0938C21.9221 9.10074 21.8865 9.11177 21.8513 9.12647C21.8164 9.14117 21.7831 9.15954 21.7516 9.18159C21.7202 9.20364 21.691 9.22855 21.6641 9.25673C21.6372 9.2849 21.6133 9.31594 21.5921 9.34942C21.5709 9.3829 21.5531 9.41802 21.5383 9.45518C21.5239 9.49274 21.5129 9.53113 21.5053 9.57074C21.4977 9.61034 21.4943 9.65036 21.4943 9.69079C21.4943 9.73121 21.4977 9.77123 21.5053 9.81124C21.5129 9.85085 21.5239 9.88924 21.5383 9.92639C21.5531 9.96355 21.5709 9.99908 21.5921 10.0326C21.6133 10.066 21.6372 10.0967 21.6641 10.1248C21.691 10.1534 21.7202 10.1783 21.7516 10.2004C21.7831 10.222 21.8164 10.2404 21.8513 10.2555C21.8865 10.2702 21.9221 10.2808 21.9592 10.2882C21.9964 10.2951 22.0335 10.298 22.071 10.2972Z" fill="white"/>
<path d="M23.196 12.1154H22.071C22.0339 12.1154 21.9975 12.1195 21.9611 12.1272C21.9251 12.135 21.8899 12.1464 21.8558 12.1615C21.8217 12.177 21.7891 12.1954 21.7584 12.2179C21.7277 12.2399 21.6993 12.2648 21.6732 12.293C21.647 12.3212 21.6239 12.3518 21.6034 12.3849C21.583 12.4179 21.5655 12.4531 21.5512 12.4898C21.5371 12.5266 21.5265 12.5645 21.5193 12.6033C21.5121 12.6425 21.5083 12.6817 21.5083 12.7217V15.146C21.5076 15.1864 21.5102 15.2269 21.5167 15.2665C21.5231 15.3065 21.5333 15.3453 21.547 15.3829C21.5606 15.4204 21.5777 15.4564 21.5981 15.4902C21.6186 15.5241 21.6417 15.5556 21.6679 15.5846C21.6944 15.6136 21.7228 15.6397 21.7539 15.6622C21.7849 15.685 21.8175 15.7042 21.8524 15.7201C21.8869 15.7357 21.9225 15.7475 21.9592 15.7557C21.996 15.7638 22.0331 15.7679 22.0706 15.7679C22.1085 15.7679 22.1457 15.7638 22.1824 15.7557C22.2192 15.7475 22.2548 15.7357 22.2893 15.7201C22.3241 15.7042 22.3567 15.685 22.3878 15.6622C22.4188 15.6397 22.4473 15.6136 22.4738 15.5846C22.4999 15.5556 22.523 15.5241 22.5435 15.4902C22.564 15.4564 22.581 15.4204 22.5947 15.3829C22.6083 15.3453 22.6185 15.3065 22.625 15.2665C22.6314 15.2269 22.6341 15.1864 22.6333 15.146V13.3277H23.196C23.2335 13.3285 23.2706 13.3257 23.3078 13.3187C23.3445 13.3118 23.3805 13.3008 23.4154 13.2861C23.4502 13.2714 23.4836 13.253 23.515 13.2309C23.5469 13.2089 23.576 13.184 23.6029 13.1558C23.6298 13.1272 23.6537 13.0966 23.6749 13.0631C23.6961 13.0296 23.7139 12.9945 23.7283 12.9569C23.7431 12.9198 23.7541 12.8814 23.7617 12.8418C23.7689 12.8022 23.7727 12.7618 23.7727 12.7213C23.7727 12.6809 23.7689 12.6409 23.7617 12.6013C23.7541 12.5617 23.7431 12.5233 23.7283 12.4861C23.7139 12.4486 23.6961 12.4135 23.6749 12.38C23.6537 12.3465 23.6298 12.3155 23.6029 12.2873C23.576 12.2591 23.5469 12.2342 23.515 12.2121C23.4836 12.1901 23.4502 12.1717 23.4154 12.157C23.3805 12.1423 23.3445 12.1313 23.3078 12.1244C23.2706 12.1174 23.2335 12.1146 23.196 12.1154Z" fill="white"/>
<path d="M19.8211 17.571H23.196C23.2335 17.5722 23.2706 17.5694 23.3078 17.562C23.3445 17.5551 23.3805 17.5444 23.4154 17.5293C23.4502 17.5146 23.4836 17.4963 23.515 17.4746C23.5469 17.4526 23.576 17.4273 23.6029 17.3991C23.6298 17.3709 23.6537 17.3403 23.6749 17.3068C23.6961 17.2733 23.714 17.2378 23.7283 17.2006C23.7431 17.1635 23.7541 17.1247 23.7613 17.0851C23.7689 17.0455 23.7727 17.0054 23.7727 16.965C23.7727 16.9246 23.7689 16.8846 23.7613 16.845C23.7541 16.8054 23.7431 16.767 23.7283 16.7294C23.714 16.6923 23.6961 16.6567 23.6749 16.6237C23.6537 16.5902 23.6298 16.5591 23.6029 16.531C23.576 16.5028 23.5469 16.4775 23.515 16.4558C23.4836 16.4338 23.4502 16.4154 23.4154 16.4007C23.3805 16.386 23.3445 16.375 23.3078 16.368C23.2706 16.3611 23.2335 16.3578 23.196 16.3591H20.3837V12.1157C20.3837 12.076 20.38 12.0364 20.3728 11.9972C20.3656 11.9584 20.3549 11.9205 20.3405 11.8837C20.3265 11.847 20.3091 11.8119 20.2886 11.7788C20.2682 11.7457 20.2451 11.7151 20.2189 11.6869C20.1928 11.6587 20.1644 11.6338 20.1337 11.6118C20.103 11.5893 20.0704 11.5709 20.0363 11.5554C20.0022 11.5403 19.9669 11.5289 19.9306 11.5211C19.8946 11.5134 19.8578 11.5093 19.8211 11.5093C19.7839 11.5093 19.7476 11.5134 19.7112 11.5211C19.6748 11.5289 19.64 11.5403 19.6058 11.5554C19.5714 11.5709 19.5392 11.5893 19.5085 11.6118C19.4778 11.6338 19.4494 11.6587 19.4232 11.6869C19.3971 11.7151 19.3736 11.7457 19.3531 11.7788C19.3327 11.8119 19.3152 11.847 19.3012 11.8837C19.2872 11.9205 19.2762 11.9584 19.269 11.9972C19.2618 12.0364 19.2584 12.076 19.2584 12.1157V16.965C19.2584 17.0046 19.2622 17.0442 19.2694 17.083C19.2766 17.1222 19.2872 17.1602 19.3012 17.197C19.3156 17.2337 19.3327 17.2684 19.3531 17.3015C19.374 17.3346 19.3971 17.3652 19.4232 17.3934C19.4494 17.4215 19.4778 17.4469 19.5085 17.4689C19.5392 17.491 19.5717 17.5097 19.6058 17.5248C19.64 17.54 19.6752 17.5518 19.7112 17.5596C19.7476 17.5673 19.7839 17.571 19.8211 17.571Z" fill="white"/>
<path d="M24.3206 32.1187C24.2838 32.1187 24.2471 32.1227 24.2111 32.1305C24.1747 32.1383 24.1395 32.1497 24.1054 32.1648C24.0713 32.1803 24.0391 32.1987 24.0084 32.2211C23.9777 32.2432 23.9493 32.2681 23.9231 32.2963C23.897 32.3245 23.8739 32.3551 23.853 32.3882C23.8326 32.4212 23.8155 32.4563 23.8011 32.4931C23.7871 32.5298 23.7765 32.5678 23.7693 32.6066C23.7621 32.6458 23.7583 32.685 23.7583 32.725V35.7557H22.071C22.0335 35.7545 21.9964 35.7577 21.9592 35.7647C21.9221 35.7716 21.8865 35.7826 21.8513 35.7973C21.8164 35.812 21.7831 35.8304 21.7516 35.8525C21.7202 35.8745 21.691 35.8994 21.6641 35.9276C21.6372 35.9558 21.6133 35.9868 21.5921 36.0203C21.5709 36.0538 21.5531 36.0889 21.5383 36.126C21.5239 36.1636 21.5129 36.202 21.5053 36.2416C21.4981 36.2812 21.4943 36.3212 21.4943 36.3616C21.4943 36.4021 21.4981 36.4421 21.5053 36.4821C21.5129 36.5217 21.5239 36.5601 21.5383 36.5973C21.5531 36.6344 21.5709 36.6699 21.5921 36.7034C21.6133 36.7369 21.6372 36.7675 21.6641 36.7957C21.691 36.8243 21.7202 36.8492 21.7516 36.8712C21.7831 36.8929 21.8164 36.9113 21.8513 36.9264C21.8865 36.9411 21.9221 36.9517 21.9592 36.959C21.9964 36.966 22.0335 36.9688 22.071 36.968H24.3206C24.3577 36.968 24.3941 36.9639 24.4305 36.9562C24.4665 36.9484 24.5017 36.937 24.5358 36.9215C24.5699 36.9064 24.6021 36.8876 24.6328 36.8655C24.6635 36.8435 24.6919 36.8186 24.7181 36.7904C24.7442 36.7622 24.7677 36.7316 24.7882 36.6985C24.8086 36.6654 24.826 36.6303 24.8401 36.5936C24.8541 36.5568 24.8647 36.5193 24.8719 36.4801C24.8795 36.4413 24.8829 36.4017 24.8829 36.3621V32.725C24.8829 32.685 24.8791 32.6458 24.8719 32.6066C24.8647 32.5678 24.8541 32.5298 24.8401 32.4931C24.826 32.4563 24.8086 32.4212 24.7882 32.3882C24.7673 32.3551 24.7442 32.3245 24.7181 32.2963C24.6919 32.2681 24.6635 32.2432 24.6328 32.2211C24.6021 32.1987 24.5695 32.1803 24.5354 32.1648C24.5013 32.1497 24.4665 32.1383 24.4301 32.1305C24.3937 32.1227 24.3573 32.1187 24.3202 32.1187H24.3206Z" fill="white"/>
<path d="M20.3837 36.3617C20.3837 36.4014 20.38 36.441 20.3728 36.4798C20.3656 36.519 20.3549 36.5569 20.3405 36.5937C20.3265 36.6304 20.3091 36.6655 20.2886 36.6986C20.2682 36.7317 20.2451 36.7623 20.2189 36.7905C20.1928 36.8187 20.1644 36.8436 20.1337 36.8656C20.103 36.8877 20.0704 36.9065 20.0363 36.922C20.0022 36.9371 19.9669 36.9485 19.9306 36.9563C19.8946 36.964 19.8578 36.9681 19.8211 36.9681C19.7839 36.9681 19.7476 36.964 19.7112 36.9563C19.6748 36.9485 19.64 36.9371 19.6058 36.922C19.5714 36.9065 19.5392 36.8877 19.5085 36.8656C19.4778 36.8436 19.4494 36.8187 19.4232 36.7905C19.3971 36.7623 19.3736 36.7317 19.3531 36.6986C19.3327 36.6655 19.3152 36.6304 19.3012 36.5937C19.2872 36.5569 19.2762 36.519 19.269 36.4798C19.2618 36.441 19.2584 36.4014 19.2584 36.3617C19.2584 36.3217 19.2618 36.2825 19.269 36.2433C19.2762 36.2041 19.2872 36.1666 19.3012 36.1298C19.3152 36.0927 19.3327 36.0579 19.3531 36.0249C19.3736 35.9918 19.3971 35.9612 19.4232 35.933C19.4494 35.9048 19.4778 35.8795 19.5085 35.8575C19.5392 35.8354 19.5714 35.8166 19.6058 35.8015C19.64 35.7864 19.6748 35.775 19.7112 35.7672C19.7476 35.759 19.7839 35.7554 19.8211 35.7554C19.8578 35.7554 19.8946 35.759 19.9306 35.7672C19.9669 35.775 20.0022 35.7864 20.0363 35.8015C20.0704 35.8166 20.103 35.8354 20.1337 35.8575C20.1644 35.8795 20.1928 35.9048 20.2189 35.933C20.2451 35.9612 20.2682 35.9918 20.2886 36.0249C20.3091 36.0579 20.3265 36.0927 20.3405 36.1298C20.3549 36.1666 20.3656 36.2041 20.3728 36.2433C20.38 36.2825 20.3837 36.3217 20.3837 36.3617Z" fill="white"/>
<path d="M19.8211 34.5433C19.8578 34.5433 19.8946 34.5397 19.9306 34.5319C19.9669 34.5241 20.0022 34.5123 20.0363 34.4972C20.0704 34.4821 20.1026 34.4633 20.1333 34.4413C20.164 34.4192 20.1924 34.3939 20.2185 34.3657C20.2447 34.3375 20.2682 34.3069 20.2886 34.2738C20.3091 34.2408 20.3265 34.2061 20.3405 34.1693C20.3549 34.1326 20.3656 34.0946 20.3728 34.0554C20.38 34.0166 20.3834 33.977 20.3837 33.9374V33.3314H22.071C22.1078 33.3314 22.1445 33.3273 22.1809 33.3196C22.2169 33.3118 22.2521 33.3004 22.2862 33.2853C22.3203 33.2697 22.3529 33.2514 22.3836 33.2289C22.4143 33.2069 22.4427 33.182 22.4689 33.1538C22.495 33.1256 22.5181 33.095 22.539 33.0619C22.5594 33.0288 22.5765 32.9937 22.5909 32.957C22.6049 32.9202 22.6155 32.8822 22.6227 32.8434C22.6299 32.8042 22.6337 32.7646 22.6337 32.725C22.6337 32.685 22.6299 32.6458 22.6227 32.6066C22.6155 32.5678 22.6049 32.5298 22.5909 32.4931C22.5765 32.4563 22.5594 32.4212 22.539 32.3882C22.5181 32.3551 22.495 32.3245 22.4689 32.2963C22.4427 32.2681 22.4143 32.2428 22.3836 32.2207C22.3529 32.1987 22.3203 32.1799 22.2862 32.1648C22.2521 32.1497 22.2169 32.1383 22.1809 32.1305C22.1445 32.1227 22.1078 32.1187 22.071 32.1187H19.8211C19.7839 32.1187 19.7476 32.1227 19.7112 32.1305C19.6752 32.1383 19.64 32.1497 19.6058 32.1648C19.5717 32.1803 19.5392 32.1987 19.5085 32.2211C19.4778 32.2432 19.4494 32.2681 19.4232 32.2963C19.3971 32.3245 19.374 32.3551 19.3531 32.3882C19.3327 32.4212 19.3156 32.4563 19.3012 32.4931C19.2872 32.5298 19.2766 32.5678 19.2694 32.6066C19.2622 32.6458 19.2584 32.685 19.2584 32.725V33.9374C19.2584 33.977 19.2622 34.0166 19.2694 34.0554C19.2766 34.0946 19.2872 34.1326 19.3012 34.1693C19.3156 34.2061 19.3327 34.2408 19.3531 34.2738C19.374 34.3069 19.3971 34.3375 19.4232 34.3657C19.4494 34.3939 19.4778 34.4192 19.5085 34.4413C19.5392 34.4633 19.5717 34.4821 19.6058 34.4972C19.64 34.5123 19.6752 34.5241 19.7112 34.5319C19.7476 34.5397 19.7839 34.5433 19.8211 34.5433Z" fill="white"/>
<path d="M19.8211 26.057C19.8578 26.057 19.8946 26.0529 19.9306 26.0452C19.9669 26.0374 20.0022 26.026 20.0363 26.0109C20.0704 25.9954 20.1026 25.977 20.1333 25.9545C20.164 25.9325 20.1924 25.9076 20.2185 25.8794C20.2447 25.8512 20.2682 25.8206 20.2886 25.7875C20.3091 25.7544 20.3265 25.7193 20.3405 25.6826C20.3549 25.6458 20.3656 25.6079 20.3728 25.5691C20.38 25.5299 20.3834 25.4907 20.3837 25.4506V22.42H21.5083C21.5458 22.4208 21.5834 22.418 21.6201 22.411C21.6572 22.4041 21.6932 22.393 21.7281 22.3783C21.763 22.3636 21.7963 22.3453 21.8278 22.3232C21.8592 22.3012 21.8884 22.2763 21.9153 22.2481C21.9422 22.2199 21.9664 22.1889 21.9873 22.1554C22.0085 22.1219 22.0263 22.0868 22.0411 22.0496C22.0555 22.0121 22.0665 21.9737 22.074 21.9341C22.0816 21.8945 22.0854 21.8545 22.0854 21.814C22.0854 21.7736 22.0816 21.7332 22.074 21.6936C22.0665 21.654 22.0555 21.6156 22.0411 21.5784C22.0263 21.5409 22.0085 21.5057 21.9873 21.4723C21.9664 21.4388 21.9422 21.4081 21.9153 21.38C21.8884 21.3514 21.8592 21.3265 21.8278 21.3044C21.7963 21.2824 21.763 21.2644 21.7281 21.2493C21.6932 21.2346 21.6572 21.224 21.6201 21.2166C21.5834 21.2097 21.5458 21.2068 21.5083 21.2077H19.8211C19.7839 21.2077 19.7476 21.2117 19.7112 21.2195C19.6752 21.2273 19.64 21.2387 19.6058 21.2538C19.5717 21.2693 19.5392 21.2877 19.5085 21.3097C19.4778 21.3318 19.4494 21.3571 19.4232 21.3853C19.3971 21.4135 19.374 21.4441 19.3531 21.4772C19.3327 21.5102 19.3156 21.5449 19.3012 21.5817C19.2872 21.6184 19.2766 21.6564 19.2694 21.6956C19.2622 21.7344 19.2584 21.774 19.2584 21.8136V25.4506C19.2584 25.4907 19.2622 25.5299 19.2694 25.5691C19.2766 25.6079 19.2872 25.6458 19.3012 25.6826C19.3156 25.7193 19.3327 25.7544 19.3531 25.7875C19.374 25.8206 19.3971 25.8512 19.4232 25.8794C19.4494 25.9076 19.4778 25.9325 19.5085 25.9545C19.5392 25.977 19.5717 25.9954 19.6058 26.0109C19.64 26.026 19.6752 26.0374 19.7112 26.0452C19.7476 26.0529 19.7839 26.057 19.8211 26.057Z" fill="white"/>
<path d="M19.8211 19.9957H23.196V23.0267C23.1967 23.0659 23.2013 23.1043 23.2089 23.1427C23.2168 23.1811 23.2282 23.2178 23.2426 23.2538C23.2574 23.2897 23.2748 23.324 23.2956 23.3563C23.3161 23.3881 23.3396 23.4179 23.3654 23.4453C23.3915 23.4726 23.4199 23.4971 23.4502 23.5188C23.4805 23.54 23.5127 23.558 23.5461 23.5731C23.5798 23.5878 23.6147 23.5988 23.6503 23.6062C23.6859 23.6139 23.7219 23.6176 23.7583 23.6176C23.7947 23.6176 23.8306 23.6139 23.8663 23.6062C23.9019 23.5988 23.9367 23.5878 23.9701 23.5731C24.0038 23.558 24.036 23.54 24.0663 23.5188C24.0966 23.4971 24.1251 23.4726 24.1512 23.4453C24.177 23.4179 24.2005 23.3881 24.2209 23.3563C24.2418 23.324 24.2592 23.2897 24.274 23.2538C24.2884 23.2178 24.2997 23.1811 24.3073 23.1427C24.3153 23.1043 24.3198 23.0659 24.3206 23.0267V19.3897C24.3206 19.3497 24.3172 19.3105 24.31 19.2713C24.3028 19.2325 24.2922 19.1945 24.2778 19.1578C24.2637 19.121 24.2463 19.0859 24.2258 19.0528C24.2054 19.0198 24.1823 18.9891 24.1561 18.961C24.13 18.9328 24.1016 18.9079 24.0709 18.8858C24.0402 18.8634 24.0076 18.845 23.9735 18.8295C23.9394 18.8144 23.9045 18.8029 23.8682 18.7952C23.8318 18.7874 23.7954 18.7833 23.7583 18.7833H19.8211C19.7836 18.7825 19.746 18.7854 19.7093 18.7923C19.6722 18.7993 19.6362 18.8103 19.6013 18.825C19.5664 18.8397 19.5331 18.8581 19.5016 18.8801C19.4702 18.9022 19.441 18.9271 19.4141 18.9552C19.3872 18.9834 19.363 19.0145 19.3417 19.0479C19.3209 19.0814 19.3027 19.1165 19.2883 19.1541C19.2735 19.1913 19.2626 19.2296 19.2554 19.2693C19.2478 19.3089 19.244 19.3489 19.244 19.3893C19.244 19.4297 19.2478 19.4702 19.2554 19.5098C19.2626 19.5494 19.2735 19.5878 19.2883 19.6249C19.3027 19.6625 19.3209 19.6976 19.3417 19.7311C19.363 19.7646 19.3872 19.7952 19.4141 19.8238C19.441 19.8519 19.4702 19.8769 19.5016 19.8989C19.5331 19.921 19.5664 19.9393 19.6013 19.954C19.6362 19.9687 19.6722 19.9798 19.7093 19.9867C19.746 19.9936 19.7836 19.9965 19.8211 19.9957Z" fill="white"/>
<path d="M6.88406 23.0266C6.88406 23.0663 6.88785 23.1059 6.89505 23.1447C6.90225 23.1839 6.91286 23.2218 6.92688 23.2586C6.94128 23.2953 6.95833 23.33 6.97879 23.3631C6.99963 23.3962 7.02274 23.4268 7.04889 23.455C7.07503 23.4832 7.10345 23.5081 7.13414 23.5305C7.16483 23.5526 7.19742 23.571 7.23152 23.5865C7.26562 23.6016 7.30086 23.613 7.33686 23.6208C7.37323 23.6285 7.40961 23.6326 7.44674 23.6326H10.8217C10.858 23.6314 10.8936 23.6269 10.9293 23.6183C10.9649 23.6097 10.999 23.5975 11.0323 23.582C11.0657 23.5665 11.0975 23.5473 11.1271 23.5252C11.157 23.5028 11.1846 23.4779 11.21 23.4497C11.2354 23.4215 11.2582 23.3913 11.2779 23.3582C11.2979 23.3255 11.3146 23.2912 11.3283 23.2549C11.3423 23.2186 11.3525 23.1814 11.3593 23.1426C11.3665 23.1042 11.3699 23.0654 11.3699 23.0262C11.3699 22.987 11.3665 22.9482 11.3593 22.9099C11.3525 22.8715 11.3423 22.8343 11.3283 22.798C11.3146 22.7616 11.2979 22.7269 11.2779 22.6943C11.2582 22.6616 11.2354 22.631 11.21 22.6032C11.1846 22.575 11.157 22.5497 11.1271 22.5277C11.0975 22.5052 11.0657 22.4864 11.0323 22.4709C10.999 22.455 10.9649 22.4431 10.9293 22.4346C10.8936 22.426 10.858 22.4211 10.8217 22.4203H8.00942V21.8139C8.00942 21.7743 8.00563 21.7347 7.99843 21.6955C7.99123 21.6567 7.98062 21.6187 7.96622 21.582C7.9522 21.5452 7.93477 21.5101 7.91431 21.477C7.89385 21.4439 7.87074 21.4133 7.84459 21.3851C7.81845 21.357 7.79003 21.3321 7.75934 21.31C7.72865 21.2876 7.69606 21.2692 7.66196 21.2537C7.62786 21.2386 7.59262 21.2271 7.55624 21.2194C7.52025 21.2116 7.48349 21.2075 7.44674 21.2075C7.40961 21.2075 7.37323 21.2116 7.33686 21.2194C7.30048 21.2271 7.26562 21.2386 7.23152 21.2537C7.19704 21.2692 7.16483 21.2876 7.13414 21.31C7.10345 21.3321 7.07503 21.357 7.04889 21.3851C7.02274 21.4133 6.99925 21.4439 6.97879 21.477C6.95833 21.5101 6.9409 21.5452 6.92688 21.582C6.91286 21.6187 6.90187 21.6567 6.89467 21.6955C6.88747 21.7347 6.88406 21.7743 6.88406 21.8139V23.0266Z" fill="white"/>
<path d="M9.69668 21.208C9.73343 21.208 9.77019 21.2043 9.80656 21.1966C9.84256 21.1888 9.8778 21.177 9.9119 21.1619C9.946 21.1468 9.97821 21.128 10.0089 21.1059C10.0396 21.0839 10.068 21.0586 10.0942 21.0304C10.1203 21.0022 10.1438 20.9716 10.1642 20.9385C10.1847 20.9054 10.2021 20.8707 10.2162 20.834C10.2302 20.7968 10.2408 20.7593 10.248 20.7201C10.2552 20.6809 10.259 20.6417 10.259 20.6021V19.3897C10.259 19.3497 10.2552 19.3105 10.248 19.2713C10.2408 19.2325 10.2302 19.1945 10.2162 19.1578C10.2021 19.121 10.1847 19.0859 10.1642 19.0528C10.1438 19.0198 10.1203 18.9891 10.0942 18.961C10.068 18.9328 10.0396 18.9079 10.0089 18.8858C9.97821 18.8634 9.946 18.845 9.9119 18.8295C9.8778 18.8144 9.84256 18.8029 9.80656 18.7952C9.77019 18.7874 9.73343 18.7833 9.69668 18.7833H7.44673C7.40922 18.7825 7.37171 18.7854 7.33496 18.7923C7.29782 18.7993 7.26183 18.8103 7.22697 18.825C7.19211 18.8397 7.15876 18.8581 7.12732 18.8801C7.09587 18.9022 7.06669 18.9271 7.03979 18.9552C7.01289 18.9834 6.98864 19.0145 6.96742 19.0479C6.94658 19.0814 6.92839 19.1165 6.91399 19.1541C6.89921 19.1913 6.88823 19.2296 6.88103 19.2693C6.87345 19.3089 6.86966 19.3489 6.86966 19.3893C6.86966 19.4297 6.87345 19.4702 6.88103 19.5098C6.88823 19.5494 6.89921 19.5878 6.91399 19.6249C6.92839 19.6625 6.94658 19.6976 6.96742 19.7311C6.98864 19.7646 7.01289 19.7952 7.03979 19.8238C7.06669 19.8519 7.09587 19.8769 7.12732 19.8989C7.15876 19.921 7.19211 19.9393 7.22697 19.954C7.26183 19.9687 7.29782 19.9798 7.33496 19.9867C7.37171 19.9936 7.40922 19.9965 7.44673 19.9957H9.134V20.6021C9.134 20.6417 9.13779 20.6813 9.14499 20.7201C9.15219 20.7593 9.1628 20.7972 9.17682 20.834C9.19122 20.8707 9.20827 20.9054 9.22873 20.9385C9.24957 20.9716 9.27268 21.0022 9.29883 21.0304C9.32497 21.0586 9.35339 21.0839 9.38408 21.1059C9.41477 21.128 9.44736 21.1468 9.48146 21.1619C9.51556 21.1774 9.5508 21.1888 9.5868 21.1966C9.62317 21.2043 9.65955 21.208 9.69668 21.208Z" fill="white"/>
<path d="M11.9463 18.7832C11.9095 18.7832 11.8727 18.7873 11.8367 18.795C11.8004 18.8028 11.7651 18.8142 11.731 18.8293C11.6969 18.8449 11.6647 18.8632 11.634 18.8857C11.6033 18.9077 11.5749 18.9327 11.5488 18.9608C11.5226 18.989 11.4991 19.0196 11.4787 19.0527C11.4582 19.0858 11.4408 19.1209 11.4268 19.1576C11.4124 19.1944 11.4018 19.2324 11.3946 19.2712C11.3874 19.3104 11.384 19.3496 11.3836 19.3896V20.6019C11.384 20.6415 11.3874 20.6811 11.3946 20.7199C11.4018 20.7591 11.4124 20.7971 11.4268 20.8339C11.4408 20.8706 11.4582 20.9053 11.4787 20.9384C11.4991 20.9715 11.5226 21.0021 11.5488 21.0303C11.5749 21.0584 11.6033 21.0838 11.634 21.1058C11.6647 21.1279 11.6969 21.1466 11.731 21.1617C11.7651 21.1769 11.8004 21.1887 11.8367 21.1965C11.8727 21.2042 11.9095 21.2079 11.9463 21.2079H15.3212C15.3583 21.2079 15.3947 21.2042 15.4311 21.1965C15.467 21.1887 15.5023 21.1773 15.5364 21.1617C15.5705 21.1466 15.6031 21.1279 15.6338 21.1058C15.6645 21.0838 15.6929 21.0584 15.719 21.0303C15.7452 21.0021 15.7687 20.9715 15.7891 20.9384C15.8096 20.9053 15.827 20.8706 15.841 20.8339C15.855 20.7971 15.8657 20.7591 15.8729 20.7199C15.8801 20.6811 15.8838 20.6415 15.8838 20.6019C15.8838 20.5619 15.8801 20.5223 15.8729 20.4835C15.8657 20.4443 15.855 20.4063 15.841 20.3696C15.827 20.3328 15.8096 20.2981 15.7891 20.265C15.7687 20.232 15.7452 20.2013 15.719 20.1732C15.6929 20.145 15.6645 20.1197 15.6338 20.0976C15.6031 20.0756 15.5705 20.0568 15.5364 20.0417C15.5023 20.0262 15.467 20.0147 15.4311 20.007C15.3947 19.9992 15.3583 19.9955 15.3212 19.9955H12.5085V19.3896C12.5085 19.3496 12.5051 19.3104 12.4976 19.2712C12.4904 19.2324 12.4798 19.1944 12.4657 19.1576C12.4517 19.1209 12.4343 19.0858 12.4138 19.0527C12.393 19.0196 12.3699 18.989 12.3437 18.9608C12.3176 18.9327 12.2892 18.9077 12.2585 18.8857C12.2278 18.8632 12.1952 18.8449 12.1611 18.8293C12.127 18.8142 12.0921 18.8028 12.0558 18.795C12.0194 18.7873 11.983 18.7832 11.9459 18.7832H11.9463Z" fill="white"/>
<path d="M18.1334 19.3895C18.1346 19.349 18.1315 19.309 18.1251 19.269C18.1186 19.229 18.1084 19.1902 18.0948 19.1526C18.0811 19.1151 18.0641 19.0791 18.0436 19.0452C18.0235 19.0114 18 18.9799 17.9739 18.9509C17.9477 18.9219 17.919 18.8958 17.8883 18.8733C17.8572 18.8505 17.8242 18.8313 17.7897 18.8154C17.7553 18.7998 17.7193 18.788 17.6825 18.7798C17.6458 18.7717 17.6086 18.7676 17.5711 18.7676C17.5336 18.7676 17.4965 18.7717 17.4597 18.7798C17.423 18.788 17.387 18.7998 17.3525 18.8154C17.318 18.8313 17.285 18.8505 17.254 18.8733C17.2233 18.8958 17.1945 18.9219 17.1683 18.9509C17.1422 18.9799 17.1187 19.0114 17.0982 19.0452C17.0782 19.0791 17.0611 19.1151 17.0475 19.1526C17.0334 19.1902 17.0236 19.229 17.0172 19.269C17.0103 19.309 17.0077 19.349 17.0088 19.3895V22.4201H13.0712C13.0349 22.4209 12.9989 22.4258 12.9636 22.4344C12.928 22.443 12.8935 22.4548 12.8602 22.4708C12.8268 22.4863 12.7954 22.5051 12.7654 22.5275C12.7355 22.5496 12.7079 22.5749 12.6825 22.6031C12.6571 22.6308 12.6347 22.6614 12.6146 22.6941C12.5949 22.7268 12.5779 22.7615 12.5642 22.7978C12.5506 22.8342 12.5404 22.8713 12.5332 22.9097C12.5264 22.9481 12.5229 22.9869 12.5229 23.0261C12.5229 23.0653 12.5264 23.1041 12.5332 23.1425C12.5404 23.1813 12.5506 23.2184 12.5642 23.2548C12.5779 23.2911 12.5949 23.3254 12.6146 23.3581C12.6347 23.3911 12.6571 23.4214 12.6825 23.4495C12.7079 23.4777 12.7355 23.5026 12.7654 23.5251C12.7954 23.5471 12.8268 23.5663 12.8602 23.5818C12.8935 23.5973 12.928 23.6096 12.9636 23.6182C12.9989 23.6267 13.0349 23.6312 13.0712 23.6325H17.5711C17.6082 23.6325 17.6446 23.6284 17.681 23.6206C17.717 23.6129 17.7522 23.6014 17.7863 23.5863C17.8204 23.5708 17.853 23.5524 17.8837 23.5304C17.9144 23.5079 17.9428 23.483 17.969 23.4548C17.9951 23.4267 18.0182 23.396 18.0387 23.363C18.0591 23.3299 18.0766 23.2952 18.0906 23.2584C18.105 23.2217 18.1156 23.1837 18.1228 23.1445C18.13 23.1057 18.1334 23.0661 18.1334 23.0265V19.3895Z" fill="white"/>
<path d="M36.1326 19.3896C36.1326 19.3496 36.1292 19.3104 36.122 19.2712C36.1148 19.2324 36.1038 19.1944 36.0898 19.1576C36.0758 19.1209 36.0583 19.0858 36.0379 19.0527C36.0174 19.0196 35.9939 18.989 35.9678 18.9608C35.9416 18.9327 35.9132 18.9077 35.8825 18.8857C35.8518 18.8632 35.8196 18.8449 35.7855 18.8293C35.7514 18.8142 35.7162 18.8028 35.6798 18.795C35.6438 18.7873 35.607 18.7832 35.5703 18.7832H32.1954C32.159 18.7844 32.123 18.7889 32.0874 18.7975C32.0521 18.8061 32.0177 18.8179 31.9843 18.8338C31.951 18.8494 31.9195 18.8681 31.8896 18.8906C31.8597 18.9131 31.832 18.938 31.8066 18.9661C31.7812 18.9943 31.7589 19.0245 31.7388 19.0572C31.7187 19.0899 31.702 19.1246 31.6884 19.1609C31.6748 19.1973 31.6645 19.2344 31.6573 19.2728C31.6505 19.3112 31.6471 19.35 31.6471 19.3892C31.6471 19.4284 31.6505 19.4672 31.6573 19.5055C31.6645 19.5443 31.6748 19.5815 31.6884 19.6178C31.702 19.6542 31.7187 19.6885 31.7388 19.7216C31.7589 19.7542 31.7812 19.7844 31.8066 19.8126C31.832 19.8408 31.8597 19.8657 31.8896 19.8882C31.9195 19.9102 31.951 19.9294 31.9843 19.9449C32.0177 19.9608 32.0521 19.9727 32.0874 19.9813C32.123 19.9898 32.159 19.9943 32.1954 19.9955H35.0076V20.6019C35.0076 20.6415 35.011 20.6811 35.0182 20.7199C35.0254 20.7591 35.0364 20.7971 35.0504 20.8339C35.0645 20.8706 35.0819 20.9053 35.1023 20.9384C35.1228 20.9715 35.1463 21.0021 35.1724 21.0303C35.1986 21.0584 35.227 21.0838 35.2577 21.1058C35.2884 21.1279 35.3206 21.1466 35.3547 21.1617C35.3888 21.1773 35.424 21.1887 35.4604 21.1965C35.4968 21.2042 35.5332 21.2079 35.5703 21.2079C35.607 21.2079 35.6438 21.2042 35.6798 21.1965C35.7162 21.1887 35.7514 21.1773 35.7855 21.1617C35.8196 21.1466 35.8518 21.1279 35.8829 21.1058C35.9136 21.0838 35.942 21.0584 35.9681 21.0303C35.9939 21.0021 36.0174 20.9715 36.0379 20.9384C36.0583 20.9053 36.0758 20.8706 36.0898 20.8339C36.1042 20.7971 36.1148 20.7591 36.122 20.7199C36.1292 20.6811 36.1326 20.6415 36.1326 20.6019V19.3896Z" fill="white"/>
<path d="M26.5709 25.4509C26.5705 25.491 26.5671 25.5302 26.5599 25.5694C26.5527 25.6082 26.5417 25.6461 26.5277 25.6829C26.5133 25.7196 26.4963 25.7543 26.4754 25.7874C26.455 25.8205 26.4318 25.8511 26.4057 25.8793C26.3796 25.9075 26.3508 25.9328 26.3201 25.9548C26.2894 25.9769 26.2572 25.9952 26.2231 26.0104C26.189 26.0259 26.1537 26.0373 26.1174 26.0451C26.081 26.0528 26.0446 26.0565 26.0075 26.0565C25.9707 26.0565 25.934 26.0524 25.898 26.0447C25.8616 26.0369 25.8267 26.0255 25.7923 26.0104C25.7582 25.9948 25.7259 25.9761 25.6953 25.954C25.6646 25.932 25.6361 25.9066 25.61 25.8785C25.5839 25.8503 25.5607 25.8197 25.5403 25.7866C25.5198 25.7535 25.5024 25.7188 25.4884 25.6821C25.474 25.6453 25.4634 25.6073 25.4562 25.5681C25.449 25.5293 25.4456 25.4897 25.4456 25.4501C25.4456 25.4101 25.4493 25.3709 25.4565 25.3317C25.4637 25.2925 25.4744 25.2549 25.4884 25.2182C25.5024 25.181 25.5198 25.1463 25.5403 25.1132C25.5611 25.0802 25.5842 25.0495 25.6104 25.0214C25.6365 24.9932 25.6649 24.9683 25.6956 24.9458C25.7263 24.9238 25.7589 24.9054 25.793 24.8899C25.8271 24.8748 25.8624 24.8634 25.8983 24.8556C25.9347 24.8478 25.9711 24.8438 26.0082 24.8438C26.045 24.8438 26.0817 24.8478 26.1177 24.8556C26.1541 24.8634 26.1893 24.8748 26.2235 24.8903C26.2576 24.9054 26.2898 24.9242 26.3205 24.9462C26.3511 24.9683 26.3796 24.9932 26.4057 25.0214C26.4318 25.0495 26.455 25.0802 26.4758 25.1132C26.4963 25.1463 26.5137 25.181 26.5277 25.2178C26.5417 25.2545 26.5527 25.2925 26.5599 25.3317C26.5671 25.3705 26.5705 25.4101 26.5709 25.4497V25.4509Z" fill="white"/>
<path d="M33.8827 23.0268V21.814C33.8819 21.7748 33.8774 21.7364 33.8694 21.698C33.8618 21.6597 33.8505 21.6225 33.8361 21.587C33.8213 21.551 33.8039 21.5167 33.783 21.4845C33.7626 21.4522 33.7391 21.4228 33.7129 21.3955C33.6872 21.3681 33.6587 21.3436 33.6284 21.322C33.5981 21.3007 33.5659 21.2824 33.5322 21.2677C33.4988 21.253 33.464 21.2419 33.4284 21.2342C33.3927 21.2268 33.3567 21.2231 33.3204 21.2231C33.284 21.2231 33.248 21.2268 33.2124 21.2342C33.1768 21.2419 33.1419 21.253 33.1082 21.2677C33.0745 21.2824 33.0426 21.3007 33.0123 21.322C32.9816 21.3436 32.9536 21.3681 32.9274 21.3955C32.9017 21.4228 32.8782 21.4522 32.8573 21.4845C32.8369 21.5167 32.8191 21.551 32.8047 21.587C32.7903 21.6225 32.7789 21.6597 32.771 21.698C32.7634 21.7364 32.7588 21.7748 32.7581 21.814V22.4204H30.5077C30.4714 22.4212 30.4358 22.4261 30.4001 22.4347C30.3645 22.4432 30.3304 22.4551 30.2971 22.471C30.2637 22.4865 30.2319 22.5053 30.202 22.5278C30.1724 22.5498 30.1448 22.5751 30.1194 22.6033C30.094 22.6311 30.0712 22.6617 30.0512 22.6944C30.0315 22.727 30.0148 22.7617 30.0008 22.7981C29.9871 22.8344 29.9769 22.8716 29.9701 22.91C29.9629 22.9484 29.9595 22.9871 29.9595 23.0263C29.9595 23.0655 29.9629 23.1043 29.9701 23.1427C29.9769 23.1815 29.9871 23.2187 30.0008 23.255C30.0148 23.2914 30.0315 23.3257 30.0512 23.3583C30.0712 23.3914 30.094 23.4216 30.1194 23.4498C30.1448 23.478 30.1724 23.5029 30.202 23.5253C30.2319 23.5474 30.2637 23.5666 30.2971 23.5821C30.3304 23.5976 30.3645 23.6099 30.4001 23.6184C30.4358 23.627 30.4714 23.6315 30.5077 23.6327H33.3204C33.3575 23.6327 33.3939 23.6286 33.4303 23.6209C33.4662 23.6131 33.5015 23.6017 33.5356 23.5866C33.5697 23.5711 33.6023 23.5527 33.633 23.5306C33.6637 23.5082 33.6921 23.4833 33.7182 23.4551C33.744 23.4269 33.7675 23.3963 33.7879 23.3632C33.8084 23.3301 33.8258 23.2954 33.8399 23.2587C33.8542 23.2219 33.8649 23.184 33.8721 23.1448C33.8793 23.106 33.8827 23.0664 33.8827 23.0268Z" fill="white"/>
<path d="M33.3204 29.6941H31.07C31.0325 29.6929 30.9954 29.6961 30.9583 29.7031C30.9215 29.71 30.8855 29.7211 30.8503 29.7358C30.8154 29.7505 30.7825 29.7688 30.7506 29.7909C30.7192 29.8125 30.69 29.8378 30.6631 29.866C30.6362 29.8942 30.6123 29.9252 30.5911 29.9587C30.5699 29.9918 30.5521 30.0273 30.5373 30.0645C30.5229 30.102 30.5119 30.1404 30.5043 30.18C30.4971 30.2196 30.4933 30.2596 30.4933 30.3001C30.4933 30.3405 30.4971 30.3805 30.5043 30.4201C30.5119 30.4597 30.5229 30.4985 30.5373 30.5357C30.5521 30.5728 30.5699 30.6084 30.5911 30.6418C30.6123 30.6753 30.6362 30.706 30.6631 30.7341C30.69 30.7623 30.7192 30.7876 30.7506 30.8097C30.7825 30.8313 30.8154 30.8497 30.8503 30.8644C30.8855 30.8795 30.9215 30.8901 30.9583 30.8971C30.9954 30.9044 31.0325 30.9073 31.07 30.906H32.7577V31.5112C32.7584 31.5504 32.763 31.5892 32.7706 31.6276C32.7785 31.6655 32.7899 31.7027 32.8043 31.7386C32.8191 31.7746 32.8365 31.8085 32.8573 31.8407C32.8778 31.873 32.9013 31.9028 32.9271 31.9301C32.9532 31.9575 32.9812 31.982 33.0119 32.0032C33.0422 32.0249 33.0745 32.0428 33.1078 32.0575C33.1415 32.0722 33.1764 32.0837 33.212 32.091C33.2476 32.0984 33.2836 32.1025 33.32 32.1025C33.3564 32.1025 33.3924 32.0984 33.428 32.091C33.4636 32.0837 33.4985 32.0722 33.5318 32.0575C33.5655 32.0428 33.5977 32.0249 33.628 32.0032C33.6584 31.982 33.6868 31.9575 33.7125 31.9301C33.7387 31.9028 33.7622 31.873 33.7826 31.8407C33.8035 31.8085 33.8209 31.7746 33.8357 31.7386C33.8501 31.7027 33.8614 31.6655 33.869 31.6276C33.877 31.5892 33.8815 31.5504 33.8823 31.5112V30.3001C33.8823 30.2601 33.8789 30.2209 33.8717 30.1817C33.8645 30.1429 33.8539 30.1049 33.8395 30.0681C33.8254 30.0314 33.808 29.9963 33.7876 29.9632C33.7671 29.9301 33.744 29.8995 33.7178 29.8713C33.6917 29.8431 33.6633 29.8182 33.6326 29.7962C33.6019 29.7741 33.5693 29.7554 33.5352 29.7402C33.5011 29.7247 33.4659 29.7133 33.4299 29.7055C33.3935 29.6978 33.3571 29.6941 33.32 29.6941H33.3204Z" fill="white"/>
<path d="M33.8827 33.937C33.8827 33.9766 33.8793 34.0162 33.8721 34.055C33.8649 34.0942 33.8542 34.1322 33.8398 34.169C33.8258 34.2057 33.8084 34.2408 33.7879 34.2739C33.7675 34.307 33.7444 34.3376 33.7182 34.3658C33.6921 34.3939 33.6637 34.4193 33.633 34.4413C33.6023 34.4634 33.5697 34.4821 33.5356 34.4973C33.5015 34.5124 33.4662 34.5242 33.4299 34.532C33.3939 34.5397 33.3571 34.5434 33.3204 34.5434C33.2832 34.5434 33.2469 34.5397 33.2105 34.532C33.1741 34.5242 33.1389 34.5128 33.1048 34.4973C33.0707 34.4821 33.0385 34.4634 33.0078 34.4413C32.9767 34.4193 32.9483 34.3939 32.9221 34.3658C32.896 34.3376 32.8729 34.307 32.8524 34.2739C32.832 34.2408 32.8145 34.2061 32.8005 34.1694C32.7861 34.1322 32.7755 34.0946 32.7683 34.0554C32.7611 34.0162 32.7577 33.977 32.7577 33.937C32.7577 33.8974 32.7611 33.8578 32.7683 33.8186C32.7755 33.7798 32.7861 33.7418 32.8005 33.7051C32.8145 33.6683 32.832 33.6332 32.8524 33.6001C32.8729 33.5671 32.8964 33.5364 32.9225 33.5083C32.9487 33.4801 32.9771 33.4552 33.0078 33.4331C33.0385 33.4107 33.071 33.3923 33.1051 33.3768C33.1392 33.3617 33.1745 33.3502 33.2109 33.3425C33.2469 33.3347 33.2836 33.3311 33.3204 33.3311C33.3575 33.3311 33.3939 33.3347 33.4302 33.3425C33.4662 33.3502 33.5015 33.3621 33.5356 33.3772C33.5697 33.3923 33.6019 33.4111 33.6326 33.4331C33.6633 33.4552 33.6917 33.4805 33.7178 33.5087C33.744 33.5364 33.7675 33.5671 33.7879 33.6001C33.8084 33.6332 33.8258 33.6683 33.8398 33.7051C33.8539 33.7418 33.8645 33.7798 33.8721 33.8186C33.8793 33.8578 33.8827 33.897 33.8827 33.937Z" fill="white"/>
<path d="M29.3831 30.3003C29.3831 30.3399 29.3793 30.3795 29.3721 30.4183C29.3649 30.4575 29.3543 30.4955 29.3403 30.5322C29.3263 30.569 29.3089 30.6041 29.2884 30.6372C29.2679 30.6703 29.2445 30.7009 29.2183 30.7291C29.1922 30.7572 29.1637 30.7821 29.1331 30.8046C29.1024 30.8266 29.0702 30.8454 29.0361 30.8605C29.002 30.8756 28.9667 30.8875 28.9303 30.8952C28.8943 30.903 28.8576 30.9067 28.8205 30.9067C28.7837 30.9067 28.7469 30.903 28.711 30.8952C28.6746 30.8875 28.6393 30.8761 28.6052 30.8609C28.5711 30.8454 28.5386 30.8271 28.5079 30.8046C28.4772 30.7825 28.4488 30.7576 28.4226 30.7295C28.3965 30.7013 28.3733 30.6707 28.3529 30.6376C28.332 30.6045 28.315 30.5694 28.3006 30.5326C28.2866 30.4959 28.276 30.4579 28.2688 30.4191C28.2616 30.3799 28.2578 30.3403 28.2578 30.3007C28.2578 30.2607 28.2612 30.2215 28.2684 30.1823C28.276 30.1435 28.2866 30.1055 28.3006 30.0688C28.3146 30.0316 28.332 29.9969 28.3525 29.9638C28.373 29.9308 28.3965 29.9001 28.4226 29.872C28.4488 29.8438 28.4772 29.8185 28.5079 29.7964C28.5386 29.7744 28.5708 29.7556 28.6052 29.7405C28.6393 29.7254 28.6742 29.7135 28.7106 29.7058C28.7469 29.698 28.7833 29.6943 28.8205 29.6943C28.8572 29.6943 28.894 29.698 28.93 29.7058C28.9663 29.7135 29.0016 29.725 29.0357 29.7405C29.0698 29.7556 29.102 29.7744 29.1327 29.7964C29.1634 29.8185 29.1918 29.8434 29.2179 29.8716C29.2441 29.8997 29.2676 29.9304 29.288 29.9634C29.3085 29.9965 29.3259 30.0316 29.3399 30.0684C29.3543 30.1051 29.3649 30.1431 29.3721 30.1819C29.3793 30.2211 29.3831 30.2603 29.3831 30.3003Z" fill="white"/>
<path d="M31.07 33.3314H29.3831V32.725C29.3839 32.6846 29.3812 32.6446 29.3748 32.6045C29.368 32.5645 29.3581 32.5257 29.3445 32.4882C29.3305 32.4506 29.3134 32.4147 29.2933 32.3808C29.2729 32.3469 29.2498 32.3154 29.2232 32.2864C29.1971 32.2575 29.1687 32.2317 29.1376 32.2089C29.1065 32.186 29.0736 32.1668 29.0391 32.1509C29.0046 32.1354 28.969 32.1235 28.9322 32.1154C28.8951 32.1072 28.858 32.1035 28.8205 32.1035C28.783 32.1035 28.7458 32.1072 28.7091 32.1154C28.6723 32.1235 28.6367 32.1354 28.6018 32.1509C28.5674 32.1668 28.5348 32.186 28.5037 32.2089C28.4726 32.2317 28.4438 32.2575 28.4177 32.2864C28.3915 32.3154 28.3684 32.3469 28.348 32.3808C28.3275 32.4147 28.3105 32.4506 28.2968 32.4882C28.2832 32.5257 28.2729 32.5645 28.2665 32.6045C28.2601 32.6446 28.257 32.6846 28.2582 32.725V33.9373C28.2582 33.9769 28.2616 34.0166 28.2688 34.0553C28.276 34.0945 28.287 34.1321 28.301 34.1693C28.315 34.206 28.3324 34.2407 28.3529 34.2738C28.3734 34.3069 28.3968 34.3375 28.423 34.3657C28.4488 34.3939 28.4772 34.4192 28.5079 34.4412C28.5386 34.4633 28.5711 34.4821 28.6052 34.4972C28.6393 34.5123 28.6746 34.5241 28.7106 34.5319C28.747 34.5396 28.7833 34.5433 28.8205 34.5433H31.07C31.1075 34.5445 31.1447 34.5413 31.1818 34.5343C31.2189 34.5274 31.2549 34.5164 31.2898 34.5017C31.3247 34.487 31.358 34.4686 31.3895 34.4465C31.4209 34.4249 31.4501 34.3996 31.477 34.3714C31.5039 34.3432 31.5278 34.3122 31.549 34.2791C31.5702 34.2456 31.588 34.2101 31.6028 34.1729C31.6172 34.1358 31.6282 34.097 31.6357 34.0574C31.6433 34.0178 31.6467 33.9778 31.6467 33.9373C31.6467 33.8969 31.6433 33.8569 31.6357 33.8173C31.6282 33.7777 31.6172 33.7389 31.6028 33.7017C31.588 33.6646 31.5702 33.629 31.549 33.5956C31.5278 33.5625 31.5039 33.5315 31.477 33.5033C31.4501 33.4751 31.4209 33.4498 31.3895 33.4281C31.358 33.4061 31.3247 33.3877 31.2898 33.373C31.2549 33.3583 31.2189 33.3473 31.1818 33.3404C31.1447 33.3334 31.1075 33.3301 31.07 33.3314Z" fill="white"/>
<path d="M28.2582 21.208C28.2214 21.208 28.1847 21.2121 28.1483 21.2198C28.1123 21.2276 28.0771 21.239 28.043 21.2541C28.0089 21.2697 27.9763 21.288 27.9456 21.3101C27.9149 21.3321 27.8865 21.3575 27.8603 21.3856C27.8342 21.4138 27.8111 21.4444 27.7906 21.4775C27.7701 21.5106 27.7527 21.5453 27.7383 21.582C27.7243 21.6188 27.7137 21.6568 27.7065 21.696C27.6993 21.7348 27.6955 21.7744 27.6955 21.814V25.451C27.6955 25.491 27.6993 25.5302 27.7065 25.5694C27.7137 25.6082 27.7243 25.6462 27.7383 25.6829C27.7527 25.7197 27.7701 25.7548 27.7906 25.7879C27.8111 25.8209 27.8342 25.8516 27.8603 25.8797C27.8865 25.9079 27.9149 25.9328 27.9456 25.9549C27.9763 25.9773 28.0089 25.9957 28.043 26.0112C28.0771 26.0263 28.1123 26.0378 28.1483 26.0455C28.1847 26.0533 28.221 26.0574 28.2582 26.0574H31.0003C31.0367 26.0561 31.0727 26.0517 31.1079 26.0431C31.1435 26.0345 31.178 26.0227 31.2114 26.0067C31.2443 25.9912 31.2762 25.972 31.3061 25.95C31.336 25.9275 31.3637 25.9026 31.3891 25.8744C31.4145 25.8463 31.4368 25.816 31.4569 25.7834C31.4766 25.7503 31.4937 25.716 31.5073 25.6797C31.5209 25.6433 31.5312 25.6062 31.5384 25.5678C31.5452 25.529 31.5486 25.4902 31.5486 25.4514C31.5486 25.4122 31.5452 25.3734 31.5384 25.3346C31.5312 25.2962 31.5209 25.2591 31.5073 25.2227C31.4937 25.1864 31.4766 25.1521 31.4569 25.119C31.4368 25.0864 31.4145 25.0561 31.3891 25.028C31.3637 24.9998 31.336 24.9749 31.3061 24.9524C31.2762 24.9304 31.2443 24.9112 31.2114 24.8957C31.178 24.8797 31.1435 24.8679 31.1079 24.8593C31.0727 24.8507 31.0367 24.8463 31.0003 24.845H28.8205V21.814C28.8205 21.7744 28.8167 21.7348 28.8095 21.696C28.8023 21.6568 28.7917 21.6188 28.7777 21.582C28.7636 21.5453 28.7462 21.5106 28.7257 21.4775C28.7053 21.4444 28.6818 21.4138 28.6556 21.3856C28.6295 21.3575 28.6011 21.3325 28.5704 21.3101C28.5397 21.288 28.5075 21.2697 28.4734 21.2541C28.4393 21.239 28.4041 21.2276 28.3677 21.2198C28.3317 21.2121 28.2949 21.208 28.2582 21.208Z" fill="white"/>
<path d="M29.9454 18.7832H26.0082C25.9711 18.7832 25.9347 18.7873 25.8983 18.795C25.8623 18.8028 25.8271 18.8142 25.793 18.8293C25.7589 18.8449 25.7263 18.8632 25.6956 18.8857C25.6649 18.9077 25.6365 18.9327 25.6104 18.9608C25.5846 18.989 25.5611 19.0196 25.5406 19.0527C25.5202 19.0858 25.5028 19.1209 25.4887 19.1576C25.4747 19.1944 25.4637 19.2324 25.4565 19.2712C25.4493 19.3104 25.4459 19.3496 25.4459 19.3896V23.0266C25.4467 23.0658 25.4512 23.1042 25.4592 23.1426C25.4668 23.181 25.4781 23.2177 25.4925 23.2536C25.5073 23.2896 25.5247 23.3239 25.5456 23.3561C25.566 23.388 25.5895 23.4178 25.6157 23.4451C25.6414 23.4725 25.6699 23.497 25.7002 23.5186C25.7305 23.5399 25.7627 23.5578 25.7964 23.573C25.8301 23.5877 25.8646 23.5987 25.9002 23.606C25.9358 23.6138 25.9718 23.6175 26.0082 23.6175C26.0446 23.6175 26.0806 23.6138 26.1162 23.606C26.1518 23.5987 26.1867 23.5877 26.2204 23.573C26.2541 23.5578 26.286 23.5399 26.3163 23.5186C26.347 23.497 26.375 23.4725 26.4011 23.4451C26.4269 23.4178 26.4504 23.388 26.4712 23.3561C26.4917 23.3239 26.5095 23.2896 26.5239 23.2536C26.5383 23.2177 26.5497 23.181 26.5576 23.1426C26.5656 23.1042 26.5698 23.0658 26.5709 23.0266V19.9955H29.9454C29.9818 19.9943 30.0178 19.9898 30.0534 19.9813C30.0887 19.9727 30.1231 19.9608 30.1565 19.9449C30.1898 19.9294 30.2213 19.9102 30.2512 19.8882C30.2811 19.8657 30.3088 19.8408 30.3342 19.8126C30.3596 19.7844 30.3823 19.7542 30.402 19.7216C30.4221 19.6885 30.4388 19.6542 30.4524 19.6178C30.4661 19.5815 30.4767 19.5443 30.4835 19.5055C30.4903 19.4672 30.4941 19.4284 30.4941 19.3892C30.4941 19.35 30.4903 19.3112 30.4835 19.2728C30.4767 19.2344 30.4661 19.1973 30.4524 19.1609C30.4388 19.1246 30.4221 19.0899 30.402 19.0572C30.3823 19.0245 30.3596 18.9943 30.3342 18.9661C30.3088 18.938 30.2811 18.9131 30.2512 18.8906C30.2213 18.8681 30.1898 18.8494 30.1565 18.8338C30.1231 18.8179 30.0887 18.8061 30.0534 18.7975C30.0178 18.7889 29.9818 18.7844 29.9454 18.7832Z" fill="white"/>
<path d="M19.8211 30.9061H24.3206C24.3577 30.9061 24.3941 30.9025 24.4305 30.8947C24.4665 30.8865 24.5017 30.8751 24.5358 30.86C24.5699 30.8449 24.6025 30.8261 24.6328 30.8041C24.6635 30.7816 24.6919 30.7567 24.7181 30.7285C24.7442 30.7003 24.7677 30.6697 24.7881 30.6366C24.8086 30.6036 24.826 30.5685 24.8401 30.5317C24.8541 30.495 24.8647 30.4574 24.8719 30.4182C24.8795 30.3794 24.8829 30.3398 24.8829 30.3002V27.8755C24.8829 27.8359 24.8791 27.7963 24.8719 27.7575C24.8647 27.7183 24.8541 27.6803 24.8401 27.6436C24.826 27.6068 24.8086 27.5721 24.7881 27.539C24.7673 27.506 24.7442 27.4753 24.7181 27.4472C24.6919 27.419 24.6635 27.3937 24.6328 27.3716C24.6021 27.3496 24.5695 27.3308 24.5354 27.3157C24.5013 27.3002 24.4665 27.2887 24.4301 27.281C24.3937 27.2732 24.3573 27.2695 24.3202 27.2695H19.8211C19.7839 27.2695 19.7476 27.2732 19.7112 27.281C19.6752 27.2887 19.64 27.3002 19.6058 27.3157C19.5717 27.3308 19.5392 27.3496 19.5085 27.3716C19.4778 27.3937 19.4494 27.419 19.4232 27.4472C19.3971 27.4753 19.374 27.506 19.3531 27.539C19.3327 27.5721 19.3156 27.6068 19.3012 27.6436C19.2872 27.6803 19.2766 27.7183 19.2694 27.7575C19.2622 27.7963 19.2584 27.8359 19.2584 27.8755V30.3002C19.2584 30.3398 19.2622 30.3794 19.2694 30.4182C19.2766 30.4574 19.2872 30.4954 19.3012 30.5321C19.3156 30.5689 19.3327 30.6036 19.3531 30.6366C19.374 30.6697 19.3971 30.7003 19.4232 30.7285C19.4494 30.7567 19.4778 30.782 19.5085 30.8041C19.5392 30.8261 19.5717 30.8449 19.6058 30.86C19.64 30.8751 19.6752 30.887 19.7112 30.8947C19.7476 30.9025 19.7839 30.9061 19.8211 30.9061ZM20.3837 28.4815H23.7583V29.6942H20.3837V28.4815Z" fill="white"/>
<path d="M26.5709 36.9679H35.5703C35.6071 36.9679 35.6438 36.9638 35.6798 36.956C35.7162 36.9483 35.7514 36.9368 35.7855 36.9217C35.8196 36.9062 35.8518 36.8878 35.8825 36.8658C35.9132 36.8433 35.9416 36.8184 35.9678 36.7902C35.9939 36.7621 36.0174 36.7314 36.0379 36.6984C36.0583 36.6653 36.0758 36.6306 36.0898 36.5938C36.1038 36.5571 36.1148 36.5191 36.122 36.4799C36.1292 36.4411 36.1326 36.4015 36.1326 36.3619V27.8755C36.1326 27.8359 36.1292 27.7963 36.122 27.7575C36.1148 27.7183 36.1038 27.6803 36.0898 27.6436C36.0758 27.6068 36.0583 27.5721 36.0379 27.539C36.0174 27.506 35.9939 27.4753 35.9678 27.4472C35.9416 27.419 35.9132 27.3937 35.8825 27.3716C35.8518 27.3496 35.8196 27.3308 35.7855 27.3157C35.7514 27.3002 35.7162 27.2887 35.6798 27.281C35.6438 27.2732 35.6071 27.2695 35.5703 27.2695H26.5709C26.5338 27.2695 26.4974 27.2732 26.461 27.281C26.4247 27.2887 26.3898 27.3002 26.3553 27.3157C26.3212 27.3308 26.289 27.3496 26.2583 27.3716C26.2276 27.3937 26.1992 27.419 26.1731 27.4472C26.1469 27.4753 26.1234 27.506 26.103 27.539C26.0825 27.5721 26.0651 27.6068 26.0511 27.6436C26.037 27.6803 26.026 27.7183 26.0188 27.7575C26.0116 27.7963 26.0082 27.8359 26.0082 27.8755V36.3619C26.0082 36.4015 26.0116 36.4411 26.0188 36.4799C26.026 36.5191 26.037 36.5571 26.0511 36.5938C26.0651 36.6306 26.0825 36.6653 26.103 36.6984C26.1234 36.7314 26.1469 36.7621 26.1731 36.7902C26.1992 36.8184 26.2276 36.8433 26.2583 36.8658C26.289 36.8878 26.3212 36.9062 26.3557 36.9217C26.3898 36.9368 26.4247 36.9483 26.461 36.956C26.4974 36.9638 26.5338 36.9679 26.5709 36.9679ZM27.1328 28.4815H35.0076V35.7555H27.1328V28.4815Z" fill="white"/>
<path d="M23.7583 24.8439H22.7038C22.6663 24.8431 22.6291 24.8459 22.592 24.8529C22.5549 24.8602 22.5189 24.8708 22.484 24.8855C22.4491 24.9006 22.4158 24.919 22.3844 24.9407C22.3529 24.9627 22.3237 24.9876 22.2968 25.0162C22.2699 25.0444 22.2457 25.075 22.2248 25.1085C22.2036 25.142 22.1858 25.1775 22.171 25.2147C22.1566 25.2518 22.1456 25.2902 22.1381 25.3298C22.1305 25.3698 22.1271 25.4098 22.1271 25.4503C22.1271 25.4907 22.1305 25.5307 22.1381 25.5703C22.1456 25.6099 22.1566 25.6483 22.171 25.6859C22.1858 25.723 22.2036 25.7581 22.2248 25.7916C22.2457 25.8251 22.2699 25.8561 22.2968 25.8843C22.3237 25.9125 22.3529 25.9374 22.3844 25.9595C22.4158 25.9815 22.4491 25.9999 22.484 26.0146C22.5189 26.0293 22.5549 26.0403 22.592 26.0472C22.6291 26.0542 22.6663 26.0575 22.7038 26.0562H23.7583C23.7946 26.0554 23.8306 26.0505 23.8663 26.0419C23.9015 26.0334 23.936 26.0215 23.9693 26.0056C24.0027 25.9901 24.0341 25.9713 24.064 25.9488C24.094 25.9268 24.1216 25.9015 24.147 25.8733C24.1724 25.8455 24.1951 25.8149 24.2148 25.7822C24.2349 25.7496 24.2516 25.7149 24.2652 25.6785C24.2789 25.6422 24.2895 25.605 24.2963 25.5666C24.3031 25.5283 24.3069 25.4895 24.3069 25.4503C24.3069 25.4111 24.3031 25.3723 24.2963 25.3339C24.2895 25.2955 24.2789 25.2579 24.2652 25.2216C24.2516 25.1853 24.2349 25.151 24.2148 25.1183C24.1951 25.0852 24.1724 25.055 24.147 25.0268C24.1216 24.9986 24.094 24.9737 24.064 24.9513C24.0341 24.9292 24.0027 24.91 23.9693 24.8945C23.936 24.879 23.9015 24.8668 23.8663 24.8582C23.8306 24.8496 23.7946 24.8451 23.7583 24.8439Z" fill="white"/>
<path d="M36.1326 23.0268C36.1326 22.9868 36.1292 22.9476 36.122 22.9084C36.1148 22.8692 36.1042 22.8316 36.0898 22.7949C36.0758 22.7577 36.0583 22.723 36.0379 22.6899C36.0174 22.6568 35.9939 22.6262 35.9681 22.598C35.942 22.5699 35.9136 22.5445 35.8829 22.5225C35.8518 22.5004 35.8196 22.4817 35.7855 22.4666C35.7514 22.4514 35.7162 22.44 35.6798 22.4323C35.6438 22.4241 35.607 22.4204 35.5703 22.4204C35.5332 22.4204 35.4968 22.4241 35.4604 22.4323C35.424 22.44 35.3888 22.4514 35.3547 22.4666C35.3206 22.4817 35.2884 22.5004 35.2577 22.5225C35.227 22.5445 35.1986 22.5699 35.1724 22.598C35.1463 22.6262 35.1228 22.6568 35.1023 22.6899C35.0819 22.723 35.0645 22.7577 35.0504 22.7949C35.0364 22.8316 35.0254 22.8692 35.0182 22.9084C35.011 22.9476 35.0076 22.9868 35.0076 23.0268V24.8439H33.3203C33.2828 24.8431 33.2457 24.8459 33.2086 24.8529C33.1718 24.8602 33.1358 24.8708 33.101 24.8855C33.0657 24.9006 33.0328 24.919 33.0009 24.9406C32.9695 24.9627 32.9403 24.9876 32.9134 25.0162C32.8865 25.0444 32.8626 25.075 32.8414 25.1085C32.8202 25.142 32.8024 25.1775 32.788 25.2146C32.7732 25.2518 32.7622 25.2902 32.7546 25.3298C32.7474 25.3698 32.7437 25.4098 32.7437 25.4502C32.7437 25.4907 32.7474 25.5307 32.7546 25.5703C32.7622 25.6099 32.7732 25.6483 32.788 25.6859C32.8024 25.723 32.8202 25.7581 32.8414 25.7916C32.8626 25.8251 32.8865 25.8561 32.9134 25.8843C32.9403 25.9125 32.9695 25.9374 33.0009 25.9594C33.0328 25.9815 33.0657 25.9999 33.101 26.0146C33.1358 26.0293 33.1718 26.0403 33.2086 26.0472C33.2457 26.0542 33.2828 26.0574 33.3203 26.0562H35.5703C35.607 26.0562 35.6438 26.0521 35.6798 26.0444C35.7162 26.0366 35.7514 26.0252 35.7855 26.0101C35.8196 25.9946 35.8518 25.9762 35.8825 25.9541C35.9132 25.9317 35.9416 25.9068 35.9678 25.8786C35.9939 25.8504 36.0174 25.8198 36.0379 25.7867C36.0583 25.7536 36.0758 25.7185 36.0898 25.6818C36.1038 25.645 36.1148 25.607 36.122 25.5683C36.1292 25.5291 36.1326 25.4899 36.1326 25.4498V23.0268Z" fill="white"/>
</g>
<defs>
<clipPath id="clip0_125_2273">
<rect width="42" height="42" fill="white" transform="translate(0.5)"/>
</clipPath>
</defs>
</svg>
