<svg width="40" height="40" viewBox="0 0 40 40" fill="none" xmlns="http://www.w3.org/2000/svg">
<path fill-rule="evenodd" clip-rule="evenodd" d="M20.384 3.75059C29.1812 3.95483 36.25 11.1539 36.25 20.0002C36.25 28.9828 28.989 36.2671 19.9977 36.2502C10.9987 36.2332 3.65042 28.838 3.75009 19.8306C3.79075 15.8914 5.26204 12.1013 7.88985 9.16636C8.35035 8.65204 9.14061 8.60841 9.65493 9.06892C10.1692 9.52942 10.2129 10.3197 9.75237 10.834C7.52903 13.3172 6.28425 16.5239 6.24995 19.8568L6.24994 19.8578C6.16551 27.4673 12.3843 33.7359 20.0024 33.7502C27.6048 33.7645 33.75 27.6066 33.75 20.0002C33.75 12.8269 28.2569 6.93372 21.25 6.30217V11.8752C21.25 12.5655 20.6904 13.1252 20 13.1252C19.3097 13.1252 18.75 12.5655 18.75 11.8752V5.34281C18.7497 5.13002 18.7921 4.91933 18.8747 4.72323C18.9576 4.52641 19.0793 4.3483 19.2325 4.19952C19.3857 4.05075 19.5673 3.93434 19.7665 3.85725C19.9632 3.78108 20.1732 3.74484 20.384 3.75059Z" fill="#423F91"/>
<path d="M18.2328 21.7678L12.0609 12.9396C11.9756 12.8173 11.9359 12.6689 11.9491 12.5203C11.9622 12.3717 12.0271 12.2324 12.1326 12.127C12.2381 12.0215 12.3773 11.9565 12.5259 11.9434C12.6745 11.9303 12.823 11.9699 12.9453 12.0553L21.7734 18.2271C22.3149 18.6171 22.6811 19.2046 22.7928 19.8625C22.9045 20.5204 22.7527 21.1958 22.3702 21.7427C21.9878 22.2895 21.4054 22.6638 20.7491 22.7846C20.0928 22.9054 19.4154 22.7629 18.8633 22.3881C18.6192 22.2189 18.4059 22.0091 18.2328 21.7678Z" fill="#423F91"/>
</svg>
